<?xml version="1.0" encoding="utf-8"?>
<!-- Generator: Adobe Illustrator 24.1.0, SVG Export Plug-In . SVG Version: 6.00 Build 0)  -->
<svg version="1.1" id="Layer_1" xmlns="http://www.w3.org/2000/svg" xmlns:xlink="http://www.w3.org/1999/xlink" x="0px" y="0px"
	 viewBox="0 0 748.14 748.14" style="enable-background:new 0 0 748.14 748.14;" xml:space="preserve">
<style type="text/css">
	.st0{fill:none;stroke:#231F20;stroke-width:4;stroke-linecap:round;stroke-linejoin:round;stroke-miterlimit:10;}
	.st1{fill:none;stroke:#BB92C3;stroke-width:5;stroke-linecap:round;stroke-linejoin:round;stroke-miterlimit:10;}
	.st2{fill:none;stroke:#231F20;stroke-width:5;stroke-linecap:round;stroke-linejoin:round;stroke-miterlimit:10;}
	.st3{fill:#231F20;stroke:#231F20;stroke-width:3.8935;stroke-linecap:round;stroke-linejoin:round;stroke-miterlimit:10;}
	.st4{fill:#231F20;}
	.st5{fill:#0E0F10;}
	.st6{fill:#101112;}
	.st7{fill:#DBD8D4;}
	.st8{fill:#0E0E0E;}
	.st9{fill:#231F20;stroke:#231F20;stroke-width:1.6737;stroke-linecap:round;stroke-linejoin:round;stroke-miterlimit:10;}
	.st10{fill:none;stroke:#231F20;stroke-width:1.6737;stroke-linecap:round;stroke-linejoin:round;stroke-miterlimit:10;}
	.st11{fill:#231F20;stroke:#231F20;stroke-width:0.5;stroke-linecap:round;stroke-linejoin:round;stroke-miterlimit:10;}
	.st12{fill:#DEDBD7;stroke:#231F20;stroke-width:1.6737;stroke-linecap:round;stroke-linejoin:round;stroke-miterlimit:10;}
	.st13{fill:#232323;}
	.st14{fill:none;stroke:#231F20;stroke-width:5.9863;stroke-linecap:round;stroke-linejoin:round;stroke-miterlimit:10;}
	.st15{fill:#FFFFFF;}
	.st16{clip-path:url(#SVGID_2_);}
	.st17{fill:#DEDBD7;stroke:#DEDBD7;stroke-width:1.4797;stroke-linecap:round;stroke-linejoin:round;stroke-miterlimit:10;}
	.st18{fill:none;stroke:#DEDBD7;stroke-width:1.4797;stroke-linecap:round;stroke-linejoin:round;stroke-miterlimit:10;}
	.st19{fill:#DEDBD7;}
	.st20{fill:none;stroke:#231F20;stroke-width:5.2786;stroke-linecap:round;stroke-linejoin:round;stroke-miterlimit:10;}
	.st21{fill:#DEDBD7;stroke:#DEDBD7;stroke-width:1.6737;stroke-linecap:round;stroke-linejoin:round;stroke-miterlimit:10;}
	.st22{fill:none;stroke:#DEDBD7;stroke-width:1.6737;stroke-linecap:round;stroke-linejoin:round;stroke-miterlimit:10;}
</style>
<g>
	<path class="st4" d="M419.51,658.76c-19.91,0-28.9-10.45-33.93-36.34c-1.52,1.24-3.02,2.55-4.56,3.9
		c-5.82,5.1-12.41,10.88-21.77,13.45c-16.96,4.66-28.76,4.13-37.14-1.64c-8.06-5.56-12.51-15.51-14.02-31.31
		c-0.32-3.33-0.73-15.73,7.28-35.69l3.75-8.73c4.18-9.74,8.44-19.66,12.7-29.62c-7.85,11.94-16.17,23.77-25.38,36.55
		c-0.06,0.08-0.11,0.16-0.17,0.23c-4.79,6-9.76,12.89-14.58,19.55l-3.24,4.47c-7.53,10.37-18.33,18.44-31.23,23.34
		c-17.32,6.58-28.67,2.52-35.13-2.04c-10.49-7.4-16.54-21.97-16.19-38.97c0.23-10.83,3.85-21.69,6.99-29.95
		c6.87-18.1,14.44-36.23,21.77-53.76c1.47-3.51,2.93-7.01,4.39-10.52l-1.55,1.93c-10.43,12.97-20.59,25.6-30.76,38.22
		c-4.34,5.38-8.7,10.73-13.07,16.09c-8.98,11.02-18.27,22.41-27.11,33.8c-8.78,11.32-19.84,18.41-34.8,22.32
		c-15.62,4.08-30.11,2.13-37.83-5.08c-4.53-4.24-6.42-10-5.35-16.27c0.42-5.09,5-17.63,14.25-42.07l1.25-3.3
		c1.36-3.78,2-6.76,2.26-9c-9.39,13.12-22.19,18.44-35.55,14.61c-11.99-3.43-22.13-14-22.21-23.12c-0.32-11.17,7.5-21.41,18.3-35.57
		c1.73-2.27,3.54-4.64,5.41-7.14c1.13-1.51,2.38-3.01,3.69-4.59c4.01-4.82,9-10.81,7.19-14.05c-0.12-0.22-0.22-0.36-0.29-0.43
		c-1.3-0.06-4.9,1.85-6.64,2.78c-1.57,0.84-3.04,1.64-4.54,2.24c-6.7,2.69-13.16,2.87-19.76,0.54
		c-14.93-5.26-23.51-12.25-26.23-21.36c-2.68-8.98,0.52-19.26,9.8-31.42c7.4-9.7,15.62-18.88,23.57-27.77
		c3.38-3.77,6.87-7.67,10.23-11.54c4.54-5.22,5.01-6.77,3.15-10.31c-8.43-16.06-2.78-31.82,2.21-42.27
		c5.15-10.81,10.73-21.58,16.12-32.01l2.82-5.45c3.65-7.07,1.37-8.47,0.01-9.32c-20.16-12.44-18.24-30.27-13.7-46.07
		c9.93-34.58,26.85-65.67,40.49-88.91c2.64-4.49,7.46-11.71,11.21-16.26c6.03-7.32,10.99-10.92,17.86-15.91
		c9.73-7.06,23.17-7.53,31.27-1.08c7.37,5.87,12.36,20.18,8,30.56c-2.66,6.33-6.46,11.97-10.14,17.43
		c-0.62,0.93-1.25,1.85-1.86,2.77c-1.28,1.92-2.6,3.82-3.93,5.73c-3.29,4.73-6.49,9.33-9.21,14.46c0.45-0.47,0.9-0.94,1.35-1.42
		c1.34-1.41,2.73-2.87,4.22-4.25c1.14-1.06,2.27-2.14,3.4-3.22c4.43-4.23,9.01-8.61,14.4-12.06c10.14-6.5,23.35-4.22,33.65,5.8
		c10.19,9.91,11.35,22.9,3.03,33.89c-14.63,19.34-29.59,37.68-42.28,53.07c-6.21,7.53-11.89,15.44-16.95,23.61
		c5.6-5.16,10.97-10.47,16.2-15.64c5.93-5.86,12.06-11.92,18.58-17.82l2.55-2.31c9.44-8.55,19.2-17.4,29.53-25.33
		c12.12-9.3,29.73-12.82,43.82-8.76c9.87,2.85,17.11,9.29,20.38,18.15c2.57,6.96,0.83,15.5-0.86,23.76
		c-0.82,3.99-2.15,10.52-1.55,12.71c0.23,0.03,0.6,0.05,1.14,0.01c4.1-1.16,6.67-3.9,9.64-7.06c1.96-2.09,3.99-4.25,6.58-6.08
		c9.96-7.04,19.42-5.07,26.54-2.57c10.21,3.59,17.31,10.68,19.47,19.46c2.14,8.65-0.69,17.96-7.74,25.55
		c-4.75,5.11-9.41,10.21-13.79,15.47c9.71-7.57,21.49-8.18,35.08-1.79c12.09,5.69,17.38,16.06,14.13,27.74
		c-2.43,8.74-6.13,17.83-11.32,27.79c-8.85,17.01-17.99,34.22-26.83,50.86c-10.46,19.7-21.28,40.06-31.67,60.2
		c-6.67,12.91-12.86,26.39-18.84,39.55c18.75-27.82,37.69-56.61,56-84.46c15.56-23.67,31.66-48.14,47.55-71.88
		c16.45-24.56,35.83-49.8,59.27-77.14l0.83-0.97c2.61-3.06,5.31-6.22,8.5-9.03c10.4-9.18,26.69-10.65,37.09-3.36
		c11.8,8.27,16.44,23.24,11.03,35.59c-3.53,8.05-7.96,15.99-12.25,23.66c-3.71,6.63-7.54,13.48-10.62,20.16
		c0,0.01-0.01,0.01-0.01,0.02c0.42-0.52,0.85-1,1.27-1.46c6.8-7.29,15.62-11.06,24.82-10.63c9.05,0.43,17.28,4.89,23.19,12.56
		c6.62,8.59,7.68,17.75,3.18,27.22c-2.97,6.23-5.9,12.48-8.83,18.73c-4.74,10.11-9.65,20.56-14.63,30.79
		c-18.54,38.1-33.51,72.71-45.79,105.82c-0.87,2.36-1.66,4.7-2.35,7.03c2.7-4.29,5.41-8.68,7.81-13.08
		c7.98-14.65,15.91-29.33,23.84-44.01c10.76-19.92,21.88-40.51,32.97-60.7c7.06-12.85,14.4-25.82,21.5-38.35
		c12.56-22.19,25.55-45.13,37.36-68.12c11.06-21.51,24.31-41.82,37.12-61.46c2.84-4.35,5.67-8.69,8.49-13.06
		c7.04-10.91,14.21-17.64,23.24-21.81c6.93-3.2,17.38-3.61,27.96-1.09c11.32,2.7,20.04,8.12,23.94,14.89
		c5.84,10.15,6.95,21.84,3.37,35.73c-3.95,15.38-8.01,28.65-12.4,40.57c-7.88,21.41-15.07,47.78-22.68,75.7
		c-13.2,48.44-28.16,103.33-50.96,146.64c0,0,0,0,0,0c-4.12,7.83-14.76,21.49-25.9,25.14c-11.18,4.53-21.18,3.54-28.17-2.8
		c-8.81-7.99-16.29-27.49-1.93-75.01c1.84-6.1,3.15-10.84,4.3-15.02c1.45-5.27,2.7-9.83,4.58-15.55l0.13-0.4
		c0.38-1.15,0.75-2.29,1.12-3.4c-8.51,15.57-16.98,31.1-25.45,46.64c-22.72,41.67-46.21,84.76-69.68,126.95
		c-8.15,14.66-17.74,28.28-28.51,43.3c-7.13,9.93-17.35,16.17-30.38,18.54C429.43,658.19,424.17,658.76,419.51,658.76z
		 M388.92,606.88c0.73,0,1.47,0.14,2.17,0.41c1.67,0.65,2.96,2.03,3.5,3.74c0.34,1.05,0.66,1.97,0.94,2.8
		c0.63,1.81,1.17,3.37,1.51,5.16c4.93,26.56,11.02,31,36.21,26.42c10.03-1.82,17.5-6.33,22.84-13.77
		c10.56-14.71,19.93-28.03,27.78-42.14c23.44-42.15,46.92-85.22,69.63-126.86c8.58-15.73,17.15-31.46,25.75-47.18
		c1.29-2.42,2.46-4.64,3.55-6.72c4.4-8.38,7.58-14.44,14.37-24.57c1.48-2.21,4.26-3.16,6.78-2.35c2.53,0.82,4.21,3.22,4.11,5.88
		c-0.65,17.36-4.27,28.37-8.46,41.12l-0.13,0.4c-1.79,5.44-3.01,9.87-4.41,14.99c-1.17,4.25-2.49,9.06-4.38,15.31
		c-14.1,46.67-4.69,59.83-1.47,62.75c4.41,4,11.06,2.49,15.87,0.51c0.16-0.07,0.32-0.12,0.49-0.18
		c6.33-1.98,15.19-11.82,19.18-19.41c22.18-42.15,36.96-96.38,50-144.22c7.68-28.18,14.93-54.79,22.99-76.69
		c4.25-11.54,8.18-24.44,12.04-39.43c2.8-10.88,2.11-19.41-2.16-26.83c-4.36-7.57-25.86-13.88-36.59-8.93
		c-6.86,3.17-12.48,8.55-18.22,17.46c-2.83,4.38-5.67,8.75-8.52,13.11c-12.64,19.38-25.72,39.43-36.5,60.39
		c-11.93,23.2-24.98,46.25-37.59,68.54c-7.08,12.5-14.4,25.43-21.42,38.22c-11.07,20.15-22.18,40.73-32.93,60.63
		c-7.94,14.69-15.87,29.39-23.86,44.05c-3.08,5.65-6.54,11.11-9.88,16.39l-2,3.17c-4.7,7.47-10.07,10.07-15.95,7.72
		c-6.01-2.4-4.81-11.18-4.02-14.84c1.14-5.29,2.76-10.74,4.78-16.22c12.41-33.48,27.54-68.45,46.25-106.9
		c4.94-10.16,9.83-20.57,14.56-30.64c2.94-6.27,5.88-12.53,8.86-18.78c2.56-5.39,2.01-9.83-1.86-14.85
		c-3.74-4.86-8.83-7.68-14.33-7.94c-5.64-0.27-11.17,2.17-15.55,6.86c-1.33,1.43-3.02,3.91-4.66,6.31
		c-4.2,6.17-8.17,11.99-13.69,12.99c-2.36,0.43-4.75-0.12-6.73-1.52c-8.9-6.31-2.41-17.52,1.46-24.22c1.11-1.92,2.15-3.72,2.85-5.23
		c3.28-7.1,7.22-14.16,11.04-20.98c4.15-7.43,8.44-15.11,11.74-22.63c3.09-7.06,0.1-16.12-6.96-21.07
		c-5.79-4.06-16.25-2.87-22.39,2.54c-2.56,2.26-4.88,4.97-7.33,7.84l-0.85,0.99c-23.13,26.98-42.24,51.84-58.42,76.01
		c-15.86,23.69-31.94,48.15-47.5,71.8c-18.42,28-37.46,56.96-56.34,84.96c-0.72,1.08-1.62,2.52-2.56,4.06
		c-5.76,9.35-10.31,16.07-16.41,17.38c-2.48,0.54-5.01,0.05-7.11-1.37c-4.61-3.12-5.13-8.59-1.54-16.25l0.13-0.27
		c1.73-3.78,3.44-7.56,5.16-11.34c6.63-14.61,13.48-29.71,20.99-44.25c10.43-20.2,21.26-40.59,31.74-60.32
		c8.83-16.62,17.95-33.81,26.79-50.77c4.8-9.22,8.21-17.56,10.41-25.48c1.66-5.96-0.95-10.6-7.73-13.79
		c-11.01-5.18-18.64-4.28-25.53,3c-1.3,1.38-2.57,2.86-4.03,4.58c-1.61,1.89-3.44,4.04-5.65,6.42c-0.14,0.15-13.8,14.46-21.52,8.86
		c-5.55-4.02-1.57-11.21-0.26-13.57c8.41-15.86,19.96-28.85,32.05-41.85c4.27-4.6,6.06-9.92,4.9-14.6
		c-1.21-4.88-5.42-8.82-11.86-11.09c-7.01-2.46-11.13-2.19-15.72,1.06c-1.61,1.14-3.14,2.77-4.77,4.51
		c-3.6,3.84-8.09,8.62-15.82,10.56c-0.27,0.07-0.54,0.12-0.82,0.15c-5.03,0.54-8.94-0.67-11.61-3.61
		c-4.96-5.46-3.19-14.12-1.32-23.29c1.29-6.31,2.75-13.47,1.36-17.25c-1.98-5.37-6.2-9.01-12.52-10.84
		c-10.3-2.97-24.29-0.13-33.27,6.76c-9.95,7.64-19.53,16.32-28.79,24.71l-2.55,2.31c-6.32,5.72-12.36,11.69-18.2,17.46
		c-6.56,6.49-13.35,13.19-20.64,19.66c-0.19,0.17-0.4,0.39-0.64,0.63c-1.86,1.88-5.35,5.35-10.46,5.19
		c-3.45-0.12-6.64-1.87-9.5-5.19c-1.6-1.86-1.89-4.5-0.75-6.66c6.98-13.19,15.45-25.85,25.18-37.65
		c12.62-15.3,27.48-33.52,41.98-52.68c5.91-7.81,2.26-14.2-1.83-18.18c-6.19-6.02-13.62-7.71-18.93-4.31
		c-4.42,2.83-8.39,6.63-12.59,10.64c-1.17,1.12-2.34,2.23-3.52,3.33c-1.22,1.14-2.42,2.4-3.7,3.74c-4.42,4.65-9.93,10.43-19.87,14.3
		c-2.05,0.8-4.36,0.4-6.03-1.03c-1.67-1.43-2.41-3.66-1.94-5.8c3.43-15.54,10.8-26.15,17.31-35.51c1.28-1.85,2.56-3.68,3.79-5.53
		c0.63-0.94,1.27-1.89,1.9-2.83c3.51-5.21,6.83-10.13,9.03-15.38c2.12-5.06-0.7-13.66-4.44-16.64c-3.44-2.74-11.04-2.83-16.87,1.4
		c-6.97,5.06-10.83,7.97-15.67,13.84c-3.24,3.93-7.69,10.57-10.13,14.72c-13.28,22.63-29.76,52.87-39.32,86.16
		c-4.94,17.19-2.71,25.73,8.51,32.65c3.92,2.42,12.18,9.68,4.32,24.9l-2.82,5.46c-5.35,10.34-10.88,21.02-15.95,31.66
		c-6.26,13.12-7,22.87-2.41,31.62c5.97,11.37-0.72,19.06-4.71,23.65c-3.42,3.93-6.94,7.86-10.34,11.67
		c-7.8,8.71-15.86,17.71-22.97,27.04c-6.71,8.8-9.35,15.79-7.86,20.8c1.53,5.13,7.85,9.69,18.78,13.54
		c3.86,1.36,7.36,1.25,11.37-0.36c0.88-0.35,2.07-1,3.34-1.68c4.98-2.68,16.65-8.94,22.95,2.34c5.8,10.38-2.43,20.26-8.44,27.47
		c-1.22,1.46-2.37,2.84-3.31,4.1c-1.89,2.53-3.72,4.93-5.47,7.23c-8.99,11.78-16.09,21.09-15.86,28.06c0,0.06,0,0.13,0,0.19
		c0,2.34,5.27,9.41,13.58,11.79c9.1,2.6,17.46-1.69,24.16-12.43c4.43-7.1,10.27-7.54,13.92-5.77c5.45,2.65,9.13,11.43,3.1,28.16
		l-1.28,3.4c-4.94,13.04-13.19,34.86-13.52,38.73c0,0.36-0.03,0.6-0.1,0.95c-0.46,2.43,0.07,4.21,1.72,5.75
		c3.72,3.48,13.66,5.67,26.69,2.26c12.29-3.21,21.31-8.96,28.4-18.1c8.92-11.51,18.26-22.95,27.28-34.02
		c4.35-5.34,8.7-10.68,13.03-16.04c10.17-12.61,20.32-25.24,30.75-38.21l13.74-17.09c2.83-3.36,7.94-9.41,13.53-6
		c5.71,3.48,3.83,10.9-4.73,31.43l-0.24,0.58c-1.63,3.91-3.26,7.81-4.89,11.72c-7.29,17.44-14.82,35.48-21.62,53.4
		c-2.8,7.37-6.03,16.97-6.22,25.98c-0.27,12.84,4,23.95,11.15,28.99c5.98,4.22,14.07,4.43,24.05,0.64
		c10.73-4.08,19.66-10.72,25.83-19.21l3.22-4.45c4.86-6.73,9.89-13.69,14.83-19.89c15.9-22.08,29.1-41.26,41.79-63.06
		c0.08-0.13,0.16-0.25,0.24-0.38c0.88-1.28,1.63-2.44,2.28-3.45c2.36-3.66,4.23-6.55,7.86-7.31c1.43-0.3,3.63-0.32,6,1.26
		c6.78,4.52,1.96,15.09-0.11,19.6l-0.08,0.18c-8.2,19.32-16.64,38.97-24.8,57.97l-3.69,8.6c-7.29,18.16-6.53,28.84-6.42,30
		c1.13,11.87,4.05,19.28,8.93,22.65c5.19,3.58,14.09,3.57,27.23-0.04c6.72-1.85,11.75-6.26,17.08-10.92
		c3.88-3.4,7.9-6.92,12.81-9.72C386.89,607.14,387.9,606.88,388.92,606.88z M629.99,505.95h0.01H629.99z"/>
</g>
</svg>
