<?xml version="1.0" encoding="utf-8"?>
<!-- Generator: Adobe Illustrator 24.1.0, SVG Export Plug-In . SVG Version: 6.00 Build 0)  -->
<svg version="1.1" id="Layer_1" xmlns="http://www.w3.org/2000/svg" xmlns:xlink="http://www.w3.org/1999/xlink" x="0px" y="0px"
	 viewBox="0 0 1935.48 1948.05" style="enable-background:new 0 0 1935.48 1948.05;" xml:space="preserve">
<style type="text/css">
	.st0{fill:none;stroke:#231F20;stroke-width:4;stroke-linecap:round;stroke-linejoin:round;stroke-miterlimit:10;}
	.st1{fill:none;stroke:#BB92C3;stroke-width:5;stroke-linecap:round;stroke-linejoin:round;stroke-miterlimit:10;}
	.st2{fill:none;stroke:#231F20;stroke-width:5;stroke-linecap:round;stroke-linejoin:round;stroke-miterlimit:10;}
	.st3{fill:#231F20;stroke:#231F20;stroke-width:3.8935;stroke-linecap:round;stroke-linejoin:round;stroke-miterlimit:10;}
	.st4{fill:#0E0F10;}
	.st5{fill:#101112;}
	.st6{fill:#DBD8D4;}
	.st7{fill:#231F20;}
	.st8{fill:#0E0E0E;}
	.st9{fill:#231F20;stroke:#231F20;stroke-width:1.6737;stroke-linecap:round;stroke-linejoin:round;stroke-miterlimit:10;}
	.st10{fill:none;stroke:#231F20;stroke-width:1.6737;stroke-linecap:round;stroke-linejoin:round;stroke-miterlimit:10;}
	.st11{fill:#231F20;stroke:#231F20;stroke-width:0.5;stroke-linecap:round;stroke-linejoin:round;stroke-miterlimit:10;}
	.st12{fill:#DEDBD7;stroke:#231F20;stroke-width:1.6737;stroke-linecap:round;stroke-linejoin:round;stroke-miterlimit:10;}
	.st13{fill:#232323;}
	.st14{fill:none;stroke:#231F20;stroke-width:5.9863;stroke-linecap:round;stroke-linejoin:round;stroke-miterlimit:10;}
	.st15{fill:#FFFFFF;}
	.st16{clip-path:url(#SVGID_2_);}
	.st17{fill:#DEDBD7;stroke:#DEDBD7;stroke-width:1.4797;stroke-linecap:round;stroke-linejoin:round;stroke-miterlimit:10;}
	.st18{fill:none;stroke:#DEDBD7;stroke-width:1.4797;stroke-linecap:round;stroke-linejoin:round;stroke-miterlimit:10;}
	.st19{fill:#DEDBD7;}
	.st20{fill:none;stroke:#231F20;stroke-width:5.2786;stroke-linecap:round;stroke-linejoin:round;stroke-miterlimit:10;}
	.st21{fill:#DEDBD7;stroke:#DEDBD7;stroke-width:1.6737;stroke-linecap:round;stroke-linejoin:round;stroke-miterlimit:10;}
	.st22{fill:none;stroke:#DEDBD7;stroke-width:1.6737;stroke-linecap:round;stroke-linejoin:round;stroke-miterlimit:10;}
</style>
<g>
	<g>
		<g>
			
				<ellipse transform="matrix(0.2819 -0.9594 0.9594 0.2819 -364.2824 1294.9373)" class="st7" cx="682.97" cy="890.84" rx="52.3" ry="45.64"/>
			<path class="st7" d="M679.55,945.04c-4,0-8.02-0.56-12-1.73c-25.41-7.47-39.17-37.08-30.67-66.02
				c8.5-28.93,36.09-46.39,61.51-38.93c25.41,7.47,39.17,37.08,30.67,66.02l0,0C721.88,928.79,701.12,945.04,679.55,945.04z
				 M686.37,841.42c-19.49,0-38.33,14.89-44.89,37.22c-7.76,26.4,4.54,53.34,27.42,60.07c22.87,6.71,47.8-9.29,55.55-35.69l0,0
				c7.76-26.4-4.54-53.34-27.42-60.07C693.51,841.92,689.93,841.42,686.37,841.42z"/>
		</g>
		<g>
			<path class="st7" d="M865.34,1022.63c-1.52,0-3.06-0.05-4.62-0.16c-52.63-3.51-57.08-37.59-60.33-62.46
				c-2.11-16.2-3.88-26.23-13.11-28.17c-12.28-2.61-20.59,15.14-29.39,33.92c-10.76,22.97-22.96,49.04-46.59,47.18
				c-9.19-0.71-16.8-5.03-22.61-12.84c-18.31-24.6-14.91-79.76-8.15-110.84c8-36.8,38.54-111.69,81.99-108.36
				c42.7,3.28,49.79,42.92,49.86,43.32c0.22,1.3-0.66,2.54-1.97,2.76c-1.3,0.26-2.54-0.66-2.76-1.96
				c-0.25-1.48-6.6-36.33-45.5-39.33c-39.89-3-69.53,70.55-76.93,104.6c-6.32,29.07-9.92,83.81,7.31,106.96
				c4.95,6.65,11.39,10.33,19.13,10.92c20.35,1.47,31.28-21.82,41.88-44.43c9.63-20.54,18.72-39.91,34.72-36.58
				c13.03,2.75,14.82,16.41,16.88,32.24c3.2,24.53,7.19,55.05,55.89,58.3c20.2,1.35,37.04-6.84,50.04-24.32
				c23.7-31.89,26.81-83.71,23.84-91.64c-0.46-1.24,0.16-2.62,1.4-3.09c1.24-0.48,2.62,0.17,3.09,1.4
				c3.26,8.71,0.65,62.38-24.48,96.19C901.89,1013.77,885.23,1022.63,865.34,1022.63z"/>
		</g>
		<g>
			<path class="st7" d="M918.09,839.72c-1.26,0-2.32-0.99-2.39-2.26c-0.92-16.51-5.71-34.26-12.83-47.47
				c-6.41-11.91-18.12-26.47-37.43-28.15c-34.67-3.1-63.4,41.48-63.68,41.93c-0.71,1.11-2.19,1.45-3.31,0.74
				c-1.12-0.71-1.45-2.19-0.74-3.31c1.23-1.94,30.58-47.37,68.15-44.14c39.88,3.47,53.18,53.93,54.63,80.13
				c0.07,1.32-0.94,2.45-2.26,2.53C918.18,839.72,918.13,839.72,918.09,839.72z"/>
		</g>
		<g>
			<path class="st7" d="M1094.78,873.13c-0.65,0-1.3-0.01-1.96-0.04c-15.76-0.63-27.91-5.75-36.11-15.22
				c-11.43-13.2-15.44-34.55-12.26-65.29c3.8-36.73,19.02-55.64,45.25-56.19h0c25.26-0.48,41.97,18.27,46.92,52.92
				c3.36,23.53,1.46,54.77-13.96,71.85C1115.46,869.1,1106.09,873.13,1094.78,873.13z M1089.78,741.18
				c-23.41,0.49-37.06,17.95-40.58,51.88c-3.04,29.35,0.6,49.52,11.12,61.66c7.41,8.55,18.1,12.99,32.68,13.57
				c10.7,0.41,19.48-3.06,26.08-10.36c14.33-15.87,15.84-46.52,12.78-67.95C1127.29,758.04,1112.4,740.65,1089.78,741.18
				L1089.78,741.18z"/>
		</g>
		<g>
			<path class="st7" d="M1016.99,839.94c-1.73,0-3.51-0.08-5.33-0.23c-37.03-3.09-36.07-41.87-35.65-58.44
				c0.04-1.64,0.08-3.1,0.08-4.35c0-9.74,5.43-41.21,22.91-56.46c7.51-6.56,16.23-9.2,25.9-7.89c36.49,4.98,38.92,38.35,38.94,38.68
				c0.08,1.32-0.93,2.45-2.25,2.53c-1.31,0.15-2.46-0.92-2.54-2.24c-0.08-1.21-2.28-29.79-34.8-34.22
				c-8.24-1.11-15.68,1.15-22.1,6.75c-16.03,13.99-21.27,44.06-21.27,52.85c0,1.28-0.04,2.78-0.08,4.46
				c-0.44,17.77-1.27,50.83,31.26,53.54c14.12,1.17,24.85-2.4,32.8-10.93c0.9-0.97,2.42-1.02,3.39-0.12
				c0.97,0.9,1.02,2.42,0.12,3.39C1040.52,835.69,1029.98,839.94,1016.99,839.94z"/>
		</g>
		<g>
			<path class="st7" d="M1005.75,811.25c-3.06,0-5.66-1.65-7.29-4.71c-2.18-4.07-2.39-10.85,0.58-13.82
				c4.91-4.91,10.6-0.31,12.46,1.2l0.27,0.22l0,0c4.33,3.47,6.13,6.89,5.33,10.18c-0.8,3.29-4.19,5.69-9.53,6.76
				C1006.94,811.18,1006.34,811.25,1005.75,811.25z M1004.13,795.31c-0.64,0-1.18,0.27-1.7,0.79c-1.01,1.01-1.31,5.25,0.26,8.17
				c1.25,2.33,2.84,2.3,3.94,2.09c3.91-0.78,5.57-2.21,5.81-3.19c0.3-1.24-1.07-3.22-3.66-5.3l-0.28-0.23
				C1006.53,796.06,1005.19,795.31,1004.13,795.31z"/>
		</g>
		<g>
			<path class="st7" d="M1083.07,836.94c-1.18,0-2.36-0.21-3.44-0.66c-3.19-1.32-5.01-4.42-5.01-8.5c0-5.27,1.47-8.58,4.5-10.09l0,0
				c4.72-2.37,8.92,1.83,10.71,3.63c4.11,4.11,4.11,8.82,0,12.93C1088.1,835.99,1085.56,836.94,1083.07,836.94z M1082,821.81
				c-0.25,0-0.5,0.05-0.73,0.17l0,0c-1.23,0.62-1.85,2.57-1.85,5.8c0,2.13,0.69,3.5,2.05,4.07c1.69,0.7,3.94,0.05,4.98-0.99
				c2.24-2.24,2.24-3.91,0-6.14C1085.46,823.72,1083.55,821.81,1082,821.81z M1080.2,819.84h0.03H1080.2z"/>
		</g>
		<g>
			<path class="st7" d="M910.06,802.36c-0.23,0-0.45-0.03-0.68-0.1c-1.27-0.38-1.99-1.71-1.62-2.98c0.41-1.4,10.41-34.19,37.2-35.87
				c27.09-1.79,35.63,28.45,35.72,28.76c0.35,1.28-0.4,2.59-1.68,2.94c-1.27,0.35-2.59-0.4-2.95-1.68
				c-0.3-1.09-7.64-26.61-30.79-25.24c-23.43,1.47-32.81,32.13-32.9,32.45C912.04,801.68,911.09,802.36,910.06,802.36z"/>
		</g>
		<g>
			<path class="st7" d="M789.72,1208.49c-18.46,0-32.13-7.79-37.56-22.28c-10.43-27.81,50.28-59.47,158.66-104.77
				c78.53-32.82,125.15-67.12,138.54-101.95c2.22-5.78,1.88-10.96-1.03-15.4c-6.09-9.31-22.89-15.25-46.11-16.31
				c-32.08-1.45-37.48,6.63-37.53,6.72c-0.67,1.09-2.11,1.51-3.23,0.88c-1.12-0.62-1.58-1.97-1-3.12c0.56-1.12,6.5-10.86,41.99-9.27
				c25.14,1.14,42.86,7.7,49.91,18.47c3.74,5.72,4.26,12.55,1.49,19.75c-13.88,36.1-61.38,71.31-141.17,104.65
				c-100.16,41.86-165.02,74.65-156.02,98.66c6.52,17.37,27.33,23.51,54.33,16.01c1.28-0.35,2.6,0.39,2.95,1.67
				c0.35,1.28-0.39,2.6-1.67,2.95C804.19,1207.39,796.62,1208.49,789.72,1208.49z"/>
		</g>
		<g>
			<path class="st7" d="M907.22,1292.71c-6.14,0-12.22-0.54-18.19-1.7c-91.36-17.63-96.17-84.34-96.21-85.01
				c-0.07-1.32,0.93-2.45,2.26-2.53c1.36-0.02,2.45,0.93,2.53,2.26c0.01,0.16,1.08,16.1,12.92,33.89
				c10.93,16.42,33.58,37.85,79.41,46.69c35.27,6.81,95.46-8.81,158.62-73.04c29.14-29.63,42.39-54.61,40.42-63.96
				c-0.27-1.3,0.56-2.57,1.85-2.84c1.29-0.27,2.57,0.56,2.84,1.85c2.69,12.77-14.07,40.22-41.69,68.32
				C1014.22,1255.03,958.36,1292.71,907.22,1292.71z"/>
		</g>
		<g>
			<path class="st7" d="M1053.18,680.79c-0.38,0-0.76-0.09-1.12-0.28c-0.3-0.16-30.21-15.88-42.63-20.54
				c-1.24-0.46-1.87-1.85-1.4-3.09c0.47-1.24,1.85-1.87,3.09-1.4c12.71,4.76,41.95,20.13,43.19,20.78c1.17,0.62,1.62,2.07,1,3.24
				C1054.87,680.33,1054.04,680.79,1053.18,680.79z"/>
		</g>
		<g>
			<path class="st7" d="M1142.18,703.04c-0.24,0-0.48-0.03-0.72-0.11c-24.43-7.63-49.18-0.08-49.43,0c-1.26,0.4-2.61-0.31-3-1.57
				c-0.39-1.26,0.31-2.61,1.57-3.01c1.07-0.33,26.44-8.07,52.29,0c1.26,0.39,1.97,1.74,1.57,3.01
				C1144.14,702.38,1143.2,703.04,1142.18,703.04z"/>
		</g>
		<g>
			<path class="st7" d="M716.67,1062.25c-0.29,0-0.56-0.03-0.81-0.07c-10.49-1.75-16.27-42.17-17.79-54.51
				c-0.16-1.32,0.77-2.51,2.09-2.67c1.31-0.18,2.51,0.77,2.67,2.08c3.28,26.6,9.61,49.67,13.82,50.37
				c3.6-0.88,6.85-24.28,6.95-50.08c0.01-1.32,1.09-2.42,2.41-2.39c1.32,0.01,2.39,1.08,2.39,2.41c-0.03,7.79-0.58,46.96-8.43,53.59
				C718.79,1061.97,717.61,1062.25,716.67,1062.25z"/>
		</g>
		<g>
			<path class="st7" d="M870.41,1068.57c-10.58,0-14.92-34.01-16.3-48.64c-0.12-1.32,0.84-2.49,2.16-2.61
				c1.32-0.17,2.49,0.85,2.61,2.16c2.22,23.59,7.61,44.29,11.52,44.29c3.45,0,8.77-19.95,10.74-46.64c0.1-1.32,1.25-2.32,2.57-2.22
				c1.32,0.1,2.31,1.25,2.21,2.57C884.81,1032.84,881.03,1068.57,870.41,1068.57z"/>
		</g>
		<g>
			<path class="st7" d="M773.02,1155.28c-0.99,0-1.91-0.61-2.26-1.6c-3.27-9.21-4.79-42.57,0.86-48.79c1.09-1.2,2.56-1.69,4.01-1.32
				c6.83,1.71,16.42,24.89,20.23,34.77c0.48,1.24-0.14,2.62-1.38,3.1c-1.24,0.48-2.62-0.14-3.1-1.38
				c-6.05-15.71-13.37-29.69-16.49-31.64c-3.13,4.48-2.97,34.21,0.37,43.66c0.44,1.25-0.21,2.62-1.46,3.06
				C773.56,1155.24,773.29,1155.28,773.02,1155.28z"/>
		</g>
		<g>
			<path class="st7" d="M908.13,1087.56c-0.01,0-0.02,0-0.02,0c-1.32-0.01-2.39-1.1-2.37-2.42c0.2-21.11,1.86-46.63,8.6-48.31
				c3.88-1.01,10.79,4.56,21.78,36.37c0.43,1.25-0.23,2.62-1.48,3.05c-1.25,0.43-2.62-0.23-3.05-1.48
				c-5.79-16.77-13.02-31.63-16.09-33.17c-2.76,3.11-4.79,24.7-4.97,43.59C910.51,1086.5,909.44,1087.56,908.13,1087.56z"/>
		</g>
		<g>
			<path class="st7" d="M1264.12,1168.53c-29.8,0-60.48-134.16-63.89-149.52c-0.29-1.29,0.53-2.57,1.82-2.86
				c1.3-0.27,2.57,0.53,2.86,1.82c0.08,0.37,8.38,37.51,20.07,74.02c20.15,62.92,33.3,72.08,39.32,71.73
				c5.6-0.2,16.27-9.27,24.89-67.71c14.65-99.32-15.2-171.14-42.83-213.91c-29.97-46.39-63.87-69.59-64.21-69.82
				c-1.1-0.74-1.39-2.23-0.65-3.33c0.74-1.1,2.23-1.39,3.33-0.65c0.35,0.23,34.93,23.86,65.43,71.01
				c28.14,43.48,58.55,116.5,43.67,217.39c-7.16,48.52-16.52,71.34-29.47,71.81C1264.35,1168.53,1264.23,1168.53,1264.12,1168.53z"
				/>
		</g>
	</g>
</g>
</svg>
