<?xml version="1.0" encoding="utf-8"?>
<!-- Generator: Adobe Illustrator 24.1.0, SVG Export Plug-In . SVG Version: 6.00 Build 0)  -->
<svg version="1.1" id="Layer_1" xmlns="http://www.w3.org/2000/svg" xmlns:xlink="http://www.w3.org/1999/xlink" x="0px" y="0px"
	 viewBox="0 0 1935.48 1948.05" style="enable-background:new 0 0 1935.48 1948.05;" xml:space="preserve">
<style type="text/css">
	.st0{fill:none;stroke:#231F20;stroke-width:4;stroke-linecap:round;stroke-linejoin:round;stroke-miterlimit:10;}
	.st1{fill:none;stroke:#BB92C3;stroke-width:5;stroke-linecap:round;stroke-linejoin:round;stroke-miterlimit:10;}
	.st2{fill:none;stroke:#231F20;stroke-width:5;stroke-linecap:round;stroke-linejoin:round;stroke-miterlimit:10;}
	.st3{fill:#231F20;stroke:#231F20;stroke-width:3.8935;stroke-linecap:round;stroke-linejoin:round;stroke-miterlimit:10;}
	.st4{fill:#0E0F10;}
	.st5{fill:#101112;}
	.st6{fill:#DBD8D4;}
	.st7{fill:#231F20;}
	.st8{fill:#0E0E0E;}
	.st9{fill:#231F20;stroke:#231F20;stroke-width:1.6737;stroke-linecap:round;stroke-linejoin:round;stroke-miterlimit:10;}
	.st10{fill:none;stroke:#231F20;stroke-width:1.6737;stroke-linecap:round;stroke-linejoin:round;stroke-miterlimit:10;}
	.st11{fill:#231F20;stroke:#231F20;stroke-width:0.5;stroke-linecap:round;stroke-linejoin:round;stroke-miterlimit:10;}
	.st12{fill:#DEDBD7;stroke:#231F20;stroke-width:1.6737;stroke-linecap:round;stroke-linejoin:round;stroke-miterlimit:10;}
	.st13{fill:#232323;}
	.st14{fill:none;stroke:#231F20;stroke-width:5.9863;stroke-linecap:round;stroke-linejoin:round;stroke-miterlimit:10;}
	.st15{fill:#FFFFFF;}
	.st16{clip-path:url(#SVGID_2_);}
	.st17{fill:#DEDBD7;stroke:#DEDBD7;stroke-width:1.4797;stroke-linecap:round;stroke-linejoin:round;stroke-miterlimit:10;}
	.st18{fill:none;stroke:#DEDBD7;stroke-width:1.4797;stroke-linecap:round;stroke-linejoin:round;stroke-miterlimit:10;}
	.st19{fill:#DEDBD7;}
	.st20{fill:none;stroke:#231F20;stroke-width:5.2786;stroke-linecap:round;stroke-linejoin:round;stroke-miterlimit:10;}
	.st21{fill:#DEDBD7;stroke:#DEDBD7;stroke-width:1.6737;stroke-linecap:round;stroke-linejoin:round;stroke-miterlimit:10;}
	.st22{fill:none;stroke:#DEDBD7;stroke-width:1.6737;stroke-linecap:round;stroke-linejoin:round;stroke-miterlimit:10;}
</style>
<g>
	<g>
		<g>
			
				<ellipse transform="matrix(0.2819 -0.9594 0.9594 0.2819 -364.2824 1294.9373)" class="st7" cx="682.97" cy="890.84" rx="52.3" ry="45.64"/>
			<path class="st7" d="M679.55,945.04c-4,0-8.02-0.56-12-1.73c-25.41-7.47-39.17-37.08-30.67-66.02
				c8.5-28.93,36.09-46.39,61.51-38.93c25.41,7.47,39.17,37.08,30.67,66.02l0,0C721.88,928.79,701.12,945.04,679.55,945.04z
				 M686.37,841.42c-19.49,0-38.33,14.89-44.89,37.22c-7.76,26.4,4.54,53.34,27.42,60.07c22.87,6.71,47.8-9.29,55.55-35.69l0,0
				c7.76-26.4-4.54-53.34-27.42-60.07C693.51,841.92,689.93,841.42,686.37,841.42z"/>
		</g>
		<g>
			<path class="st7" d="M865.34,1022.63c-1.52,0-3.06-0.05-4.62-0.16c-52.63-3.51-57.08-37.59-60.33-62.46
				c-2.11-16.2-3.88-26.23-13.11-28.17c-12.28-2.61-20.59,15.14-29.39,33.92c-10.76,22.97-22.96,49.04-46.59,47.18
				c-9.19-0.71-16.8-5.03-22.61-12.84c-18.31-24.6-14.91-79.76-8.15-110.84c8-36.8,38.54-111.69,81.99-108.36
				c42.7,3.28,49.79,42.92,49.86,43.32c0.22,1.3-0.66,2.54-1.97,2.76c-1.3,0.26-2.54-0.66-2.76-1.96
				c-0.25-1.48-6.6-36.33-45.5-39.33c-39.89-3-69.53,70.55-76.93,104.6c-6.32,29.07-9.92,83.81,7.31,106.96
				c4.95,6.65,11.39,10.33,19.13,10.92c20.35,1.47,31.28-21.82,41.88-44.43c9.63-20.54,18.72-39.91,34.72-36.58
				c13.03,2.75,14.82,16.41,16.88,32.24c3.2,24.53,7.19,55.05,55.89,58.3c20.2,1.35,37.04-6.84,50.04-24.32
				c23.7-31.89,26.81-83.71,23.84-91.64c-0.46-1.24,0.16-2.62,1.4-3.09c1.24-0.48,2.62,0.17,3.09,1.4
				c3.26,8.71,0.65,62.38-24.48,96.19C901.89,1013.77,885.23,1022.63,865.34,1022.63z"/>
		</g>
		<g>
			<path class="st7" d="M918.09,839.72c-1.26,0-2.32-0.99-2.39-2.26c-0.92-16.51-5.71-34.26-12.83-47.47
				c-6.41-11.91-18.12-26.47-37.43-28.15c-34.67-3.1-63.4,41.48-63.68,41.93c-0.71,1.11-2.19,1.45-3.31,0.74
				c-1.12-0.71-1.45-2.19-0.74-3.31c1.23-1.94,30.58-47.37,68.15-44.14c39.88,3.47,53.18,53.93,54.63,80.13
				c0.07,1.32-0.94,2.45-2.26,2.53C918.18,839.72,918.13,839.72,918.09,839.72z"/>
		</g>
		<g>
			<path class="st7" d="M1094.78,873.13c-0.65,0-1.3-0.01-1.96-0.04c-15.76-0.63-27.91-5.75-36.11-15.22
				c-11.43-13.2-15.44-34.55-12.26-65.29c3.8-36.73,19.02-55.64,45.25-56.19h0c25.26-0.48,41.97,18.27,46.92,52.92
				c3.36,23.53,1.46,54.77-13.96,71.85C1115.46,869.1,1106.09,873.13,1094.78,873.13z M1089.78,741.18
				c-23.41,0.49-37.06,17.95-40.58,51.88c-3.04,29.35,0.6,49.52,11.12,61.66c7.41,8.55,18.1,12.99,32.68,13.57
				c10.7,0.41,19.48-3.06,26.08-10.36c14.33-15.87,15.84-46.52,12.78-67.95C1127.29,758.04,1112.4,740.65,1089.78,741.18
				L1089.78,741.18z"/>
		</g>
		<g>
			<path class="st7" d="M1016.99,839.94c-1.73,0-3.51-0.08-5.33-0.23c-37.03-3.09-36.07-41.87-35.65-58.44
				c0.04-1.64,0.08-3.1,0.08-4.35c0-9.74,5.43-41.21,22.91-56.46c7.51-6.56,16.23-9.2,25.9-7.89c36.49,4.98,38.92,38.35,38.94,38.68
				c0.08,1.32-0.93,2.45-2.25,2.53c-1.31,0.15-2.46-0.92-2.54-2.24c-0.08-1.21-2.28-29.79-34.8-34.22
				c-8.24-1.11-15.68,1.15-22.1,6.75c-16.03,13.99-21.27,44.06-21.27,52.85c0,1.28-0.04,2.78-0.08,4.46
				c-0.44,17.77-1.27,50.83,31.26,53.54c14.12,1.17,24.85-2.4,32.8-10.93c0.9-0.97,2.42-1.02,3.39-0.12
				c0.97,0.9,1.02,2.42,0.12,3.39C1040.52,835.69,1029.98,839.94,1016.99,839.94z"/>
		</g>
		<g>
			<path class="st7" d="M1005.75,811.25c-3.06,0-5.66-1.65-7.29-4.71c-2.18-4.07-2.39-10.85,0.58-13.82
				c4.91-4.91,10.6-0.31,12.46,1.2l0.27,0.22l0,0c4.33,3.47,6.13,6.89,5.33,10.18c-0.8,3.29-4.19,5.69-9.53,6.76
				C1006.94,811.18,1006.34,811.25,1005.75,811.25z M1004.13,795.31c-0.64,0-1.18,0.27-1.7,0.79c-1.01,1.01-1.31,5.25,0.26,8.17
				c1.25,2.33,2.84,2.3,3.94,2.09c3.91-0.78,5.57-2.21,5.81-3.19c0.3-1.24-1.07-3.22-3.66-5.3l-0.28-0.23
				C1006.53,796.06,1005.19,795.31,1004.13,795.31z"/>
		</g>
		<g>
			<path class="st7" d="M1083.07,836.94c-1.18,0-2.36-0.21-3.44-0.66c-3.19-1.32-5.01-4.42-5.01-8.5c0-5.27,1.47-8.58,4.5-10.09l0,0
				c4.72-2.37,8.92,1.83,10.71,3.63c4.11,4.11,4.11,8.82,0,12.93C1088.1,835.99,1085.56,836.94,1083.07,836.94z M1082,821.81
				c-0.25,0-0.5,0.05-0.73,0.17l0,0c-1.23,0.62-1.85,2.57-1.85,5.8c0,2.13,0.69,3.5,2.05,4.07c1.69,0.7,3.94,0.05,4.98-0.99
				c2.24-2.24,2.24-3.91,0-6.14C1085.46,823.72,1083.55,821.81,1082,821.81z M1080.2,819.84h0.03H1080.2z"/>
		</g>
		<g>
			<path class="st7" d="M910.06,802.36c-0.23,0-0.45-0.03-0.68-0.1c-1.27-0.38-1.99-1.71-1.62-2.98c0.41-1.4,10.41-34.19,37.2-35.87
				c27.09-1.79,35.63,28.45,35.72,28.76c0.35,1.28-0.4,2.59-1.68,2.94c-1.27,0.35-2.59-0.4-2.95-1.68
				c-0.3-1.09-7.64-26.61-30.79-25.24c-23.43,1.47-32.81,32.13-32.9,32.45C912.04,801.68,911.09,802.36,910.06,802.36z"/>
		</g>
		<g>
			<path class="st7" d="M789.72,1208.49c-18.46,0-32.13-7.79-37.56-22.28c-10.43-27.81,50.28-59.47,158.66-104.77
				c78.53-32.82,125.15-67.12,138.54-101.95c2.22-5.78,1.88-10.96-1.03-15.4c-6.09-9.31-22.89-15.25-46.11-16.31
				c-32.08-1.45-37.48,6.63-37.53,6.72c-0.67,1.09-2.11,1.51-3.23,0.88c-1.12-0.62-1.58-1.97-1-3.12c0.56-1.12,6.5-10.86,41.99-9.27
				c25.14,1.14,42.86,7.7,49.91,18.47c3.74,5.72,4.26,12.55,1.49,19.75c-13.88,36.1-61.38,71.31-141.17,104.65
				c-100.16,41.86-165.02,74.65-156.02,98.66c6.52,17.37,27.33,23.51,54.33,16.01c1.28-0.35,2.6,0.39,2.95,1.67
				c0.35,1.28-0.39,2.6-1.67,2.95C804.19,1207.39,796.62,1208.49,789.72,1208.49z"/>
		</g>
		<g>
			<path class="st7" d="M907.22,1292.71c-6.14,0-12.22-0.54-18.19-1.7c-91.36-17.63-96.17-84.34-96.21-85.01
				c-0.07-1.32,0.93-2.45,2.26-2.53c1.36-0.02,2.45,0.93,2.53,2.26c0.01,0.16,1.08,16.1,12.92,33.89
				c10.93,16.42,33.58,37.85,79.41,46.69c35.27,6.81,95.46-8.81,158.62-73.04c29.14-29.63,42.39-54.61,40.42-63.96
				c-0.27-1.3,0.56-2.57,1.85-2.84c1.29-0.27,2.57,0.56,2.84,1.85c2.69,12.77-14.07,40.22-41.69,68.32
				C1014.22,1255.03,958.36,1292.71,907.22,1292.71z"/>
		</g>
		<g>
			<path class="st7" d="M1053.18,680.79c-0.38,0-0.76-0.09-1.12-0.28c-0.3-0.16-30.21-15.88-42.63-20.54
				c-1.24-0.46-1.87-1.85-1.4-3.09c0.47-1.24,1.85-1.87,3.09-1.4c12.71,4.76,41.95,20.13,43.19,20.78c1.17,0.62,1.62,2.07,1,3.24
				C1054.87,680.33,1054.04,680.79,1053.18,680.79z"/>
		</g>
		<g>
			<path class="st7" d="M1142.18,703.04c-0.24,0-0.48-0.03-0.72-0.11c-24.43-7.63-49.18-0.08-49.43,0c-1.26,0.4-2.61-0.31-3-1.57
				c-0.39-1.26,0.31-2.61,1.57-3.01c1.07-0.33,26.44-8.07,52.29,0c1.26,0.39,1.97,1.74,1.57,3.01
				C1144.14,702.38,1143.2,703.04,1142.18,703.04z"/>
		</g>
		<g>
			<path class="st7" d="M716.67,1062.25c-0.29,0-0.56-0.03-0.81-0.07c-10.49-1.75-16.27-42.17-17.79-54.51
				c-0.16-1.32,0.77-2.51,2.09-2.67c1.31-0.18,2.51,0.77,2.67,2.08c3.28,26.6,9.61,49.67,13.82,50.37
				c3.6-0.88,6.85-24.28,6.95-50.08c0.01-1.32,1.09-2.42,2.41-2.39c1.32,0.01,2.39,1.08,2.39,2.41c-0.03,7.79-0.58,46.96-8.43,53.59
				C718.79,1061.97,717.61,1062.25,716.67,1062.25z"/>
		</g>
		<g>
			<path class="st7" d="M870.41,1068.57c-10.58,0-14.92-34.01-16.3-48.64c-0.12-1.32,0.84-2.49,2.16-2.61
				c1.32-0.17,2.49,0.85,2.61,2.16c2.22,23.59,7.61,44.29,11.52,44.29c3.45,0,8.77-19.95,10.74-46.64c0.1-1.32,1.25-2.32,2.57-2.22
				c1.32,0.1,2.31,1.25,2.21,2.57C884.81,1032.84,881.03,1068.57,870.41,1068.57z"/>
		</g>
		<g>
			<path class="st7" d="M773.02,1155.28c-0.99,0-1.91-0.61-2.26-1.6c-3.27-9.21-4.79-42.57,0.86-48.79c1.09-1.2,2.56-1.69,4.01-1.32
				c6.83,1.71,16.42,24.89,20.23,34.77c0.48,1.24-0.14,2.62-1.38,3.1c-1.24,0.48-2.62-0.14-3.1-1.38
				c-6.05-15.71-13.37-29.69-16.49-31.64c-3.13,4.48-2.97,34.21,0.37,43.66c0.44,1.25-0.21,2.62-1.46,3.06
				C773.56,1155.24,773.29,1155.28,773.02,1155.28z"/>
		</g>
		<g>
			<path class="st7" d="M908.13,1087.56c-0.01,0-0.02,0-0.02,0c-1.32-0.01-2.39-1.1-2.37-2.42c0.2-21.11,1.86-46.63,8.6-48.31
				c3.88-1.01,10.79,4.56,21.78,36.37c0.43,1.25-0.23,2.62-1.48,3.05c-1.25,0.43-2.62-0.23-3.05-1.48
				c-5.79-16.77-13.02-31.63-16.09-33.17c-2.76,3.11-4.79,24.7-4.97,43.59C910.51,1086.5,909.44,1087.56,908.13,1087.56z"/>
		</g>
		<g>
			<path class="st7" d="M1264.12,1168.53c-29.8,0-60.48-134.16-63.89-149.52c-0.29-1.29,0.53-2.57,1.82-2.86
				c1.3-0.27,2.57,0.53,2.86,1.82c0.08,0.37,8.38,37.51,20.07,74.02c20.15,62.92,33.3,72.08,39.32,71.73
				c5.6-0.2,16.27-9.27,24.89-67.71c14.65-99.32-15.2-171.14-42.83-213.91c-29.97-46.39-63.87-69.59-64.21-69.82
				c-1.1-0.74-1.39-2.23-0.65-3.33c0.74-1.1,2.23-1.39,3.33-0.65c0.35,0.23,34.93,23.86,65.43,71.01
				c28.14,43.48,58.55,116.5,43.67,217.39c-7.16,48.52-16.52,71.34-29.47,71.81C1264.35,1168.53,1264.23,1168.53,1264.12,1168.53z"
				/>
		</g>
	</g>
	<g>
		<g>
			<path class="st7" d="M385.97,1219.95c-1.79,0.58-3.55,1.27-5.38,1.72c-3.55,0.86-7.12,1.59-10.69,2.35
				c-0.35,0.08-0.74,0.06-1.1-0.01c-3.94-0.68-8.07-0.16-11.83-2.04c-0.75-0.38-1.52-0.96-1.44-1.45c0.32-1.87-0.65-3.52-0.64-5.36
				c0.03-3.05-0.21-6.15-0.8-9.14c-0.71-3.59-3.84-5.94-7.58-6.3c-1.63-0.16-3.25-0.41-4.88-0.49c-3.38-0.17-6.61,0.57-9.93,1.18
				c-4.2,0.77-7.48,3.32-11.42,4.52c-1.92,0.58-3.81,1.64-5.83,1.66c-2.56,0.03-4.96-0.69-6.83-2.77c-0.55-0.62-1.75-0.19-2.7-0.44
				c-4.96-1.3-9.94-3.12-15.25-1.84c-0.62,0.15-1.35,0.02-1.99-0.13c-3.62-0.86-7.45,0.54-10.85-0.35
				c-6.11-1.61-12.42-1.57-18.53-3.07c-1.97-0.49-4.37,0.35-6.48,0.94c-5.5,1.54-10.94,3.28-16.6,4.24
				c-6.75,1.15-13.22,3.39-19.79,5.27c-2.15,0.62-4.31,1.39-6.57,1.78c-1.96,0.34-2.81-0.58-3.13-2.52
				c-0.53-3.29-0.12-6.69-1.31-9.89c-0.14-0.39-0.08-0.88-0.02-1.31c0.31-2.52-0.44-4.91-0.74-7.36c-0.19-1.6-0.83-3.19-0.61-4.86
				c0.35-2.71-0.35-5.32-0.8-7.96c-0.29-1.67,0.14-3.39-0.36-5.15c-0.94-3.32-0.6-6.86-1.38-10.26c-0.35-1.55-0.44-3.37-0.3-4.94
				c0.19-2.22-0.35-4.36-0.58-6.42c-0.31-2.72-0.3-5.61-1.42-8.26c-0.46-1.08-0.26-2.41-0.38-3.58c-0.34-3.25-1.15-6.5-0.85-9.81
				c0.13-1.47-0.43-2.85-0.64-4.23c-0.55-3.63-1.61-7.27-1.96-10.87c-0.35-3.61-1.6-7-1.88-10.62c-0.21-2.61-1.36-5.21-1.88-7.88
				c-0.07-0.37-0.38-0.77-0.3-1.2c0.92-5.14-0.01-10.34,0.51-15.53c0.45-4.51,3.32-6.74,6.53-8.54c2.13-1.19,4.05-2.7,6.21-3.85
				c2.35-1.25,4.71-2.16,7.31-2.72c2.44-0.52,5.04-0.33,7.34-1.51c0.24-0.12,0.59-0.26,0.82-0.18c2.58,0.89,5.29,0.06,7.65-0.34
				c2.79-0.47,5.69,1.12,8.29-0.62c0.1-0.07,0.3-0.03,0.44,0c5.63,1.35,11.37-0.2,17.05,0.77c4.82,0.82,9.03-0.88,13.1-3.57
				c3.03-2,6.56-3.11,10.15-4.12c6.05-1.7,11.82-0.24,17.71,0.27c-0.26,0.77-0.88,0.6-1.47,0.58c-2.35-0.09-4.7,0.23-7.42-0.38
				c1.44,1.06,3.22,1.2,3.51,2.71c0.24,1.27-1.54,0.27-2.04,1.36c1.05,0.2,2.01,0.39,2.98,0.57c-4.03,0.33-7.8,1.26-11.23,3.64
				c-3.27,2.27-6.34,4.79-9.5,7.2c-0.69,0.53-1.34,1.01-2.34,1.11c-9.37,1.01-18.8,0.87-28.2,1.34c-3.99,0.2-7.99-0.02-11.98,0.47
				c-9.26,1.13-17.8,4.36-25.91,8.84c-1.18,0.65-1.77,1.39-1.43,3.02c2.18,10.67,4.3,21.35,6.26,32.06
				c2.25,12.32,4.39,24.66,6.43,37.01c0.72,4.36,1.81,8.68,1.93,13.14c-0.75-0.06-1.03-0.65-1.07-1.23
				c-0.17-2.58-1.28-5.02-1.4-7.53c-0.09-1.96-1.71-3.3-1.49-5.17c0.19-1.66,0.28-3.24-0.96-4.59c-0.46-0.5-0.28-1.14-0.19-1.71
				c0.33-1.97,0.21-3.89-0.33-5.83c-0.61-2.21-1.05-2.56-3.36-1.97c-0.31,0.08-0.58,0.07-0.76-0.23c-0.2-1.54,2.07-2.43,1.05-4.24
				c-0.73-1.3-1.25-2.71-1.88-4.1c1.21-0.42,1.59,0.34,1.73,1.18c0.13,0.74,0.48,0.77,1.07,0.65c0.7-0.14,0.62-0.68,0.41-1
				c-2.15-3.32-0.18-7.66-2.74-10.86c1.37-1.98-0.21-3.89-0.25-5.83c-0.06-2.59-0.24-5.63-2.77-7.19c-1.84-1.14-0.65-2.28-0.35-3.16
				c0.4-1.19-1.94-2.48,0.23-3.42c0.06,0.04,0.12,0.08,0.19,0.11c-0.06-0.04-0.11-0.08-0.17-0.13c-0.06-1.62-1.99-2.45-1.8-4.18
				c0.42-3.67-0.75-7.21-0.96-10.83c-0.04-0.71,0.52-2.1-1.29-1.86c-0.4,0.05-0.6-0.97-0.34-1.35c1.38-2.02,1.96-4.06,0.65-6.35
				c-0.08-0.14,0.19-0.54,0.38-0.75c1.24-1.35,0.1-1.45-0.84-1.52c-1.39-0.11-3.12,1.6-3.3,3.26c-0.37,3.47-0.54,6.97-1.07,10.41
				c-0.71,4.65,0.38,9.06,1.6,13.43c0.29,1.04,0.07,2.19,0.74,3.13c1.63,2.3-0.1,5.58,2.21,7.7c0.06,0.05-0.07,0.28-0.07,0.42
				c0.09,4.42,0.86,8.78,1.49,13.13c0.45,3.12,1.07,6.17,1.12,9.39c0.03,1.83-0.17,4.03,0.86,5.75c0.79,1.33,0.91,2.59,0.68,4.01
				c-0.09,0.52,0.02,1,0.13,1.52c0.42,2.06,0.99,4.1,0.86,6.23c-0.23,3.73,0.71,7.4,1.06,11.06c0.4,4.22,0.8,8.55,1.77,12.78
				c0.86,3.77,0.5,7.8,0.9,11.69c0.67,6.45,1.69,12.87,1.56,19.38c-0.01,0.58,0.06,0.92,0.7,1.15c1.75,0.62,3.31,1.23,5.37,0.47
				c1.44-0.53,3.06-1.02,4.7-1.21c1.13-0.14,3.19-0.42,2.93-1.96c-0.19-1.12-0.25-2.76-1.54-3.6c3.96-0.45,8.1-0.11,11.75-1.98
				c3.9-2,7.82-3.92,11.79-5.77c13.01-6.07,26.38-8.24,40.49-4.4c5,1.36,10.1,2.47,15.37,2.22c2.86-0.14,5.72-0.34,8.57-0.52
				c-0.31,1.24-1.28,0.69-2.01,0.71c-2.49,0.09-2.12,3.78-4.73,3.75c-0.28,0-0.27,0.45-0.22,0.76c0.06,0.36,0.1,0.73,0.14,1.1
				c0.14,1.17,1.6,1.28,1.87,1.98c0.58,1.48,1.52,2.01,2.88,2.63c1.32,0.6,2.74,0.98,4.01,1.76c3.3,2.02,7.03,2.43,10.48,0.91
				c1.55-0.68,2.84-1.41,4.54-1.2c0.19,0.02,0.4-0.15,0.6-0.25c2.73-1.37,5.07-3.77,8.53-3.26c0.07,0.01,0.17,0.03,0.22-0.01
				c1.72-1.18,3.74-1.1,5.66-1.12c1.4-0.02,2.74,0.16,4.07-0.49c0.82-0.4,1.71-0.67,2.56,0.14c0.27,0.25,0.9,0.27,1.24-0.08
				c0.39-0.41,0.18-0.77-0.26-1.07c-1-0.68,0.07-0.78,0.31-1.19c0.76-1.32,2.75-2.33,1.15-4.34c-0.47-0.59,0.07-0.89,0.68-0.98
				c0.68-0.1,1.45,0.47,2.1-0.31c-0.54-0.3-1.03-0.57-1.53-0.85c4.18,0.27,7.83,1.95,11.31,4.15c1.68,1.06,3.08,2.56,5.02,3.21
				c-1.37,1.08-0.27,1.74,0.48,2.31c0.21,0.16,0.87,0.24,0.51,0.47c-2.18,1.37-0.75,2.51,0.04,3.8c0.19,0.32-0.08,1.01-0.29,1.47
				c-0.3,0.66-0.76,1.26-1.11,1.9c-0.47,0.85-0.52,1.82,0.09,2.52c0.67,0.76,1.55,0.25,2.16-0.25c1.17-0.94,2.66-0.51,3.71-1.16
				c0.85,0.65-0.68,1.59,0.5,1.98c0.77,0.26,1.58,0.33,2.35-0.19c1.95-1.3,4.01-2.44,5.87-3.84c3.21-2.44,5.78-5.3,7.55-9.13
				c1.34-2.9,3.22-5.36,2.35-8.83c-0.2-0.79-0.38-2.05,0.93-2.82c0.68-0.4,0.69-1.64-0.66-1.94c-1.62-0.36-2.61-0.19-2.76,1.9
				c-0.19,2.64-0.22,5.5-2.8,7.15c-1.16-0.62,0.99-2.1-0.51-2.06c-2.8,0.08-4.6-1.63-6.27-3.2c-1.49-1.4-3.68-2.71-3.37-5.37
				c2.17,1.58,3.82,3.74,6.06,5.28c1.05,0.72,2.27,0.79,3.31,1.5c0.8,0.55,1.64,0.17,1.71-1.13c0.12-2.07,0.26-4.15,0.67-6.17
				c0.22-1.08-0.64-1.55-0.75-2.41c-0.6-4.63-2.29-9.02-2.85-13.7c-0.18-1.54-0.01-3.32-0.88-4.96c-0.89-1.67,0.76-3.31,1.36-4.84
				c0.45-1.15,1.09-2.62,2.37-3.41c0.74,1.59-0.39,2.63-1.11,3.8c-1.85,3.03-0.29,6.35-0.31,9.42c-0.02,3.83,1.09,7.95,2.88,11.62
				c0.22,0.45,0.17,1.2,0.78,1.19c0.86-0.01,0.65-0.85,0.71-1.38c0.33-2.79-0.31-5.87,2.37-7.96c0.84,4.82,1.09,9.69,1.38,14.56
				c0.19,3.14-0.08,6.46-1.16,9.27c-4.06,10.61-10.91,18.34-22.89,20.23c-2.64,0.42-5.73,0.49-6.9,3.79
				c0.11-1.25,0.02-2.56,0.38-3.73c0.63-2.04-0.18-4.63-2.02-5.71c-0.63-0.37-1.27-0.62-1.78,0.05c-0.5,0.68-0.46,1.26,0.39,1.82
				c1.08,0.71,1.39,1.6-0.23,2.12c-0.37,0.12-0.71,0.21-0.82,0.63c-0.82,3.06,0.17,6.1,0.09,9.16c0,0.13,0.29,0.39,0.46,0.4
				c1.1,0.03,1.83,1.01,2.79,1.19c5.8,1.05,11.66,1.42,17.36-0.34c2.87-0.89,5.66-1.75,8.68-1.61L385.97,1219.95z M283.51,1197.27
				c-0.54,0-0.95,0.2-0.91,0.74c0.06,0.75,0.7,0.86,1.3,0.91c0.45,0.04,1.01,0.04,1.01-0.54
				C284.92,1197.5,283.98,1197.63,283.51,1197.27z M370.93,1210.51c-1.07-1.02-1.68-1.41-2.45-0.97c-0.12,0.07-0.12,0.62,0.02,0.78
				C369.13,1211.02,369.71,1209.98,370.93,1210.51z M365.02,1203.86c-0.11-0.06-0.25-0.2-0.34-0.17c-0.09,0.03-0.2,0.23-0.18,0.32
				c0.02,0.09,0.23,0.2,0.32,0.18C364.91,1204.16,364.96,1203.98,365.02,1203.86z"/>
		</g>
		<g>
			<path class="st7" d="M373.81,1181.11c-0.31,2.66,1.88,3.97,3.37,5.37c1.67,1.57,3.47,3.28,6.27,3.2
				c1.51-0.04-0.64,1.44,0.51,2.06c2.58-1.64,2.61-4.5,2.8-7.15c0.15-2.09,1.14-2.26,2.76-1.9c1.35,0.3,1.33,1.54,0.66,1.94
				c-1.31,0.78-1.13,2.04-0.93,2.82c0.87,3.47-1.01,5.93-2.35,8.83c-1.77,3.83-4.34,6.69-7.55,9.13c-1.86,1.41-3.92,2.55-5.87,3.84
				c-0.77,0.51-1.58,0.44-2.35,0.19c-1.18-0.4,0.36-1.34-0.5-1.98c-1.05,0.65-2.54,0.22-3.71,1.16c-0.61,0.49-1.49,1.01-2.16,0.25
				c-0.61-0.7-0.56-1.67-0.09-2.52c0.35-0.64,0.81-1.24,1.11-1.9c0.21-0.46,0.48-1.15,0.29-1.47c-0.78-1.29-2.22-2.43-0.04-3.8
				c0.36-0.23-0.3-0.31-0.51-0.47c-0.75-0.57-1.86-1.24-0.48-2.31c0.73-0.07,1.47-0.16,2.2-0.2c3.05-0.16,3.28-0.49,1.99-3.26
				c-1.28-2.72-2.65-5.39-3.98-8.08c0.43-1.59-0.16-3.02-0.47-4.55c-0.29-1.45,0.35-3.1-1.99-3.31c-0.39-0.04-0.26-0.99,0.07-1.38
				c2.12-2.49-0.49-4.56-0.57-6.85c-2.76-0.59-1.1-2.55-1.19-3.94c-0.04-0.58,0.82-1.33-0.08-1.74c-0.97-0.45-0.51,1.09-1.33,1.13
				c-0.84-1.04-1.21-2.2-0.91-3.6c0.24-1.14,0.86-2.55,0.44-3.42c-1.58-3.28-0.2-6.67-0.66-10.01c-0.63-4.53,0.07-9.21-0.45-13.89
				c-0.44-3.95-0.49-8.01-0.87-11.99c-0.24-2.5-0.29-5.33-2.81-7.03l0.01-0.05c-0.26-1.25,1.49-3.07-1.05-3.66l-0.08-0.12l0.06-0.13
				c0.1-0.29,0.03-0.52-0.23-0.68l-0.01-0.04c-0.03-0.8,0.71-1.83-0.64-2.26l-0.01-0.06c0.96-7.28,0.98-14.7,3.01-21.83
				c0.05-0.29,0.07-0.59,0.17-0.86c3.61-9.78,6.68-19.69,7.9-30.09c0.09-0.77,0.58-1.76-0.32-2.24c-0.92-0.49-2.04-0.42-3,0.05
				c-0.78,0.38-0.95,1.29-1.34,1.99c-2.49,4.46-6.21,7.38-11.11,8.81c-0.57-0.2-1.16-0.53-1.53,0.3l0.03-0.03
				c-0.27-0.11-0.47-0.02-0.62,0.21c-0.29,0-0.58,0.01-0.87,0.01c-0.13-0.4-0.28-0.39-0.46-0.03c-0.09,0.08-0.19,0.08-0.29,0.01
				c-1.06-0.19-2.12-0.39-3.49-0.63c1.58-0.61,0.35-3.41,2.92-2.97c0.16,0.03,0.17-0.5-0.01-0.75c-1.24-1.73-0.26-3,0.86-4.24
				c2.77-2.38,6.09-3.99,8.82-6.47c2.1-1.91,3.92-4.01,5.76-6.15c1.3-1.52,2.8-3.21,5.39-2.48c2.13,0.6,4.44,0.1,6.54,1.44
				c1.43,0.92,1.81,2.15,1.97,3.46c0.96,7.64-0.45,15.18-1.22,22.73c-0.34,3.36-1.4,6.61-2.47,9.87c-0.98,2.96-0.85,6.29-1.09,9.46
				c-0.09,1.21-0.31,2.26-1.26,3.08c-1.08,0.13-0.91,1.01-0.98,1.71c-0.29,2.73-0.36,5.5-0.87,8.18c-1.03,5.36,0.57,10.35,1.8,15.41
				c0.73,3,2,6.07,1.86,9.05c-0.19,4.01,1.59,7.92,0.36,11.91c-0.1,0.32-0.09,0.92,0.1,1.05c1.48,0.99,0.84,2.38,0.73,3.63
				c-0.26,2.95-0.55,5.91-0.92,8.85c-0.6,4.77-0.91,9.56-1.64,14.32c-0.46,3.03-0.58,6.26-0.02,9.5c0.55,3.26,3.19,7.02,6.6,7.56
				L373.81,1181.11z M366.68,1086.53c-0.56,0.25-0.48,0.68-0.37,1.15C366.64,1087.35,366.87,1087.02,366.68,1086.53z"/>
		</g>
		<g>
			<path class="st7" d="M296.03,1071.17c-0.99,6.06,0.43,11.63,3.42,16.88c1.23,2.16,2.4,4.36,3.12,6.72
				c0.45,1.46-1.04,2.2-1.99,2.76c-2.25,1.31-4.69,2.51-7.27,2.73c-2.24,0.19-4.73,0.06-6.78-0.75c-1.85-0.73-3.72-1.35-5.6-1.96
				c-1.35-0.44-2.74-0.98-3.96-1.55c-1.41-0.66-2.75-0.92-4.18-1.05c-1.41-0.12-2.67-0.62-3.98-1.07
				c-4.66-1.61-9.18-1.03-13.75,0.78c-1.57,0.62-3.42,0.88-5.08,1.47c-1.42,0.51-2.97,0.97-3.89,2.2c-0.85,1.13-2.12,0.56-3.17,1.19
				c-2.38,1.42-3.53,3.99-5.83,5.45c-0.88,0.56-1.24,2.04-1.07,3.24c0.13,0.98,1.11,1.25,1.88,0.98c0.95-0.34,2.36-0.29,2.77-0.67
				c1.5-1.4,3.3-0.38,4.92-0.92c1.81-0.59,4.14-0.73,6.37-0.44c2.38,0.31,2.54,1.69,2.68,3.33c0.07,0.87-0.21,1.77-0.24,2.66
				c-0.12,3.63,0.41,7.16,1.17,10.74c0.42,1.98,1.72,3.75,1.45,5.91c-0.12,0.97,1.06,1.33,1.39,2.14c1.01,2.52,1.79,5.12,3.09,7.52
				c0.5,0.93,0.42,1.81-0.31,2.59c-2.31,2.46-5.44,3.8-8.17,5.64c-1.29,0.87-2.41,2.01-2.91,3.03c-0.66,1.35,1.25,1.88,2.39,2.23
				c0.81,0.25,1.54,0.28,2.33,0.89c1.43,1.09,3-0.37,4.52-0.55c0.86-0.1,1.78-0.31,2.7-0.28c0.58,0.02,1.11,0.24,1.72-0.07
				c3.12-1.62,6.71-1.91,9.91-3.45c1.14-0.55,2.81-1.21,4.26-0.69c1.19,0.42,1.88-0.55,2.88-0.68c2.97-0.4,6.07-0.23,8.88-0.79
				c3.95-0.79,7.49,0.39,11.22,0.57c-1.64,0.37-3.3,0.39-4.99,0.36c-2.11-0.04-4.43-0.23-4.8,2.91c1.83,0.56,3.83,0.47,5.77,0.76
				c0.76,0.12,1.76-0.04,1.57,1.27c-6.25-1.46-12.35-0.27-18.38,1.22c-7.54,1.86-14.85,4.54-22.44,6.28
				c-4.24,0.98-8.09,0.65-11.84-1.54c-2.38-1.39-4.4-3.1-6.27-5.19c-3.1-3.46-4.08-7.66-5.05-11.92c-0.6-2.63-0.19-3.1,2.49-2.3
				c6.47,1.95,12.28-0.59,18.22-2.37c1.02-0.31,1.31-0.86,0.43-1.75c-5.36-5.39-6.49-11.94-5.11-19.12c0.31-1.59-0.19-2.1-1.76-2.23
				c-5.18-0.43-10.04,0.66-14.68,2.86c-0.77,0.36-1.36,0.74-2.21,0.07c-4.13-3.27-5.61-13.67-2.4-17.74
				c1.09-1.38,2.28-2.73,3.62-3.86c6.86-5.77,15.15-8.23,23.69-10.06c0.35-0.07,0.74,0,1.1,0.09c3.39,0.82,6.79,1.6,10.16,2.49
				c6.95,1.85,13.78,4.23,20.96,5.1c2.86,0.35,5.77,0.35,8.66,0.45c0.55,0.02,1.3,0,1.45-0.74c0.13-0.6-0.47-0.88-0.87-1.18
				c-3.89-2.89-6.57-6.77-9.04-10.83c-1.09-1.79-1.95-3.8-1.91-5.84c0.11-5.24,0.84-10.42,3.23-15.2c0.75-1.5,0.02-1.78-1.18-1.93
				c1.05-0.56,2.31-0.73,2.07,0.84c-0.24,1.53-0.66,3.11-1.2,4.63c-0.91,2.58-2.22,5.17-2.06,7.93c0.1,1.59,0.59,3.19,0.27,4.99
				c0.87-0.52,1.6,0.33,2.28-0.26c1.03-0.89,1.95-2,3.52-1.9c-0.11-0.88,1.49-0.99,0.95-2.03c-0.19-0.37-1.16-0.38-0.56-1.1
				C295.05,1070.53,295.55,1071.13,296.03,1071.17z"/>
		</g>
		<g>
			<path class="st7" d="M390.13,1167.97c-2.68,2.09-2.04,5.17-2.37,7.96c-0.06,0.53,0.15,1.37-0.71,1.38
				c-0.61,0-0.56-0.74-0.78-1.19c-1.79-3.68-2.9-7.79-2.88-11.62c0.02-3.07-1.54-6.4,0.31-9.42c0.72-1.18,1.85-2.21,1.11-3.8
				c0.03-0.12,0.08-0.24,0.16-0.34c0.46,0.01,0.81-0.13,0.92-0.63c0.02-0.09,0.07-0.14,0.17-0.12c0.72,0.09,1.41,0.06,2.06-0.31
				c0.59,0.08,1.17,0.16,1.76,0.24c0.12,0.14,0.24,0.28,0.36,0.42c0.29,0.16,0.58,0.31,0.87,0.47c0.06,0.44,0.35,0.6,0.75,0.63
				c0.35,0.15,0.71,0.31,1.06,0.46c0.06,0.1,0.16,0.15,0.28,0.15c3.87,2.46,7.39,5.42,9.97,9.14c1.69,2.43,2.64,5.43,3.12,8.53
				c0.46,2.98,0.08,6.17,1.65,8.89c0.91,1.58,0.84,3.9,3.13,4.53c0.9,0.25,0.28,1.18,0.94,1.77c2.98,2.65,6.17,1.47,9.22,0.64
				c1.77-0.48,2.63-2.71,3.07-4.1c1.11-3.55,2.49-7.02,0.62-11.19c-1.67-3.73-3.11-7.41-5.4-10.92c-3.05-4.68-5.25-9.93-7.32-15.17
				c-0.32-0.82,0.46-1.79-0.37-2.53c0.04-0.81,0.09-1.62,0.13-2.44c-0.22-0.34-0.44-0.68-0.66-1.02c0.7-5.19,1.51-10.36,1.57-15.61
				c0.2-0.13,0.4-0.25,0.6-0.38c0.58-0.56,0.38-1.32,0.5-2c0.2-0.18,0.4-0.37,0.6-0.55c2.84-2.18,3.65-5.92,6.44-8.22
				c1.3-1.07,2.7-2.2,3.67-3.78c0.45-0.73,2.07-1.55,3.07-0.4c0.91,1.04,1.18,2.38-0.15,3.52c-0.51,0.43-0.94,0.83-0.24,1.63
				c0.79,0.91,1.52,2.08,0.09,3.14c-0.57,0.43-0.63,0.96-0.5,1.58c-0.03,0.09-0.09,0.15-0.19,0.16c-1.65,1.19-4.24,1.62-3.74,4.57
				c-0.85,1.4-1.31,2.92-1.62,4.52c-0.74,3.8,0.01,7.5,0.7,11.18c1.34,7.08,1.9,14.38,5.82,20.74c0.11,0.18,0.09,0.43,0.13,0.65
				c0.1,0.21,0.2,0.42,0.3,0.63l0.01,0.02c0.1,0.17,0.19,0.34,0.29,0.5l0.04,0.11c-0.02,0.11,0.01,0.2,0.09,0.28
				c0.17,0.3,0.35,0.59,0.52,0.89c-0.88,0.42-0.95,1.06-0.45,1.81c1.62,2.42,1.69,5.15,1.47,7.89c-0.12,1.51-0.27,2.85,1.04,4.04
				c0.58,0.53,1.17,1.31,1.04,2.34c-0.23,1.82,0.31,3.67,0.63,5.38c0.26,1.45-1.03,2.36-0.52,3.39c0.66,1.33-0.21,1.69-0.87,2.48
				c-1.02,1.22-1.77-0.86-2.74,0.01c-0.91,0.81,0.7,1.73-0.5,2.7c-2.84,2.31-5.64,4.5-9.45,4.85c-1.66,0.15,0.21,0.77-0.14,1.1
				c-0.55,0.07-1.1,0.15-1.65,0.22c-0.25,0.05-0.5,0.11-0.75,0.16c-9.01,0.42-16.9-6.17-17.14-14.53c-0.12-4-0.02-8.01,0.58-11.99
				c0.78-5.22-2.64-10.34-7.76-11.87c-0.51-0.15-1-0.41-1.41,0.12c-1.02,1.32-2.23,2.54-1.49,4.51
				C389.67,1165.36,389.83,1166.69,390.13,1167.97z"/>
		</g>
		<g>
			<path class="st7" d="M298.45,1153.17c0.2-1.31-0.81-1.15-1.57-1.27c-1.94-0.3-3.94-0.21-5.77-0.76c0.37-3.13,2.69-2.94,4.8-2.91
				c1.68,0.03,3.34,0.02,4.99-0.36c0.34,0.03,0.68,0.06,1.01,0.09c2.08-0.19,3.73,1.24,5.68,1.54c0.62,0.09,0.89,0.63,0.92,1.13
				c0.12,1.93,0.19,3.93-0.67,5.67c-1.17,2.38-1.43,4.95-1.67,7.46c-0.28,2.87,0.79,5.98-2.26,8.36c2.38-1.92,3.8,0.59,5.63,0.9
				c2.75,0.48,4.95,2.52,8.18,2.23c2.66-0.24,4.44-0.86,4.51-3.72c0.08-2.92,0.46-5.75,1.3-8.56c0.27-0.89,1.18-1.34,1.18-2.32
				c-0.02-2.81,2.09-5.12,1.86-8.07c0.61,1.54,1.23,2.7,2.94,3.34c1.32,0.49,0.6,2.56,1.46,3.73c0.21,0.28-0.62,0.4-1.02,0.54
				c-0.66,0.23-1.82,0.78-1.32,1.32c1.24,1.35,0.34,1.05-0.59,1.17c-1.06,0.13-1.79,0.93-1.79,1.93c0,1.16,0.95,1.06,1.83,0.89
				c0.21-0.04,0.58,0.18,0.72,0.39c0.44,0.62-1.94,5.96-2.6,5.78c-1.55-0.43-1.41,0.44-1.01,1.24c1.25,2.53-1.69,3.84-1.65,5.99
				c0,0.04-0.11,0.12-0.17,0.11c-2.53-0.28-1.1,1.94-0.98,2.21c0.88,1.94,0.72,3.61-0.67,5.18c-0.32,0.36-0.3,0.65,0.04,0.93
				c1.6,1.31,3.09,2.98,5.49,1.65c1.71-1.14,3.22-1.49,4.26,0.86c0.51,1.15,1.38,0.72,2.25,0.35c4.85-2.06,9.86-2.27,14.96-1.16
				c0.5,0.28,0.99,0.55,1.53,0.85c-0.65,0.78-1.42,0.21-2.1,0.31c-0.61,0.09-1.15,0.39-0.68,0.98c1.61,2.01-0.39,3.02-1.15,4.34
				c-0.23,0.41-1.3,0.5-0.31,1.19c0.44,0.3,0.66,0.66,0.26,1.07c-0.34,0.36-0.98,0.34-1.24,0.08c-0.86-0.81-1.75-0.54-2.56-0.14
				c-1.33,0.65-2.67,0.47-4.07,0.49c-1.92,0.02-3.93-0.05-5.66,1.12c-0.05,0.04-0.15,0.02-0.22,0.01c-3.46-0.52-5.79,1.89-8.53,3.26
				c-0.19,0.1-0.41,0.27-0.6,0.25c-1.7-0.21-2.99,0.52-4.54,1.2c-3.45,1.52-7.18,1.11-10.48-0.91c-1.27-0.78-2.69-1.16-4.01-1.76
				c-1.36-0.62-2.31-1.15-2.88-2.63c-0.27-0.7-1.73-0.81-1.87-1.98c-0.05-0.37-0.08-0.74-0.14-1.1c-0.05-0.31-0.06-0.76,0.22-0.76
				c2.62,0.04,2.24-3.66,4.73-3.75c0.73-0.03,1.7,0.53,2.01-0.71c0,0,0.02,0,0.02,0c1.2-0.2,2.66,1.22,3.61-0.57
				c1.72-0.47,3.46-0.9,5.16-1.44c0.57-0.18,1.48-0.11,1.47-1.05c-0.01-0.95-0.88-1.08-1.55-1.32c-4.61-1.66-8.77-4.19-12.99-6.62
				c-0.32-1.96-1.36-3.95,0.99-5.56c0.66-0.46-0.1-1.3-0.96-1.35c-0.66-0.04-1.33,0.03-1.98,0.11c-0.91,0.12-1.23-0.34-1.19-1.14
				c0.17-3.28,0.04-3.59-2.33-5.56c-0.14-0.12-0.13-0.41-0.24-0.59c-1.25-2.06,0.59-3.15,1.56-4.31c0.57-0.68,0.61-0.9,0-1.27
				c-1.62-0.99-0.95-1.94,0.1-2.73c1.03-0.77,1.27-1.74,1.13-2.91C298.97,1153.79,298.71,1153.48,298.45,1153.17z M345.8,1191.24
				c0.09-0.1,0.24-0.24,0.33-0.4c0.02-0.03-0.19-0.27-0.26-0.26c-0.19,0.05-0.45,0.13-0.52,0.28
				C345.23,1191.13,345.48,1191.2,345.8,1191.24z"/>
		</g>
		<g>
			<path class="st7" d="M532.23,1184.75c-3.25,2.54-6.77,4.74-9.68,7.71c-2.41,2.45-5.02,4.73-7.22,7.35
				c-1.2,1.43-1.99,3.35-2.49,5.17c-0.36,1.31,1.06,0.89,1.7,0.77c2.47-0.48,4.94-1.01,7.37-1.68c7.31-2,14.52-1.59,21.69,0.69
				c1.68,2.18,4.4,2.95,6.42,4.71c1.04,0.91,2.05,1.58,2.16,3.04c-0.03,0.05-0.07,0.1-0.1,0.14c0.03-0.05,0.07-0.1,0.1-0.15
				c1.34,2.45,2.87,4.76,4.77,6.81c1.11,1.2,2.1,2.53,2.43,4.11c0.38,1.82,1.66,2.97,2.81,4.14c0.73,0.74,1.36,1.53,1.93,2.36
				c0.7,1.02-0.33,3.17-1.57,3.2c-0.7,0.01-1.87-0.15-1.03-1.4c0.64-0.95,0.02-1.78-0.07-2.67c-1.47,0.2-1.67-1.16-2.34-1.92
				c-1.87-2.12-3.66-2.72-5.95-1.95c-3.7-4.74-8.62-8.01-13.76-10.88c-1.07-0.6-2.46-2.25-4.21-1.05c-1.16-2.18-3.85-0.96-5.33-2.39
				c-0.56-0.54-1.23-0.46-1.87-0.53c-2.14-0.24-4.29-0.43-6.43-0.65c-4.1-0.42-8.04,0.32-11.87,1.75c-1.39,0.52-2.89,0.67-3.69-0.72
				c-0.75-1.29-2.27-2.57-0.55-4.48c1.17-1.29,0.55-3.4,1.6-5.05c1.77-2.76,2.83-5.97,4.97-8.52c0.96-1.15,1.68-2.4,2.33-3.71
				c0.34-1.32,1.31-2.19,2.11-3.24c2.08-2.71,0.61-5.28-0.79-7.78c-0.36-0.64-1.44-1.29-0.7-2.07c0.6-0.63,1.33,0.3,2,0.51
				c1.43,0.45,3.97-1.11,3.42-2.35c-0.97-2.18,0.4-4.68-1.39-6.74c-0.86-0.99-0.21-2.6,0.14-3.86c0.35-1.23,1.42-0.16,2.1-0.43
				c0.54-0.21,1.48,0.02,1.26-1.1c-0.1-0.48,0.22-0.63,0.64-0.67c1.23-0.13,4.85,2.72,4.55,3.87c-0.6,2.33,0.58,4.09,1.37,6.02
				c0.93,2.28,3.99,3.05,5.98,1.68c1.92-1.32,2.5-3.53,3.82-5.23c1.51-1.94,1.59-4.51,2.8-6.6c1.14-1.97,1.66-4.15,1.85-6.42
				c2.63,1.54,2.76,1.92,1.45,4.56c-0.16,0.33-0.45,0.6-0.28,1c1.9,4.47-2.19,8.16-1.65,12.46c0.02,0.19-0.41,0.41-0.56,0.66
				c-0.48,0.81-1.13,1.59-1.36,2.48c-0.89,3.45-3.98,4.23-6.63,5.37C532.99,1181.76,531.59,1183.36,532.23,1184.75z"/>
		</g>
		<g>
			<path class="st7" d="M532.8,1151.5c-0.15,0.25-0.3,0.49-0.45,0.74c-1.73,1.76-2.04,1.67-2.99-0.52
				c-0.68-1.56-2.09-2.18-3.71-2.44c-1.17-0.18-1.41,0.86-1.57,1.45c-0.5,1.86-1.87,2.77-3.39,3.53c-0.61,0.31-0.91,1.48-1.78,0.94
				c-0.74-0.46-0.07-1.38-0.24-2.07c0,0,0,0,0,0c0.62-0.33,0.58-0.89,0.52-1.46c-0.05-0.1-0.03-0.19,0.06-0.25
				c0.72-0.39,0.63-1.09,0.66-1.74l0-0.01c0.9-1.36,1.86-2.68,2.22-4.31c3.25-4.94,7.27-9.15,12.2-12.44
				c1.85-1.23,3.77-2.35,5.64-3.53c0.43-0.27,1-0.54,0.9-1.14c-0.04-0.24-0.51-0.51-0.84-0.6c-3.35-0.93-6.67-1.86-10.19-2.14
				c-3.87-0.3-7.94,0.5-11.57-1.52c-2.13-1.19-4.31-2.35-6.26-3.8c-11.64-8.65-24.6-13.82-39.09-15.08
				c-0.78-0.07-1.65,0.1-2.32-0.54c0.57-0.69,1.41-1.14,2.16-0.79c1.98,0.9,2.5-0.14,2.76-1.71c-1.62-0.1-2.96-0.16-4.64,0.67
				c-1.94,0.97-4.62-0.12-6.97-0.42c-0.44-0.06-0.35-0.49-0.35-0.89c0-1.22-0.91-1.25-1.33-0.52c-1.07,1.92-2.78,1.35-3.83,0.68
				c-1.29-0.82-2.29-0.07-2.69,0.4c-1.29,1.54-1.79,0.39-2.17-0.51c-0.25-0.61-0.46-0.98-1.08-1.22c-0.85-0.33-0.53-1.11-0.48-1.74
				c0.03-0.4,0.23-0.75,0.66-0.77c0.69-0.02,1.1,0.49,1.33,1.03c0.93,2.21,2.32,1,2.61-0.03c0.54-1.92,1.81-1.86,3.2-1.94
				c0.81-0.05,1.65,0.09,2.43-0.07c4.85-1.01,9.52,0.1,14.18,1.22c0.86,0.21,1.43,0.1,1.73-0.78c4.2-0.12,8.07,1.17,12.03,2.4
				c2.58,0.8,5.11,1.79,7.54,2.81c5.17,2.19,10.29,4.55,15.11,7.57c3.07,1.93,5.63,4.6,8.94,6.08c1.98,0.88,4.09,1.74,6.21,2.01
				c4.92,0.62,9.68,2.26,14.69,2.28c1.99,0.01,3.02,1.45,3.89,3.01c-0.62,1.94,0.9,3.42,1.11,5.19c0.1,0.79-1.44,5.21-2.08,5.14
				c-1.36-0.15-1.5,2.86-3.29,1.18c-0.11,0.18-0.3,0.36-0.31,0.55c-0.14,2.75-0.97,5.19-2.93,7.2c-0.21,0.21-0.13,0.71-0.19,1.07
				c-0.16,0.1-0.32,0.19-0.48,0.28c-1.6,1.13-2.87,2.53-3.55,4.41c-0.09,0.07-0.19,0.1-0.3,0.09c-0.51,0.39-0.73,0.91-0.75,1.54
				c-0.1,0.08-0.21,0.11-0.34,0.09C532.74,1150.33,532.85,1150.95,532.8,1151.5z"/>
		</g>
		<g>
			<path class="st7" d="M675.84,1118.9c-1.72-2.47-3.93-3.04-6.94-2.57c-4.61,0.72-9.32,1.01-13.97,0.69
				c-3.46-0.24-6.74-1.38-9.46-3.78c-1-0.88-2.18-1.54-3.28-2.29c-3.49-2.37-5.67-5.56-6.3-9.79c-0.22-1.46-0.63-2.9-0.96-4.35
				c0.5,0.07,0.71,0.46,0.98,0.82c1.08,1.42,0.73,3.22,1.23,4.8c0.26,0.81,0.44,1.65,1.13,2.01c0.8,0.41,0.99-0.66,1.48-1.02
				c0.77-0.57,1.56-1.11,2.33-1.68c0.39-0.29,1.27,0.1,1.23-0.62c-0.03-0.64-0.56-1.16-1.26-1.38c-1.18-0.36-2.17-1.13-2.74-2.13
				c-0.71-1.24-1.8-1.99-2.91-2.6c-1.14-0.63-2.68-1.32-3.44,0.71c-1.99,3.65-5.29,6.27-7.49,9.8c-4.23,6.81-5.38,14.36-5.89,22.11
				c-0.22,3.4-0.24,6.8-0.14,10.22c0.12,4.18-3.05,7.13-7.25,6.8c-4.18-0.33-7.94-2.02-11.15-4.62c-5.15-4.18-10.83-7.15-17.32-8.5
				c-1.37-0.28-1.65-0.95-1.45-2.19c0.63-3.76,3.06-6.14,6.17-7.9c7.68-4.37,15.11-9.07,21.37-15.38c3.74-3.77,6.8-8,8.72-12.99
				c0.42-1.08,0.88-2.15,1.8-2.93c0.06,0.52,0.11,1.03,0.18,1.7c1.43-2.14,2.69-4.12,5.12-5.23c-1.82-1.1-1.4-2.16,0-3.18
				c1.4-1.01,1.63-2.67,2.44-4.1c-1.03-0.03-1.89-0.06-2.75-0.08c0.11-0.09,0.21-0.24,0.33-0.27c4.1-0.89,4.06-0.89,3.63,3.41
				c-0.5,4.95-2.64,9.22-5.41,13.2c-2.37,3.42-4.53,7.1-7.47,9.98c-2.77,2.72-5.26,5.71-8,8.45c-3.53,3.53-7.48,6.47-11.25,9.66
				c-1.09,0.92-1.69,2.28-2.73,3.32c-1.12,1.12-0.29,2.5,1.38,3.04c3.36,1.09,6.72,2.21,10.06,3.36c2.54,0.87,5.41,0.86,8.15,1.01
				c0.8,0.04,1.47-0.89,1.64-1.82c0.12-0.65,0.2-1.33,0.2-1.99c0.04-6.55,2.39-12.74,3.01-19.24c0.37-3.81,3.13-7.27,5.38-10.58
				c1.4-2.05,2.72-4.41,4.68-5.76c1.77-1.23,3.49-3.55,6.34-2.56c0.56,0.19,1.04,0.3,1.51,0.76c3.77,3.69,7.43,7.51,12.14,10.06
				c3.07,1.66,6.22,3.1,9.53,4.29c2.93,1.06,5.99,1.52,8.9,2.55c2.28,0.81,4.72,0.11,7.03,0.63c0.64,0.14,1.61-0.25,1.71,0.92
				c-5.2-0.24-10.3-0.93-15.33-2.37c-2.5-0.72-4.85-1.79-7.32-2.51c-1.19-0.35-2.62-0.74-3.25,0.84c-0.62,1.56-0.1,3.24,0.02,4.84
				c0.08,1.08,1.27,0.08,1.88,0.45c0.37,0.22,0.51,0.51,0.52,0.89c0.04,1.19,0.87,1.32,1.81,1.53c4.53,0.98,9.12-0.51,13.65,0.4
				c0.36,0.07,0.81-0.28,1.22-0.41C672.35,1114.36,675.72,1116.21,675.84,1118.9z"/>
		</g>
		<g>
			<path class="st7" d="M518.67,1153.14c0.17,0.69-0.5,1.61,0.24,2.07c0.86,0.54,1.17-0.63,1.78-0.94c1.51-0.76,2.89-1.67,3.39-3.53
				c0.16-0.59,0.4-1.64,1.57-1.45c1.62,0.25,3.03,0.88,3.71,2.44c0.95,2.18,1.26,2.27,2.99,0.52c0.71,1.2-0.63,1.69-0.99,2.43
				c-1.86,3.86-1.01,8.11-2,12.05c-0.55,2.18,1.04,3.39,1.83,4.82c0.86,1.55,3.05,1.19,4.1-0.56c1.99-3.35,3.38-6.98,4.86-10.59
				c1.16-2.84,0.16-6.12,2.36-8.57c0.32-0.36,0.21-1.15,0.21-1.74c0-3.69,2.09-6.7,3.2-10.02c0.7-2.1,1.86-4.01,2.87-5.84
				c1.1-1.98,2.41-4.02,3.91-5.85c1.7-2.06,2.75-4.56,4.14-6.79c1.38-2.21,2.36-4.69,4.03-6.66c0.96-1.13,0.78-2.32,1-3.49
				c0.2-1.05,0.42-2.02,1.22-2.78c0.42-0.16,0.41-0.54,0.51-0.9c1.1-4.1,1.19-8.35,1.92-12.57c0.07,1.6,1.21,2.64,1.83,3.94
				c0.53,1.11,1.24,2.18,0.82,3.54c-0.11,0.34-0.58,0.87,0.03,1.15c0.58,0.27,0.94-0.22,1.26-0.65c1.02-1.4,0.22-2.71-0.28-3.97
				c-0.38-0.95-1.19-1.98-0.42-2.85c1.22-1.37,1.21-2.96,1.39-4.57c0.28-2.5-0.55-5.03,0.69-7.53c0.99-2,2.07-4.08,1.39-6.57
				c-0.16-0.59,0.79-1.64-0.11-2.15c-1.01-0.58-1.71,0.35-2.42,1c-0.76,0.69-1.43,1.53-1.21,2.47c0.54,2.29-1.48,3.62-1.53,5.62
				c-0.67-0.18-0.19-1.85-1.3-0.64c-0.22-1.75,1.12-3.01,1.5-4.62c0.59-2.51,1.94-4.84,2.96-7.25c1.13-2.66,1.68-5.74,4.94-6.88
				c-0.06,2-1.63,3.37-2.15,5.21c-0.44,1.54,0.69,2.21,1.47,2.58c1.18,0.56,0.35-1.07,1.04-1.45c0.62-0.34,0.45-1.15,0.35-1.83
				c-0.15-1.04,0.65-0.71,1.18-0.74c0.13,0.16,0.27,0.33,0.4,0.49c0.04,0.32-0.22,0.69,0.15,0.93c0.03,0.02,0.23-0.14,0.29-0.24
				c0.28-0.49-0.07-0.6-0.45-0.68c-0.13-0.16-0.27-0.33-0.4-0.49c0.06-0.42,0.06-1.13,0.47-1.1c2.31,0.19,1.74-1.34,1.66-2.61
				c1.89,1.03-0.09,3.18,1.27,4.37c-1.01,0.08-1.76,0.35-2.2,1.48c-0.77,2-1.78,3.9-2.69,5.84c-0.82,1.74-1.61,3.49-2.5,5.2
				c-2.52,4.84-1.57,9.98-1.23,15.03c0.19,2.8,0.72,5.59,1.18,8.37c0.3,1.84-0.27,3.55-0.73,5.24c-2.26,8.15-6.31,15.4-11.49,22.03
				c-4.53,5.79-8.96,11.63-11.38,18.68c-1.59,4.64-2.64,9.42-3.06,14.3c-0.43,5.02-2.43,9.37-5.02,13.57
				c-0.8,1.3-2.16,1.74-3.28,2.48c-1.76,1.16-3.77,1.95-5.68,2.9c-0.64-1.39,0.76-2.99,2.26-3.64c2.64-1.14,5.73-1.92,6.63-5.37
				c0.23-0.88,0.88-1.67,1.36-2.48c0.15-0.25,0.58-0.47,0.56-0.66c-0.55-4.3,3.54-7.99,1.65-12.46c-0.17-0.4,0.12-0.67,0.28-1
				c1.31-2.64,1.18-3.02-1.45-4.56c-0.19,2.27-0.71,4.45-1.85,6.42c-1.2,2.09-1.29,4.65-2.8,6.6c-1.32,1.7-1.9,3.91-3.82,5.23
				c-1.99,1.37-5.05,0.6-5.98-1.68c-0.78-1.92-1.97-3.69-1.37-6.02c0.3-1.15-3.32-4-4.55-3.87c-0.43,0.04-0.74,0.19-0.64,0.67
				c0.23,1.12-0.71,0.89-1.26,1.1c-0.68,0.27-1.75-0.8-2.1,0.43c-0.35,1.26-1.01,2.86-0.14,3.86c1.79,2.06,0.42,4.56,1.39,6.74
				c0.55,1.23-2,2.79-3.42,2.35c-0.67-0.21-1.4-1.14-2-0.51c-0.74,0.79,0.34,1.43,0.7,2.07c1.4,2.5,2.88,5.06,0.79,7.78
				c-0.8,1.04-1.76,1.92-2.11,3.24c-0.35-2.31,0.76-4.31,1.38-6.42c0.32-1.1-0.01-1.99-0.79-2.98c-3.74-4.74-7.14-9.73-10.83-14.52
				c-1.77-2.3-3.3-5.07-4.18-8.01c0.76,0.13,1.17,0.77,1.38,1.34c0.83,2.27,2.33,4.18,3.29,6.38c0.22,0.51,0.56,1.02,1.13,0.81
				c0.83-0.31,0.14-0.82,0.01-1.25c-1.01-3.48-2.79-6.77-1.92-10.66c0.55-2.44,0.66-4.99,0.76-7.5c0.12-3.15-0.52-6.27-1.32-9.27
				c-0.77-2.88-2.93-5.05-5.22-6.98c-0.69-0.58-1.74-1.01-1.47-2.25c4.11,2.49,6.87,5.93,8.05,10.69
				c1.33,5.35,1.32,10.65-0.03,15.95c-0.29,1.13-0.32,2.26-0.05,3.3c1.93,7.44,5.64,13.68,12.33,17.85
				c0.53,0.33,1.08,0.67,1.64,0.35c0.67-0.39,0.34-1.05,0.18-1.61c-1.89-6.51-1.24-13.09-0.6-19.67
				C518.15,1154.03,518.24,1153.51,518.67,1153.14z M568.28,1110.19c-1.13,0.59-2.25,0.39-3.38-0.01c-0.17,1.47-1.91,1.95-2.2,3.2
				c-0.96,4.04-3.45,7.29-5.44,10.76c-1.58,2.74-2.94,5.66-5.21,8.02c-0.96,1.01-2.08,2.5-1.28,4.31c0.99-0.62,1.82-1.55,2.72-1.62
				c1.42-0.11,1.47-0.85,1.85-1.9c0.97-2.61,2.29-4.94,4.8-6.66c1.31-0.9,3.38-1.78,3.34-4c-0.03-1.54,0.8-2.36,1.97-3.17
				c3.11-2.18,3.77-4.21,2.81-7.8c-0.09-0.34,0.02-0.73,0.04-1.1c0.72-0.03,1.07-0.35,0.8-1.08c-0.06-0.15-0.31-0.24-0.47-0.35
				C568.53,1109.26,568.4,1109.73,568.28,1110.19z M546.32,1154.26c-0.1-0.05-0.19-0.09-0.28-0.13c-0.03,0.07-0.09,0.15-0.07,0.2
				c0.04,0.11,0.12,0.21,0.19,0.31C546.21,1154.51,546.27,1154.38,546.32,1154.26z"/>
		</g>
		<g>
			<path class="st7" d="M575.7,1247.99c-0.21-0.28-0.41-0.55-0.62-0.83c0.13-0.66,0.05-1.25-0.13-1.93
				c-0.41-1.54-1.27-2.96-1.63-4.4c-0.89-3.57-1.01-7.3-0.87-11c0.05-1.41,0.2-2.81,0.4-4.21c0.15-1.03-0.11-1.74-1.12-2.11
				c-1.74,1.26-2.56,3.33-4.33,4.87c0.42-3.76,1.21-7.29,1.26-10.9c0.06-4.75-0.26-9.53-1.76-13.99c-3.24-9.65-1.83-19,1.05-28.36
				c0.94,0.11,1.51-0.51,2.06-1.09c1.01-1.06,1.72-2.37,2.54-3.56c1.27-1.86,3.04-3.59,2.9-6.16c0,0,0.03-0.04,0.03-0.04
				c0.13-0.16,0.26-0.32,0.39-0.48c0,0-0.02,0.02-0.02,0.02c0.61-0.19,0.62-0.7,0.65-1.2c0,0,0.02-0.05,0.02-0.05
				c0.11-0.18,0.23-0.35,0.34-0.53c0,0-0.02,0.02-0.02,0.02c0.95-0.39,1.47-1.03,1.73-2.08c0.43-1.71,3.55-3.86,4.94-3.35
				c3.07,1.13,5.25,3.35,6.83,6.18c0.23,0.42,0.35,0.81-0.03,1.2c-0.43,0.45-1.1,0.97-1.54,0.58c-1.24-1.09-2.26-0.2-3.46-0.1
				c-1.79,0.15-2.69,1.52-4.06,2.14c-1.11,0.5-3.17,1.21-3.02,3.23c0.08,1.06-0.15,2.06-0.15,3.09c-0.84,1.85-1.3,3.92-2.23,5.65
				c-1.77,3.3-2.04,6.95-2.94,10.43c-0.59,2.26,0.05,4.84,0.15,7.28c0.03,0.76-0.49,1.58,0.27,2.25c0.08,0.37,0.15,0.74,0.23,1.1
				c0.17,0.82-0.51,1.74,0.29,2.49c0.13,0.05,0.25,0.12,0.36,0.21c0.14,1.58-0.84,3.17,0.01,4.76l0.01,0.02
				c0.05,2.91,0.94,5.9-0.78,8.66c-0.13,0.21,0.13,0.56,0.48,0.62c0.44,0.06,0.73-0.21,0.86-0.56c0.4-1.11,0.79-2.22,1.1-3.35
				c0.17-0.64,0.08-1.43,0.9-1.63c1.26-0.32,1.9-0.74,0.76-1.98c-0.46-0.5-0.39-1.34,0.26-1.5c1.85-0.46,1.61-2.14,2.04-3.33
				c0.65-1.77,1.83-2.59,3.56-1.83c1.42,0.62,2.56,1.94,4.45,1.56c-0.9,1.06-2.46,1.16-2.54,2.98c-0.76-1.27-0.85-2.68-2.72-2.66
				c1.01,1.6,1.72,3.06,1.9,4.77c-1.03,0.19-2.25-0.14-2.61,1.45c-0.2,0.88-1.04,1.59-1.41,2.45c-0.36,0.85-0.47,1.79,0.9,1.93
				c-0.14,1.09-1.62,1.08-1.77,2.14c-0.03,0.19,0.08,0.48,0.23,0.59c1.35,1.02,0.66,2.02,0.09,3.12c-1.05,2.04-0.75,3.24,0.84,3.84
				c-1.85,5.28-2.48,10.76-2.74,16.3c-0.05,1.03,0.02,2.06,0.09,3.09c0.09,1.29,1.22,1.91,2.11,2.24c1.4,0.51,1.74-1.25,2.7-1.81
				c0.29,0.01,0.76,0.15,0.85,0.02c1.55-2.24,4.08-3.46,5.75-5.54c0.72-0.89,1.44-1.44,2.49-1.94c1.17-0.55,3.09-0.75,2.84-2.86
				c0,0,0.05-0.02,0.05-0.02c2.36-0.78,2.91,1.65,4.35,2.49c0.35,0.2,0.25,0.86-0.09,1.2c-0.37,0.36-1.01,0.78-1.35,0.3
				c-0.81-1.15-1.94-0.32-2.85-0.66c-0.71-0.27-1.45-0.19-1.64,0.56c-0.18,0.69,0.29,1.25,1.1,1.39c0.34,0.06,0.76,0.02,0.93,0.64
				c-0.94,1.17-2.14,2.64-3.27,3.26c-3.03,1.68-5.32,4.2-8.09,6.14c-0.8,0.56-1.97,0.86-2.13,2.11c0,0-0.03,0.02-0.03,0.02
				c-0.56-0.04-0.89,0.2-0.94,0.78c0,0-0.04,0.03-0.04,0.03c-0.87-0.09-1.74-0.18-2.61-0.26c0,0-0.02-0.02-0.02-0.02
				c0.35-1.36-0.15-2.02-1.58-1.91c0,0-0.04-0.05-0.04-0.05C576.77,1249.05,577.05,1248.12,575.7,1247.99z M578.24,1226.41
				c0.54-0.26,1.2-0.36,1.08-1.15c-0.04-0.29-0.34-0.58-0.64-0.43C578.01,1225.16,578.2,1225.79,578.24,1226.41z"/>
		</g>
		<g>
			<path class="st7" d="M641.24,1156.03c0.09-0.11,0.2-0.15,0.33-0.12c0.29,0.98-0.74,2.22,0.65,2.99c1.3,0.71,0.75,1.43-0.15,1.93
				c-0.84,0.48-1.41,1.33-0.84,1.93c0.87,0.91,1.08-0.44,1.5-0.88c1.83-1.89,3.77-0.28,5.59-0.08c1.56,0.17,0.09,1.4,0.27,2.11
				c0.15,0.6,0.02,1.33,0.67,1.74c0.71-0.25,0.35-1.37,1.24-1.41c-0.07,0.7-0.15,1.39-0.22,2.09c-0.34,0-0.82-0.19-0.86,0.33
				c-0.03,0.4,0.37,0.59,0.76,0.66c-0.5,4.99-1.01,9.98-1.51,14.97c-0.67-0.42-1.04-1.27-1.75,0.33c-0.66,1.48-1.21,3.09-1.98,4.55
				c-0.51,0.95-1.77,1.41-1.72,2.73c0.17,4.74-2.78,8.53-4.02,12.85c-0.82,2.85-2.55,5.37-2.98,8.38c-0.36,2.5-1.09,5.07-0.6,7.5
				c0.9,4.43,1.03,8.89,1.01,13.35c-0.02,3.88-0.89,7.67-1.84,11.47c-0.76,3.06-2.01,5.9-3,8.84c-0.31,0.92-1.38,1.73-2.67,0.5
				c-2.24-2.14-4.96-3.66-6.97-6.18c-1.06-1.33-1.62-2.52-1.72-4.06c-0.03-0.48-0.12-1.14,0.46-1.38c0.56-0.23,1.01,0.24,1.35,0.58
				c1.39,1.41,3.23,1.79,5.01,2.34c2.18,0.42,1.62-1.36,1.64-2.29c0.1-5.47-0.11-10.93-1.03-16.36c-0.63-3.71-1.92-7.31-1.94-11.11
				c-0.03-6.46,2.81-12.01,5.71-17.52c1.13-2.16,2.35-4.27,3.52-6.41c4.24-7.7,4.95-16.01,4.4-24.58c-0.15-2.36,0.04-4.74,0.08-7.11
				c0.01-0.63,0.23-1.16,0.84-1.46C641.29,1157.21,641.22,1156.59,641.24,1156.03z"/>
		</g>
		<g>
			<path class="st7" d="M580.77,1224.4c-1.59-0.6-1.89-1.8-0.84-3.84c0.57-1.1,1.26-2.1-0.09-3.12c-0.15-0.11-0.26-0.4-0.23-0.59
				c0.15-1.06,1.63-1.05,1.77-2.14c-1.37-0.14-1.26-1.08-0.9-1.93c0.37-0.86,1.21-1.57,1.41-2.45c0.36-1.59,1.59-1.26,2.61-1.45
				c-0.18-1.71-0.89-3.18-1.9-4.77c1.87-0.02,1.96,1.39,2.72,2.66c0.07-1.83,1.63-1.92,2.54-2.98c-1.89,0.38-3.02-0.94-4.45-1.56
				c-1.73-0.75-2.92,0.06-3.56,1.83c-0.44,1.2-0.19,2.87-2.04,3.33c-0.65,0.16-0.71,1-0.26,1.5c1.14,1.25,0.51,1.67-0.76,1.98
				c-0.82,0.2-0.72,1-0.9,1.63c-0.31,1.13-0.7,2.25-1.1,3.35c-0.13,0.35-0.42,0.62-0.86,0.56c-0.35-0.05-0.61-0.4-0.48-0.62
				c1.72-2.77,0.83-5.75,0.78-8.66c0.88-0.01,1.41-0.46,1.91-1.19c1.23-1.81,2.43-3.66,3.89-5.27c2.71-2.95,4.95-6.26,7.56-9.3
				c2.97-3.45,6.13-6.83,8.58-10.71c1.11-1.75,2.26-3.54,1.65-5.91c-0.36-1.42-1.58-1.58-2.44-2.2c-2.63-1.89-4.65-4.61-8.08-5.49
				c-1.1-0.28-1.72-1.17-3.2-0.45c-1.18,0.58-2.55,1.05-3.15,2.07c-0.87,1.49-1.93,2.83-2.87,4.26c0-1.03,0.23-2.03,0.15-3.09
				c-0.16-2.01,1.9-2.72,3.02-3.23c1.37-0.62,2.27-1.99,4.06-2.14c1.2-0.1,2.22-0.99,3.46,0.1c0.44,0.38,1.11-0.14,1.54-0.58
				c0.38-0.4,0.27-0.78,0.03-1.2c-1.58-2.83-3.75-5.05-6.83-6.18c-1.38-0.51-4.51,1.64-4.94,3.35c-0.26,1.05-0.78,1.69-1.73,2.08
				c2.51-6.57,8.12-8.56,14.22-5.03c3.6,2.09,6.76,4.73,9.47,7.86c2.94,3.39,6.4,6.16,10.04,8.74c2.89,2.05,3.69,6.1,1.7,9.03
				c-1.34,1.97-2.94,3.78-4.78,5.24c-9.03,7.23-15.9,16.23-21.76,26.08C583.79,1217.3,582.23,1220.83,580.77,1224.4z"/>
		</g>
		<g>
			<path class="st7" d="M327.24,1188.99c-2.4,1.33-3.89-0.34-5.49-1.65c-0.34-0.28-0.35-0.58-0.04-0.93
				c1.39-1.57,1.55-3.24,0.67-5.18c-0.12-0.27-1.56-2.49,0.98-2.21c0.05,0.01,0.17-0.07,0.17-0.11c-0.04-2.15,2.9-3.46,1.65-5.99
				c-0.39-0.8-0.53-1.66,1.01-1.24c0.65,0.18,3.03-5.16,2.6-5.78c-0.15-0.21-0.51-0.43-0.72-0.39c-0.88,0.17-1.82,0.27-1.83-0.89
				c0-1,0.73-1.8,1.79-1.93c0.93-0.12,1.83,0.19,0.59-1.17c-0.5-0.54,0.66-1.09,1.32-1.32c0.4-0.14,1.23-0.27,1.02-0.54
				c-0.86-1.17-0.14-3.24-1.46-3.73c-1.71-0.64-2.33-1.79-2.94-3.34c0.23,2.95-1.88,5.26-1.86,8.07c0.01,0.98-0.91,1.43-1.18,2.32
				c-0.84,2.81-1.22,5.64-1.3,8.56c-0.08,2.86-1.85,3.48-4.51,3.72c-3.23,0.29-5.43-1.75-8.18-2.23c-1.83-0.32-3.25-2.82-5.63-0.9
				c3.05-2.38,1.98-5.49,2.26-8.36c0.24-2.51,0.5-5.07,1.67-7.46c0.86-1.74,0.78-3.74,0.67-5.67c-0.03-0.5-0.3-1.03-0.92-1.13
				c-1.95-0.3-3.59-1.73-5.68-1.54c2.75-0.69,5.02,0.98,7.5,1.57c0.57,0.14,0.53,0.63,0.51,1.08c-0.12,2.92-1.22,5.54-2.17,8.26
				c-0.97,2.8-1.63,5.93-0.55,8.95c0.32,0.9-0.05,1.73,0.39,2.72c1.04,2.31,3.39,2.07,4.97,2.53c1.75,0.51,4,1.15,6.06,0.06
				c1.13-0.6,1.98-1.18,1.92-2.59c-0.17-3.96,1.12-7.71,2.11-11.41c0.91-3.38,2.23-6.67,2.47-10.2c0.13-1.91-0.48-3.8-0.7-5.69
				c-0.29-2.49-1.09-4.88-1.22-7.35c-0.13-2.5-1.15-4.76-1.51-7.19c-0.05-0.3-0.43-0.63-0.32-1c0.87-3.04,0.2-6.18-0.09-9.12
				c-0.27-2.69,0.52-5.46-0.48-8.08c-0.08-0.2-0.09-0.45-0.04-0.66c1.02-4.02-0.42-8.1,0.31-12.15c0.71-3.95,0.06-8,0.15-11.99
				c0.06-2.64,0.17-5.79-1.4-8.43c-0.28-0.47,0.03-1.3,0.06-1.96c0,0,0.14-0.11,0.14-0.11c1.06,1.15,2.23,2.2,1.99,4.06
				c-0.12,0.92,0.97,1.1,1.4,0.72c0.59-0.52,1.54-1.06,1.37-2.08c-0.26-1.57,0.09-3.23-0.65-4.73c-0.67-1.35,0.43-0.82,0.95-0.91
				c2.35,2.48,3.94,5.51,6.03,8.18c0.53,0.68,0.61,1.54,0.55,2.34c-0.22,3.17-0.26,6.38-0.83,9.49
				c-2.18,11.88-2.76,23.75-0.76,35.73c1.24,7.44,3.72,14.69,3.53,22.36c-0.08,3.11,0.96,6.39-0.1,9.27
				c-1.16,3.15-2.17,6.38-3.64,9.43c-2.56,5.32-4.53,10.88-6.08,16.59c-0.36,1.34-0.13,2.07,1.11,2.67
				C325.67,1188.69,326.46,1188.81,327.24,1188.99z M325.83,1124.68c1.15-0.58,1.5,1.5,2.25,0.31c0.34-0.54,0.24-1.58-0.48-2.5
				c-0.96-1.24-2.61-2.95-2.46-3.89c0.23-1.43,0.11-3.22,1.16-4.53c0.27-0.34,0.49-0.79,0.11-0.92c-2.05-0.68-0.89-1.35-0.16-2.27
				c0.8-1.01,0.72-2.27-0.04-3.32c-0.65-0.91-0.85-2.02-0.07-2.6c1.13-0.84,0.21-1.71-0.06-1.73c-1.16-0.08-0.76-1.16-1.25-1.6
				c-0.52-0.47-0.07-1.96-1.41-1.52c-0.97,0.32-0.99,1.33-0.74,2.09c0.73,2.22,0.25,4.41,0.09,6.62c-0.04,0.59-0.26,1.31,0,1.75
				c1.2,2.08,0.23,4.33,0.23,6.36c0,5.11-0.08,10.2,1.47,15.07c0.5,1.57,0.6,3.08,0.82,4.62c0.1,0.72-0.28,1.56-0.05,2.2
				c1.23,3.49,1.71,7.06,1.53,10.74c-0.05,0.92,0.57,1.5,1.18,2.04c0.32,0.28,0.72,0.2,0.98-0.13c0.54-0.7,0.53-1.5,0.32-2.32
				c-0.64-2.51-1.78-5.1,1.33-6.93c0.45-0.26,0.6-0.84,0.31-1.39c-0.14-0.27-0.19-0.51-0.57-0.17c-1.17,1.07-1.32,0-1.72-0.79
				c-0.94-1.86,0.35-4.39-1.78-5.88c-0.05-0.04-0.03-0.33,0.05-0.39c1.32-1,0.49-2.78,1.58-4.03c0.68-0.78,1.64-2.78-1.11-2.97
				C326.45,1126.53,326.2,1125.42,325.83,1124.68z"/>
		</g>
		<g>
			<path class="st7" d="M496.58,1127.68c-0.26,1.24,0.78,1.67,1.47,2.25c2.29,1.94,4.45,4.11,5.22,6.98
				c0.8,2.99,1.44,6.12,1.32,9.27c-0.1,2.51-0.21,5.07-0.76,7.5c-0.88,3.89,0.9,7.18,1.92,10.66c0.12,0.43,0.82,0.94-0.01,1.25
				c-0.57,0.21-0.91-0.3-1.13-0.81c-0.96-2.19-2.46-4.11-3.29-6.38c-0.21-0.56-0.62-1.2-1.38-1.34c-0.04-0.15-0.01-0.29,0.08-0.41
				c0.06-0.04,0.17-0.09,0.17-0.12c-0.03-0.12-0.09-0.23-0.14-0.34c0,0,0-0.02,0-0.02c-0.54-1.77-1.05-3.56-2.11-5.12
				c-0.06-0.12-0.08-0.24-0.08-0.37c0.31-1.87,0.55-3.73-1.15-5.15c0,0-0.04-0.05-0.04-0.05c-0.25-3.59-1.88-6.3-5.06-8.04
				c-2.64-1.85-5.4-3.13-8.7-3.75c-2.36-0.44-5.02-0.63-7.16-2.16c-1.06-0.76-1.69,0.83-2.84,0.49c-1.51-0.45-3.13-0.49-4.62,0.35
				c-1.89-0.46-2.1,1.26-2.9,2.21c-0.17,0.04-0.35,0.09-0.52,0.13c-0.13,0.14-0.25,0.27-0.38,0.41c-0.22,0.12-0.44,0.23-0.66,0.35
				c-2.37-0.01-3.25,1.69-3.45,3.56c-0.13,1.15-0.3,2.11-1.01,3.01c-0.29,0.37-0.27,1.19-0.99,0.83c-0.71-0.35-0.04-0.9,0.05-1.35
				c0.34-1.74,0.58-3.26-2.06-3.2c-2.18,0.05-1.25-1.21-0.63-2.11c0.24-0.36,0.76-0.62,0.49-1.09c-0.35-0.6-0.88-0.33-1.36-0.07
				c-0.63,0.34-1.64,0.57-1.4-0.4c0.31-1.27,0.08-2.86,1.43-3.78c0.85-0.59,1.26-1.43,1.26-2.47c2.34-1.84,5.3-1.97,8-2.59
				c6.18-1.4,12.54-1.27,18.85-1.36C487.78,1124.38,492.5,1124.68,496.58,1127.68z"/>
		</g>
		<g>
			<path class="st7" d="M481.77,1186.16c2.64,3.5,4.51,7.29,5.61,11.61c1.42,5.62,0.72,11.16-0.22,16.59
				c-0.61,3.54-2.22,7.1-4.7,9.95c-0.98,1.13-1.29,2.56-2.45,3.66c-2.74,2.6-6.29,3.34-9.6,4.38c-3.29,1.03-6.86,1.3-10.3,1.83
				c-3.62,0.55-7.13,0.32-10.38-0.49c-3.86-0.96-7.85-1.01-11.58-2.09c-2.22-0.64-4.5-0.62-6.59-1.35c-2.02-0.7-4.23-0.85-6.11-2.16
				c-1.05-0.73-2.53-0.55-3.81-1.31c-2.95-1.73-6.31-2.68-9.45-4.1c-3.59-1.62-7.06-3.67-10.86-4.72
				c-3.69-1.02-7.43-0.61-11.04,0.87c-1.36,0.56-2.87,0.74-4.31,1.1c0,0-0.13-0.16-0.12-0.16c0.48-0.63,1.06-1.1,1.7-1.59
				c1.3-1.01,2.82-0.09,3.88-0.71c3.21-1.87,6.67-0.64,9.98-1c2.24-0.25,4.88,1.12,6.35,2.38c2.5,2.15,5.46,2.76,8.15,4.15
				c2.32,1.2,4.81,1.92,7.27,2.78c3.44,1.2,6.92,2.12,10.44,2.96c0.59,0.14,1.16-0.11,1.33-0.56c0.37-0.96-0.59-0.4-0.84-0.63
				c-0.69-0.65-0.49-1.27,0.28-1.72c0.61-0.36,1.24-0.68,2-1.09c-0.7-0.48-1.3-0.88-1.9-1.29c0.35-0.23,0.72-0.18,1.05,0.01
				c3.85,2.15,8.18,2.54,12.4,3.19c11.23,1.73,21.63,0.2,30.08-8.27c0.09,0.63,0.26,1.34,1.07,0.81c1.4-0.91,2.71-1.49,4.27-0.33
				c0.51,0.38,1.06,0.25,1.41-0.5c1.2-2.58,2.01-5.29,2.58-8.06c0.54-2.61-0.3-5.19-0.22-7.78c0.09-2.63-1.51-4.81-1.86-7.29
				c-0.21-1.48-0.92-2.66-1.46-3.96C483.1,1189.61,481.78,1188.11,481.77,1186.16z M464.82,1227.27c-2.41,0.16-4.54,1.73-7.01,0.93
				c-0.51-0.17-1.17-0.47-1.58,0.19c-0.11,0.18,0.02,0.57,0.14,0.82c0.37,0.75,1.21,0.89,1.7,0.55c1.34-0.94,2.72-0.48,4.05-0.28
				C463.93,1229.73,464.65,1228.95,464.82,1227.27z M466.52,1227.35c-0.05-0.02-0.1-0.05-0.15-0.07c-0.02,0.08-0.03,0.15-0.05,0.23
				c0.05-0.01,0.12,0,0.16-0.02C466.51,1227.46,466.51,1227.4,466.52,1227.35z"/>
		</g>
		<g>
			<path class="st7" d="M478.15,1097.19c-0.3,0.88-0.87,0.99-1.73,0.78c-4.66-1.12-9.32-2.23-14.18-1.22
				c-0.78,0.16-1.62,0.02-2.43,0.07c-1.39,0.08-2.66,0.03-3.2,1.94c-0.29,1.02-1.68,2.24-2.61,0.03c-0.23-0.54-0.63-1.05-1.33-1.03
				c-0.43,0.02-0.63,0.37-0.66,0.77c-0.05,0.64-0.37,1.41,0.48,1.74c0.62,0.24,0.83,0.61,1.08,1.22c0.38,0.9,0.88,2.05,2.17,0.51
				c0.39-0.47,1.4-1.22,2.69-0.4c1.05,0.67,2.75,1.23,3.83-0.68c0.41-0.73,1.33-0.7,1.33,0.52c0,0.4-0.08,0.83,0.35,0.89
				c2.35,0.3,5.03,1.39,6.97,0.42c1.67-0.83,3.02-0.78,4.64-0.67c-0.27,1.57-0.78,2.61-2.76,1.71c-0.75-0.34-1.59,0.11-2.16,0.79
				c-2.91-0.79-5.89-0.44-8.85-0.55c-7.01-0.25-13.7,1.12-20.16,3.76c-5.49,2.24-10.16,5.72-14.64,9.5
				c-0.13-0.62-0.07-1.15,0.5-1.58c1.42-1.07,0.69-2.23-0.09-3.14c-0.7-0.81-0.27-1.2,0.24-1.63c1.33-1.13,1.07-2.48,0.15-3.52
				c-1.01-1.15-2.62-0.33-3.07,0.4c-0.97,1.58-2.37,2.71-3.67,3.78c-2.79,2.3-3.6,6.04-6.44,8.22c-0.86-2.33,1.4-3.26,2.22-4.82
				c2.74-5.28,7.23-9.09,12.07-12.09c3.47-2.15,7.43-3.85,11.67-4.79c2.59-0.57,5.24-1.19,7.81-1.37c3.27-0.23,6.54-0.55,9.8-0.86
				c2.29-0.22,4.56-0.26,6.85-0.37C469.51,1095.31,473.74,1096.87,478.15,1097.19z"/>
		</g>
		<g>
			<path class="st7" d="M456.14,1128.4c0,1.04-0.41,1.88-1.26,2.47c-1.35,0.93-1.11,2.51-1.43,3.78c-0.24,0.97,0.77,0.74,1.4,0.4
				c0.48-0.26,1-0.53,1.36,0.07c0.28,0.47-0.25,0.74-0.49,1.09c-0.61,0.91-1.55,2.16,0.63,2.11c2.64-0.06,2.4,1.46,2.06,3.2
				c-0.09,0.45-0.76,1-0.05,1.35c0.72,0.35,0.7-0.46,0.99-0.83c0.71-0.91,0.88-1.86,1.01-3.01c0.21-1.87,1.08-3.56,3.45-3.56
				c-0.01,1.94-2.15,2.55-2.58,4.33c-1.16,4.76-2.69,9.36,0.41,14.11c1.32,2.02,2.56,4.08,4.18,5.86c0.63,0.69,0.53,1.28,0.49,1.99
				c-0.38-0.05-0.67-0.21-0.89-0.56c-0.33-0.53-0.63-1.51-1.35-1.12c-0.65,0.35-0.87,1.25-0.65,2.16c0.23,0.92,0.86,1.64,0.92,2.66
				c0.08,1.31-0.14,3.02,2.09,2.98c0.25,0,0.67,0.61,0.76,1c0.72,3.16,1.17,6.38,2.26,9.45c-0.59-0.05-0.85-0.5-1.19-0.9
				c-5.22-6.17-9.92-12.75-14.33-19.5c-1.67-2.56-3.73-5.01-4.58-8.03c-1.99-7.05-2.56-13.87,3.63-19.45
				C453.95,1129.57,454.54,1128.26,456.14,1128.4z M457.93,1146.59c0.06,0.52-0.37,1.15,0.42,1.64
				C458.78,1147.48,458.98,1146.91,457.93,1146.59c0.05-0.52,0.15-0.98,0.61-1.34c0.48-0.38,0.62-0.87-0.06-1.18
				c-0.53-0.24-1.07-0.11-1.18,0.54C457.18,1145.34,456.76,1146.24,457.93,1146.59z"/>
		</g>
		<g>
			<path class="st7" d="M627.26,1244.12c-1.78-0.55-3.62-0.93-5.01-2.34c-0.34-0.35-0.79-0.82-1.35-0.58
				c-0.58,0.24-0.49,0.9-0.46,1.38c0.1,1.54,0.66,2.73,1.72,4.06c2.01,2.52,4.73,4.04,6.97,6.18c1.29,1.23,2.36,0.42,2.67-0.5
				c0.99-2.94,2.24-5.78,3-8.84c0.94-3.8,1.82-7.6,1.84-11.47c0.02-4.45-0.11-8.91-1.01-13.35c-0.49-2.43,0.24-5.01,0.6-7.5
				c0.43-3,2.16-5.53,2.98-8.38c1.24-4.32,4.19-8.11,4.02-12.85c-0.05-1.32,1.22-1.78,1.72-2.73c0.78-1.47,1.33-3.08,1.98-4.55
				c0.71-1.59,1.08-0.75,1.75-0.33c-0.26,0.33-0.71,0.65-0.73,1c-0.12,1.68-0.7,3.17-1.36,4.72c-1.6,3.7-3.28,7.44-4.25,11.32
				c-0.77,3.09-2.05,5.98-3,8.98c-0.51,1.61-0.87,3.37-1.88,4.9c-0.78,1.2-0.94,3.02-0.42,4.29c0.5,1.22,0.06,2.33,0.35,3.39
				c1.1,4.01-0.49,8.03,0.25,12.09c0.35,1.93,0.27,4.25-1,6.19c-0.68,1.03-0.52,2.31-0.56,3.47c-0.1,2.38-0.97,4.42-2.19,6.43
				c-0.88,1.45-0.71,3.27-1.46,4.93c-0.87,1.9-1.62,1.44-2.78,0.87c-1.89-0.94-3.04-2.77-4.7-4.02c-3.1-2.35-5.89-5.07-9.07-7.37
				c-1.94-1.4-3.74-2.96-5.79-4.26c-2.22-1.41-4.13-1.8-6.59-0.82c-4.55,1.79-8.6,4.25-12.6,7.09c-2.87,2.04-5.39,4.86-9.01,5.81
				c0.16-1.25,1.33-1.55,2.13-2.11c2.77-1.94,5.06-4.46,8.09-6.14c1.13-0.63,2.33-2.09,3.27-3.26c-0.17-0.62-0.6-0.58-0.93-0.64
				c-0.8-0.14-1.28-0.7-1.1-1.39c0.19-0.75,0.94-0.82,1.64-0.56c0.91,0.34,2.04-0.5,2.85,0.66c0.34,0.48,0.98,0.06,1.35-0.3
				c0.34-0.34,0.44-1,0.09-1.2c-1.44-0.84-2-3.27-4.35-2.49c5.28-2.81,10.69-4.65,16.73-2.54c0.74,0.26,1.28,0.66,1.74,1.24
				c0.02,0.64,0.13,1.12,0.85,0.44C619.93,1235.14,623.63,1239.59,627.26,1244.12z M618.28,1237.09c-1.06-0.27-1.87-0.81-2.24-1.92
				c-0.15-0.45-0.33-1.18-1.02-0.78c-1.24,0.72-1.57,2.14-2.15,3.31c-0.49,0.97,0.34,1.61,1.03,2.2c0.89,0.76,1.97,1.41,2.6,2.35
				c0.69,1.05,2.06,0.9,2.1,0.52c0.11-1.23,1.22-3.17,1.07-3.17C617.38,1239.66,618.87,1237.81,618.28,1237.09
				c0.29,0,0.61,0.03,0.7-0.34c0.02-0.07-0.14-0.27-0.22-0.27C618.39,1236.49,618.36,1236.81,618.28,1237.09z M610.48,1236.52
				c0.11,0.4,0.38,0.66,0.78,0.6c0.36-0.05,0.72-0.29,0.6-0.74c-0.11-0.43-0.52-0.44-0.88-0.42
				C610.63,1235.98,610.47,1236.18,610.48,1236.52z"/>
		</g>
		<g>
			<path class="st7" d="M675.84,1118.9c-0.12-2.69-3.49-4.54-6.52-3.58c-0.41,0.13-0.86,0.49-1.22,0.41
				c-4.53-0.91-9.12,0.58-13.65-0.4c-0.94-0.2-1.77-0.34-1.81-1.53c-0.01-0.38-0.15-0.67-0.52-0.89c-0.62-0.37-1.8,0.64-1.88-0.45
				c-0.12-1.6-0.64-3.28-0.02-4.84c0.63-1.58,2.06-1.19,3.25-0.84c2.48,0.72,4.82,1.8,7.32,2.51c5.03,1.44,10.14,2.14,15.33,2.37
				c1.41,0.18,2.45,0.5,3.11,2.18c1.11,2.86,4.02,4.34,6.09,6.46c1.3,1.34,1.94,2.81,1.03,4.44c-1.9,3.42-4.61,6.09-7.62,8.52
				c-1.79,1.44-3.73,2.73-5.24,4.5c-0.23-0.16-0.64-0.32-0.65-0.49c-0.14-2.01-1.04-1.23-1.95-0.57c-1.35,0.98-2.37,2.23-3.18,3.71
				c-0.66-0.94,0.48-2.5-1.29-3.02c-0.46-0.13-0.33-0.88,0.47-1.24c2.84-1.28,4.61-3.88,6.81-5.92c1.29-1.2,2.96-2.37,3.11-4.46
				c0.05-0.41,0.1-0.83,0.15-1.24c0.1-0.89,0.98-1.93-0.48-2.53c-0.08-0.12-0.09-0.25-0.02-0.38c0.09-0.79,0.33-1.59,0.25-2.35
				c-0.1-0.9-0.53,0.04-0.82-0.03C675.81,1119.14,675.8,1119.02,675.84,1118.9z"/>
		</g>
		<g>
			<path class="st7" d="M469.45,1178.33c-1.09-3.07-1.55-6.29-2.26-9.45c-0.09-0.39-0.5-1.01-0.76-1c-2.22,0.04-2.01-1.67-2.09-2.98
				c-0.06-1.02-0.69-1.75-0.92-2.66c-0.23-0.91,0-1.82,0.65-2.16c0.72-0.38,1.02,0.59,1.35,1.12c0.22,0.35,0.51,0.51,0.89,0.56
				c2.09,1.74,3.11,4.19,4.27,6.53c0.71,1.43,1.84,2.5,2.85,3.67c0.54,0.62,1.37,1.18,0.94,2.24c-0.37-0.18-0.77-0.64-1.12-0.09
				c-0.23,0.36-0.04,0.74,0.44,0.77c0.45,0.03,0.69,0.26,0.77,0.64c0.61,3.05,3.53,4.69,4.56,7.56c0.36,0.99,1.28,2.22,2.62,2.64
				c0.05,0.15,0.1,0.29,0.14,0.44c0.01,1.96,1.34,3.45,2.03,5.13c0.54,1.31,1.25,2.48,1.46,3.96c0.35,2.48,1.95,4.66,1.86,7.29
				c-0.08,2.6,0.75,5.17,0.22,7.78c-0.57,2.78-1.38,5.48-2.58,8.06c-0.35,0.75-0.9,0.87-1.41,0.5c-1.56-1.16-2.87-0.58-4.27,0.33
				c-0.81,0.53-0.98-0.18-1.07-0.81c0.67-0.96,1.35-1.92,2.02-2.88c0.52-0.13,0.6-0.51,0.54-0.97c1.59-3.97,2.73-8.03,1.3-12.28
				c-0.85-2.52-2.01-4.92-3-7.39c-1.53-3.86-4.25-7.07-5.9-10.87c0.38-2.56-1.55-3.59-3.19-4.81
				C469.37,1179.02,469.37,1178.69,469.45,1178.33z"/>
		</g>
		<g>
			<path class="st7" d="M344.33,1054.99c-1.12,1.24-2.1,2.52-0.86,4.24c0.18,0.25,0.18,0.78,0.01,0.75
				c-2.57-0.45-1.34,2.35-2.92,2.97c1.37,0.25,2.43,0.44,3.49,0.63c-1.08,0.45-2.18,0.25-3.27,0.05c-5.73-1.08-9.89-4.41-12.95-9.19
				c-0.85-1.33-1.86-1.74-3.3-1.7c-2.29,0.07-4.57,0.45-6.86,0.12c1.15-0.94,2.03-2.2,3.44-2.83c0.39-0.17,0.89-0.52,0.67-1
				c-0.27-0.57-0.98-0.57-1.32-0.18c-0.83,0.92-2.14,1.07-3,1.15c-2.52,0.22-5.04,0.37-7.51,0.95c-2.14,0.5-2.55,1.5-1.92,3.53
				c0.5,1.63,1.66,2.75,2.52,4.11c2.57,4.06,4.56,8.49,7.66,12.22c0.63,0.75,1.18,1.51,1.1,2.56l-0.17,0.13
				c-2.56-2.99-4.67-6.28-6.74-9.63c-0.98-1.58-1.69-3.41-2.99-4.73c-1.46-1.47-1.87-3.53-3.24-5.04c-0.61-0.68,0.01-1.85,0.06-2.79
				c0.07-1.47,1.27-0.75,1.95-1.07c3.36-1.61,7.06-2.03,10.6-2.82c1.98-0.44,3.81-1.74,5.97-1.39c2.64,0.43,4.84,1.92,7.24,2.94
				c3.09,1.32,5.7,3.5,8.88,4.71C342.01,1054.09,343.01,1054.95,344.33,1054.99z"/>
		</g>
		<g>
			<path class="st7" d="M625.33,1079.25c0.86,0.03,1.72,0.05,2.75,0.08c-0.81,1.43-1.04,3.09-2.44,4.1c-1.41,1.02-1.83,2.08,0,3.18
				c-2.42,1.11-3.69,3.09-5.12,5.23c-0.07-0.66-0.13-1.18-0.18-1.7c0.06-0.36,0.08-0.74,0.18-1.09c0.27-0.87,1.16-1.72,0.3-2.63
				c-0.99-1.05-1.88,0.18-2.83,0.28c-2.79-0.06-4.96,1.79-7.5,2.48c-0.64,0.17-1.6,0.03-1.53,1.17c-0.62,0.55-1.56-0.02-2.15,0.62
				c-1.22-0.38-2.62-0.79-3.71-0.36c-2.91,1.15-5.81,1.2-8.81,0.74c-1.7-0.26-4.02,0.34-3.45-2.76c0.04-0.21-0.47-0.55-0.42-0.73
				c0.38-1.27-1.74-3.13,0.9-3.86c1.12-0.31,2,0.33,2.95,0.7c3.26,1.26,6.58,0.52,9.88,0.31c0.14-0.01,0.27-0.33,0.4-0.5
				c0.43,0.02,0.87,0.05,1.3,0.07c1.58,0.42,2.97,0.1,4.13-1.09c0.68,0.04,1.37,0.08,2.05,0.11c1.61,0.12,3.13-0.04,4.32-1.3
				c0,0-0.01,0.01-0.01,0.01c1.18-0.69,3.13,0.88,3.8-1.29C621.76,1080.08,623.78,1080.34,625.33,1079.25z"/>
		</g>
		<g>
			<path class="st7" d="M676.81,1125.79c-0.16,2.09-1.82,3.26-3.11,4.46c-2.2,2.04-3.97,4.64-6.81,5.92
				c-0.8,0.36-0.93,1.1-0.47,1.24c1.78,0.52,0.64,2.08,1.29,3.02c0.81-1.47,1.84-2.73,3.18-3.71c0.9-0.66,1.81-1.44,1.95,0.57
				c0.01,0.18,0.43,0.33,0.65,0.49c-0.89,2.14-3.05,2.97-4.61,4.4c-2.69,2.44-5.1,5.14-7.68,7.67c-2.18,2.15-4.4,4.27-6.27,6.65
				c-1.83,2.32-3.81,4.68-4.41,7.75c-0.9,0.03-0.54,1.16-1.24,1.41c-0.65-0.4-0.52-1.14-0.67-1.74c-0.18-0.72,1.28-1.94-0.27-2.11
				c-1.82-0.2-3.76-1.81-5.59,0.08c-0.42,0.43-0.62,1.79-1.5,0.88c-0.58-0.6,0-1.46,0.84-1.93c0.9-0.51,1.45-1.22,0.15-1.93
				c-1.39-0.77-0.37-2.01-0.65-2.99c0.3-2.71,2.47-4.03,4.19-5.68c0.37,0.05,0.75,0.18,1.1,0.13c1.98-0.31,2.66,1.02,2.38,2.46
				c-0.36,1.86,0.92,2.04,1.93,2.36c1.36,0.43,2.47,0.41,3.5-1.25c1.24-2,3.39-3.42,4.95-5.2c1.93-2.21,2.72-5.2,3.37-8.1
				c0.2-0.91,0.74-1.81,0.19-2.77c2.87-2.38,5.79-4.7,8.6-7.15C673.55,1129.17,675.14,1127.44,676.81,1125.79z M648.33,1158.9
				c-0.18-0.34-0.53-0.39-0.9-0.35c-0.46,0.04-0.66,0.36-0.57,0.77c0.07,0.33,0.38,0.43,0.7,0.31
				C647.88,1159.5,648.3,1159.46,648.33,1158.9z"/>
		</g>
		<g>
			<path class="st7" d="M296.03,1071.17c-0.48-0.03-0.98-0.63-1.43-0.1c-0.61,0.72,0.37,0.73,0.56,1.1
				c0.54,1.04-1.06,1.14-0.95,2.03c-1.57-0.11-2.49,1.01-3.52,1.9c-0.68,0.59-1.41-0.26-2.28,0.26c0.32-1.8-0.17-3.4-0.27-4.99
				c-0.17-2.77,1.15-5.36,2.06-7.93c0.54-1.53,0.96-3.1,1.2-4.63c0.24-1.57-1.02-1.4-2.07-0.84c-0.11,0.08-0.23,0.09-0.35,0.04
				c-0.97-0.19-1.93-0.37-2.98-0.57c0.5-1.09,2.28-0.09,2.04-1.36c-0.29-1.51-2.07-1.65-3.51-2.71c2.72,0.62,5.07,0.3,7.42,0.38
				c0.59,0.02,1.21,0.19,1.47-0.58c0.81,0.05,1.62,0.16,2.42,0.15c1.63-0.02,2.33,1.08,2.23,2.35c-0.36,4.92-0.91,9.83-1.4,14.74
				C296.64,1070.79,296.46,1071.09,296.03,1071.17z"/>
		</g>
		<g>
			<path class="st7" d="M373.78,1181.08c-3.41-0.54-6.05-4.3-6.6-7.56c-0.55-3.24-0.44-6.47,0.02-9.5
				c0.72-4.76,1.04-9.56,1.64-14.32c0.37-2.94,0.66-5.89,0.92-8.85c0.11-1.25,0.75-2.64-0.73-3.63c-0.19-0.13-0.19-0.73-0.1-1.05
				c1.23-3.99-0.55-7.9-0.36-11.91c0.14-2.98-1.13-6.04-1.86-9.05c-1.23-5.06-2.83-10.05-1.8-15.41c0.51-2.68,0.58-5.45,0.87-8.18
				c0.07-0.7-0.1-1.57,0.98-1.71c-0.42,4.48-0.99,8.96-1.18,13.45c-0.07,1.74,0.1,3.63,0.86,5.32c1.11,2.49,1.3,5.19,1.92,7.79
				c0.91,3.83,0.81,7.82,2.16,11.6c0.58,1.62,0.11,3.57,0.16,5.31c0.07,2.5,0.75,4.95,0.47,7.5c-1.07,9.65-1.91,19.33-3.02,28.97
				c-0.32,2.73,0.58,4.78,2.19,6.75C371.5,1178.08,372.92,1179.36,373.78,1181.08z"/>
		</g>
		<g>
			<path class="st7" d="M604.55,1084.51c-0.13,0.17-0.25,0.49-0.4,0.5c-3.3,0.21-6.62,0.96-9.88-0.31c-0.95-0.37-1.83-1.01-2.95-0.7
				c-2.64,0.73-0.52,2.59-0.9,3.86c-0.06,0.19,0.46,0.52,0.42,0.73c-0.57,3.1,1.75,2.5,3.45,2.76c3,0.45,5.9,0.41,8.81-0.74
				c1.09-0.43,2.49-0.03,3.71,0.36c-5.08,1.37-10.03,3.67-15.52,1.58c-2.26-0.86-3.86-2.25-5.3-4.12
				c-3.62-4.74-4.71-10.25-5.34-16.19c1.74,1.08,2.99,2.63,3.51,4.13c0.95,2.74,3.3,3.74,5.35,4.65c1.8,0.8,3.45,1.94,5.35,2.64
				c2.21,0.82,4.18,1.28,6.43,0.57C602.37,1083.88,603.48,1084.23,604.55,1084.51z M587.89,1084.85c-0.06-0.04-0.12-0.08-0.17-0.12
				C587.77,1084.78,587.83,1084.82,587.89,1084.85c0.05,0.04,0.11,0.08,0.17,0.12C588,1084.93,587.94,1084.89,587.89,1084.85z"/>
		</g>
		<g>
			<path class="st7" d="M663.19,1137.86c0.56,0.96,0.02,1.86-0.19,2.77c-0.65,2.9-1.44,5.89-3.37,8.1c-1.56,1.78-3.71,3.2-4.95,5.2
				c-1.03,1.65-2.14,1.67-3.5,1.25c-1.02-0.32-2.29-0.51-1.93-2.36c0.27-1.43-0.4-2.76-2.38-2.46c-0.35,0.05-0.73-0.08-1.1-0.13
				c0.36-0.47,0.63-1.06,1.09-1.38C652.29,1145.17,657.5,1141.16,663.19,1137.86z M650.54,1150.86c-0.03-0.12-0.03-0.3-0.11-0.34
				c-0.08-0.04-0.23,0.05-0.35,0.08c0.03,0.12,0.03,0.3,0.11,0.34C650.26,1150.98,650.42,1150.89,650.54,1150.86z"/>
		</g>
		<g>
			<path class="st7" d="M565.65,1083.96c1.11-1.21,0.63,0.46,1.3,0.64c0.06-2,2.07-3.34,1.53-5.62c-0.22-0.94,0.46-1.78,1.21-2.47
				c0.72-0.65,1.41-1.58,2.42-1c0.9,0.51-0.05,1.56,0.11,2.15c0.68,2.49-0.4,4.58-1.39,6.57c-1.24,2.5-0.41,5.03-0.69,7.53
				c-0.18,1.61-0.17,3.2-1.39,4.57c-0.78,0.87,0.03,1.9,0.42,2.85c0.51,1.27,1.3,2.57,0.28,3.97c-0.31,0.43-0.67,0.91-1.26,0.65
				c-0.61-0.28-0.14-0.81-0.03-1.15c0.42-1.36-0.29-2.43-0.82-3.54c-0.62-1.29-1.75-2.34-1.83-3.94c-0.73,4.21-0.82,8.47-1.92,12.57
				c-0.1,0.36-0.09,0.74-0.51,0.9c0.05-0.71,0.1-1.43,0.15-2.14c0.02-0.27,0.04-0.54,0.07-0.8c0.31-2.98,0.62-5.96,0.93-8.94
				c0.05-0.4,0.1-0.8,0.15-1.2c0.79-2-0.94-3.77-0.41-5.91C564.45,1087.72,564.72,1085.76,565.65,1083.96z"/>
		</g>
		<g>
			<path class="st7" d="M552.17,1212.52c-0.11-1.46-1.12-2.13-2.16-3.04c-2.02-1.76-4.74-2.54-6.42-4.71
				c4.38,1.28,7.76,3.95,10.19,7.73c3.29,5.12,7.18,9.83,10.24,15.11c0.4,0.7,0.81,1.49,1.43,1.96c1.73,1.29,0.69,2.24-0.27,3.18
				c-2.93,2.88-3.63,2.8-6.19-0.36c-0.99-1.23-2.07-2.33-2.6-3.9c-0.52-1.55-2.54-1.81-3.24-3.29c2.29-0.77,4.07-0.17,5.95,1.95
				c0.67,0.76,0.87,2.12,2.34,1.92c0.09,0.88,0.71,1.72,0.07,2.67c-0.84,1.25,0.33,1.42,1.03,1.4c1.24-0.02,2.27-2.18,1.57-3.2
				c-0.57-0.84-1.2-1.62-1.93-2.36c-1.15-1.17-2.43-2.33-2.81-4.14c-0.34-1.58-1.32-2.91-2.43-4.11
				C555.04,1217.28,553.51,1214.97,552.17,1212.52L552.17,1212.52z"/>
		</g>
		<g>
			<path class="st7" d="M632.96,1095.72c0.76-2.04,2.29-1.35,3.44-0.71c1.1,0.61,2.2,1.36,2.91,2.6c0.57,1,1.56,1.76,2.74,2.13
				c0.7,0.21,1.23,0.73,1.26,1.38c0.03,0.72-0.84,0.33-1.23,0.62c-0.77,0.57-1.56,1.12-2.33,1.68c-0.5,0.36-0.68,1.43-1.48,1.02
				c-0.69-0.35-0.87-1.2-1.13-2.01c-0.5-1.58-0.15-3.37-1.23-4.8c-0.27-0.36-0.48-0.75-0.98-0.82
				C634.62,1095.81,633.71,1095.91,632.96,1095.72z"/>
		</g>
		<g>
			<path class="st7" d="M538.88,1143.68c0.06-0.36-0.02-0.86,0.19-1.07c1.97-2.01,2.79-4.46,2.93-7.2c0.01-0.19,0.2-0.37,0.31-0.55
				c1.79,1.69,1.92-1.32,3.29-1.18c0.64,0.07,2.18-4.35,2.08-5.14c-0.21-1.77-1.73-3.25-1.11-5.19c1.55,0.57,1.14,2.36,2.06,3.32
				c-0.04,0.04-0.12,0.1-0.11,0.11c0.05,0.09,0.12,0.17,0.18,0.25c0,0,0.02-0.01,0.02-0.01c-0.03,0.49-0.29,1.06,0.4,1.33
				c0.11,3.36-2.08,5.53-4.06,7.81c-0.57-0.12-0.83,0.19-0.95,0.68c0.09,1.45-0.51,2.41-1.7,3.31
				C541.09,1141.14,540.62,1143.06,538.88,1143.68z"/>
		</g>
		<g>
			<path class="st7" d="M579.05,1065.27c0.08,1.26,0.65,2.8-1.66,2.61c-0.4-0.03-0.41,0.68-0.47,1.1c0,0,0.01-0.01,0.01-0.01
				c-0.53,0.03-1.33-0.3-1.18,0.74c0.1,0.68,0.27,1.49-0.35,1.83c-0.69,0.38,0.14,2.01-1.04,1.45c-0.78-0.37-1.9-1.04-1.47-2.58
				c0.52-1.84,2.09-3.21,2.15-5.21c0,0,0.04-0.03,0.04-0.03c0.15-0.13,0.29-0.26,0.44-0.39c0.46-0.1,0.92-0.21,1.38-0.31
				c0.55-0.21,1.05-0.04,1.53,0.24C578.63,1064.9,578.84,1065.08,579.05,1065.27z"/>
		</g>
		<g>
			<path class="st7" d="M571.74,1223.51c1.01,0.37,1.27,1.09,1.12,2.11c-0.2,1.39-0.35,2.8-0.4,4.21c-0.14,3.7-0.03,7.43,0.87,11
				c0.36,1.45,1.22,2.86,1.63,4.4c0.18,0.68,0.26,1.27,0.13,1.93c-2.33-5.14-3.97-10.33-3.35-16.19
				C571.99,1228.58,571.23,1226.01,571.74,1223.51z"/>
		</g>
		<g>
			<path class="st7" d="M481.62,1185.72c-1.34-0.42-2.26-1.65-2.62-2.64c-1.03-2.86-3.95-4.51-4.56-7.56
				c-0.08-0.38-0.32-0.62-0.77-0.64c-0.47-0.03-0.67-0.41-0.44-0.77c0.35-0.55,0.75-0.09,1.12,0.09c1.28,0.64,1.25,2.09,1.84,3.14
				c1.4,2.46,3.93,4.07,4.94,6.81C481.34,1184.67,481.88,1185.06,481.62,1185.72z"/>
		</g>
		<g>
			<path class="st7" d="M594.88,1233.9c0.25,2.11-1.67,2.31-2.84,2.86c-1.05,0.49-1.77,1.05-2.49,1.94c-1.67,2.07-4.2,3.3-5.75,5.54
				c-0.09,0.13-0.56-0.01-0.85-0.02C586.3,1240.06,589.58,1235.81,594.88,1233.9z"/>
		</g>
		<g>
			<path class="st7" d="M575.45,1164.31c0.15,2.56-1.63,4.3-2.9,6.16c-0.81,1.19-1.52,2.5-2.54,3.56c-0.55,0.57-1.12,1.2-2.06,1.09
				c1.54-3.21,4.13-5.7,5.91-8.75C574.3,1165.63,574.92,1165,575.45,1164.31z"/>
		</g>
		<g>
			<path class="st7" d="M412.88,1122.75c-0.06,5.25-0.87,10.43-1.57,15.61c-0.7-0.88-0.15-1.81-0.08-2.69
				c0.32-3.66,0.68-7.31,1.1-10.96C412.4,1124.05,412.02,1123.2,412.88,1122.75z"/>
		</g>
		<g>
			<path class="st7" d="M608.96,1090.35c-0.07-1.14,0.9-0.99,1.53-1.17c2.55-0.69,4.71-2.54,7.5-2.48
				C615.26,1088.59,612.4,1090.18,608.96,1090.35z"/>
		</g>
		<g>
			<path class="st7" d="M491.59,1137.44c3.18,1.74,4.81,4.45,5.06,8.04c-0.22-0.03-0.62-0.04-0.63-0.11
				C495.53,1142.17,493.47,1139.86,491.59,1137.44z"/>
		</g>
		<g>
			<path class="st7" d="M534.84,1148.37c0.68-1.87,1.95-3.27,3.55-4.41C537.66,1145.8,536.6,1147.37,534.84,1148.37z"/>
		</g>
		<g>
			<path class="st7" d="M616.36,1082.3c-1.19,1.26-2.71,1.42-4.32,1.3C613.14,1082.04,614.73,1082.1,616.36,1082.3z"/>
		</g>
		<g>
			<path class="st7" d="M496.68,1145.53c1.7,1.42,1.46,3.28,1.15,5.15c-0.24-0.13-0.71-0.31-0.7-0.37
				C497.55,1148.66,496.32,1147.16,496.68,1145.53z"/>
		</g>
		<g>
			<path class="st7" d="M620.15,1081.03c-0.68,2.17-2.62,0.6-3.8,1.29C617.45,1081.41,618.49,1080.32,620.15,1081.03z"/>
		</g>
		<g>
			<path class="st7" d="M497.91,1151.06c1.07,1.56,1.58,3.34,2.11,5.12C498.65,1154.74,498.09,1152.98,497.91,1151.06z"/>
		</g>
		<g>
			<path class="st7" d="M465.38,1134.58c0.8-0.96,1.02-2.68,2.9-2.21C467.52,1133.38,466.78,1134.42,465.38,1134.58z"/>
		</g>
		<g>
			<path class="st7" d="M388.11,1149.86c-0.65,0.37-1.35,0.4-2.06,0.31c0.12-0.57-0.2-1.38,0.8-1.49
				C387.75,1148.57,387.86,1149.29,388.11,1149.86z"/>
		</g>
		<g>
			<path class="st7" d="M609.99,1083.49c-1.16,1.19-2.55,1.5-4.13,1.09C607.11,1083.76,608.64,1083.95,609.99,1083.49z"/>
		</g>
		<g>
			<path class="st7" d="M578.26,1251.88c0.87,0.09,1.74,0.18,2.61,0.26C579.89,1253.18,579.02,1253.13,578.26,1251.88z"/>
		</g>
		<g>
			<path class="st7" d="M576.67,1249.95c1.43-0.11,1.93,0.55,1.58,1.91C577.39,1251.5,576.84,1250.88,576.67,1249.95z"/>
		</g>
		<g>
			<path class="st7" d="M676.47,1122.01c1.46,0.59,0.58,1.64,0.48,2.53C676.24,1123.81,676.23,1122.93,676.47,1122.01z"/>
		</g>
		<g>
			<path class="st7" d="M575.7,1247.99c1.35,0.13,1.06,1.06,0.93,1.91C575.47,1249.67,576.3,1248.48,575.7,1247.99z"/>
		</g>
		<g>
			<path class="st7" d="M319.9,1075.31c-1.02-0.28-0.76-1.11-0.77-1.82c0,0,0.17-0.13,0.17-0.13c0.87,0.36,0.58,1.19,0.75,1.84
				L319.9,1075.31z"/>
		</g>
		<g>
			<path class="st7" d="M675.88,1119.25c0.28,0.07,0.72-0.87,0.82,0.03c0.08,0.77-0.15,1.57-0.25,2.35
				C676.01,1120.9,675.98,1120.07,675.88,1119.25z"/>
		</g>
		<g>
			<path class="st7" d="M578.42,1064.71c-0.48-0.29-0.97-0.45-1.53-0.24C577.54,1063.68,578.1,1063.5,578.42,1064.71z"/>
		</g>
		<g>
			<path class="st7" d="M533.79,1150c0.02-0.63,0.25-1.15,0.75-1.54C534.35,1149,534.93,1149.92,533.79,1150z"/>
		</g>
		<g>
			<path class="st7" d="M411.96,1139.38c-0.04,0.81-0.09,1.62-0.13,2.44C411.26,1140.97,411.73,1140.18,411.96,1139.38z"/>
		</g>
		<g>
			<path class="st7" d="M532.8,1151.5c0.05-0.55-0.06-1.17,0.65-1.41C533.36,1150.62,533.77,1151.37,532.8,1151.5z"/>
		</g>
		<g>
			<path class="st7" d="M564.39,1095.56c-0.05,0.4-0.1,0.8-0.15,1.2C563.67,1096.28,563.4,1095.84,564.39,1095.56z"/>
		</g>
		<g>
			<path class="st7" d="M549.12,1128.35c-0.7-0.27-0.43-0.84-0.4-1.33C549.65,1127.22,549.37,1127.79,549.12,1128.35z"/>
		</g>
		<g>
			<path class="st7" d="M650.2,1167.33c-0.39-0.07-0.79-0.26-0.76-0.66c0.04-0.52,0.52-0.33,0.86-0.33
				C650.26,1166.67,650.23,1167,650.2,1167.33z"/>
		</g>
		<g>
			<path class="st7" d="M413.98,1120.37c-0.12,0.68,0.08,1.44-0.5,2C413.59,1121.69,413.25,1120.89,413.98,1120.37z"/>
		</g>
		<g>
			<path class="st7" d="M580.92,1252.11c0.05-0.57,0.38-0.82,0.94-0.78C581.79,1251.9,581.51,1252.19,580.92,1252.11z"/>
		</g>
		<g>
			<path class="st7" d="M544.11,1136.84c0.12-0.5,0.38-0.8,0.95-0.68C544.98,1136.71,544.56,1136.8,544.11,1136.84z"/>
		</g>
		<g>
			<path class="st7" d="M614.24,1233.02c-0.71,0.68-0.82,0.19-0.85-0.44C613.8,1232.49,614.12,1232.57,614.24,1233.02z"/>
		</g>
		<g>
			<path class="st7" d="M391.85,1151.62c-0.4-0.04-0.69-0.2-0.75-0.63C391.85,1150.61,391.93,1151.02,391.85,1151.62z"/>
		</g>
		<g>
			<path class="st7" d="M563.31,1105.7c-0.02,0.27-0.04,0.54-0.07,0.8C562.78,1106.2,562.71,1105.92,563.31,1105.7z"/>
		</g>
		<g>
			<path class="st7" d="M385.88,1150.29c-0.11,0.5-0.46,0.65-0.92,0.63C385,1150.32,385.43,1150.29,385.88,1150.29z"/>
		</g>
		<g>
			<path class="st7" d="M576.51,1162.62c-0.03,0.5-0.04,1.01-0.65,1.2C575.82,1163.28,576.03,1162.88,576.51,1162.62z"/>
		</g>
		<g>
			<path class="st7" d="M641.24,1156.03c-0.02,0.56,0.05,1.17-0.77,1.24C640.6,1156.79,640.51,1156.16,641.24,1156.03z"/>
		</g>
		<g>
			<path class="st7" d="M393.19,1152.23c-0.12,0.01-0.21-0.04-0.28-0.15c0.1-0.04,0.2-0.09,0.29-0.13
				C393.2,1152.04,393.2,1152.13,393.19,1152.23z"/>
		</g>
		<g>
			<path class="st7" d="M390.23,1150.52c-0.12-0.14-0.24-0.28-0.36-0.42C390.22,1150.05,390.28,1150.24,390.23,1150.52z"/>
		</g>
		<g>
			<path class="st7" d="M464.48,1135.12c0.13-0.14,0.25-0.27,0.38-0.41C464.73,1134.85,464.6,1134.99,464.48,1135.12z"/>
		</g>
		<g>
			<path class="st7" d="M575.88,1163.79c-0.13,0.16-0.26,0.32-0.39,0.48C575.48,1164,575.6,1163.84,575.88,1163.79z"/>
		</g>
		<g>
			<path class="st7" d="M500.03,1156.19c0.05,0.11,0.11,0.22,0.14,0.34c0.01,0.02-0.11,0.08-0.17,0.12
				C500.01,1156.5,500.02,1156.35,500.03,1156.19z"/>
		</g>
		<g>
			<path class="st7" d="M575.52,1064.78c-0.15,0.13-0.29,0.26-0.44,0.39C575.12,1064.92,575.22,1064.74,575.52,1064.78z"/>
		</g>
		<g>
			<path class="st7" d="M576.87,1162.04c-0.11,0.18-0.23,0.35-0.34,0.53C576.5,1162.3,576.6,1162.12,576.87,1162.04z"/>
		</g>
		<g>
			<path class="st7" d="M548.7,1127.03c-0.06-0.08-0.13-0.16-0.18-0.25c-0.01-0.01,0.07-0.07,0.11-0.11
				C548.73,1126.78,548.75,1126.9,548.7,1127.03z"/>
		</g>
		<g>
			<path class="st7" d="M213.01,1165.82c0.08,0.12,0.09,0.25,0.04,0.38c-0.12,1.17-0.55,2.42-0.28,3.49
				c0.54,2.17,0.61,4.41,1.14,6.55c0.45,1.81,0.15,3.62,0.45,5.39c0.88,5.33,2.4,10.54,2.67,15.98c0.05,1,0.53,0.05,0.8,0.07
				c0.21,1.07,0.42,2.13,0.64,3.2c1.29,0.84,1.35,2.48,1.54,3.6c0.26,1.54-1.8,1.82-2.93,1.96c-1.65,0.2-3.27,0.68-4.7,1.21
				c-2.06,0.76-3.61,0.15-5.37-0.47c-0.64-0.23-0.71-0.57-0.7-1.15c0.13-6.51-0.89-12.93-1.56-19.38c-0.4-3.89-0.04-7.92-0.9-11.69
				c-0.97-4.24-1.36-8.56-1.77-12.78c-0.35-3.67-1.29-7.33-1.06-11.06c0.13-2.14-0.44-4.18-0.86-6.23
				c-0.11-0.52-0.21-1.01-0.13-1.52c0.24-1.42,0.11-2.68-0.68-4.01c-1.02-1.72-0.83-3.92-0.86-5.75c-0.05-3.21-0.67-6.26-1.12-9.39
				c-0.63-4.36-1.4-8.71-1.49-13.13c0-0.14,0.13-0.37,0.07-0.42c-2.3-2.13-0.58-5.4-2.21-7.7c-0.67-0.94-0.45-2.1-0.74-3.13
				c-1.22-4.36-2.31-8.77-1.6-13.43c0.53-3.44,0.7-6.94,1.07-10.41c0.18-1.66,1.91-3.37,3.3-3.26c0.94,0.07,2.08,0.16,0.84,1.52
				c-0.19,0.21-0.46,0.61-0.38,0.75c1.31,2.29,0.73,4.33-0.65,6.35c-0.26,0.38-0.06,1.4,0.34,1.35c1.8-0.24,1.25,1.15,1.29,1.86
				c0.21,3.62,1.37,7.16,0.96,10.83c-0.2,1.73,1.74,2.56,1.8,4.18l-0.02,0.01c-2.16,0.94,0.17,2.23-0.23,3.42
				c-0.29,0.88-1.49,2.02,0.35,3.16c2.53,1.56,2.71,4.6,2.77,7.19c0.05,1.94,1.63,3.86,0.25,5.83c2.56,3.2,0.59,7.55,2.74,10.86
				c0.21,0.32,0.29,0.86-0.41,1c-0.59,0.12-0.94,0.09-1.07-0.65c-0.15-0.84-0.52-1.59-1.73-1.18c0.63,1.39,1.15,2.8,1.88,4.1
				c1.01,1.81-1.25,2.7-1.05,4.24c0.19,0.3,0.45,0.31,0.76,0.23c2.31-0.59,2.75-0.24,3.36,1.97c0.54,1.95,0.66,3.86,0.33,5.83
				c-0.1,0.57-0.27,1.21,0.19,1.71c1.24,1.35,1.15,2.93,0.96,4.59c-0.21,1.88,1.4,3.22,1.49,5.17c0.12,2.51,1.23,4.95,1.4,7.53
				C211.98,1165.17,212.26,1165.76,213.01,1165.82z"/>
		</g>
		<g>
			<path class="st7" d="M360.55,1215.82c-0.01,1.61,1.36,1.36,2.25,1.55c6.65,1.4,13.12,0.29,19.51-1.6
				c5.06-1.49,9.93-3.51,14.72-5.7c4.96-2.26,9.74-1.78,14.79,0.11c3.67,1.37,6.9,3.33,9.98,5.54c3.77,2.71,7.84,4.81,11.89,7
				c0.31,0.17,0.53,0.49,0.79,0.74c0.6,0.41,1.2,0.82,1.9,1.29c-0.76,0.41-1.39,0.73-2,1.09c-0.77,0.45-0.97,1.08-0.28,1.72
				c0.25,0.23,1.21-0.34,0.84,0.63c-0.18,0.45-0.75,0.7-1.33,0.56c-3.52-0.84-7-1.76-10.44-2.96c-2.45-0.86-4.95-1.58-7.27-2.78
				c-2.69-1.39-5.65-2.01-8.15-4.15c-1.47-1.26-4.11-2.63-6.35-2.38c-3.31,0.36-6.77-0.87-9.98,1c-1.06,0.62-2.58-0.3-3.88,0.71
				c-0.63,0.49-1.22,0.96-1.7,1.59c-3.02-0.14-5.81,0.72-8.68,1.61c-5.7,1.77-11.56,1.4-17.36,0.34c-0.95-0.17-1.68-1.16-2.79-1.19
				c-0.16,0-0.46-0.26-0.46-0.4c0.08-3.05-0.91-6.1-0.09-9.16c0.11-0.42,0.45-0.51,0.82-0.63c1.62-0.52,1.3-1.41,0.23-2.12
				c-0.86-0.57-0.9-1.15-0.39-1.82c0.5-0.67,1.14-0.42,1.78-0.05c1.84,1.08,2.65,3.67,2.02,5.71
				C360.56,1213.26,360.66,1214.57,360.55,1215.82z"/>
		</g>
		<g>
			<path class="st7" d="M283.51,1197.27c0.47,0.36,1.41,0.23,1.41,1.12c0,0.59-0.57,0.58-1.01,0.54c-0.6-0.05-1.24-0.16-1.3-0.91
				C282.55,1197.47,282.96,1197.27,283.51,1197.27z"/>
		</g>
		<g>
			<path class="st7" d="M370.93,1210.51c-1.23-0.52-1.8,0.52-2.43-0.19c-0.14-0.16-0.13-0.71-0.02-0.78
				C369.26,1209.1,369.87,1209.48,370.93,1210.51z"/>
		</g>
		<g>
			<path class="st7" d="M365.02,1203.87c-0.06,0.11-0.11,0.3-0.2,0.32c-0.09,0.03-0.29-0.09-0.32-0.18
				c-0.02-0.09,0.09-0.29,0.18-0.32C364.77,1203.67,364.91,1203.8,365.02,1203.87z"/>
		</g>
		<g>
			<path class="st7" d="M199.97,1099.56c0.06,0.04,0.11,0.08,0.17,0.13c-0.06-0.04-0.12-0.08-0.19-0.11
				C199.95,1099.57,199.97,1099.56,199.97,1099.56z"/>
		</g>
		<g>
			<path class="st7" d="M365.27,1184.86c-2.73-3.36-5.21-6.9-7.84-10.33c-1.4-1.83-0.96-4.48-1.05-6.82
				c-0.29-7.78,1.01-15.48,1.04-23.25c0.03-9.96-0.5-19.84-3.02-29.53c-0.05-0.2,0.03-0.44,0.05-0.65c2.52,1.7,2.57,4.53,2.81,7.03
				c0.38,3.98,0.43,8.04,0.87,11.99c0.52,4.67-0.17,9.36,0.45,13.89c0.46,3.34-0.92,6.74,0.66,10.01c0.42,0.87-0.19,2.28-0.44,3.42
				c-0.3,1.4,0.07,2.56,0.91,3.6c0.83-0.04,0.36-1.57,1.33-1.13c0.9,0.41,0.05,1.15,0.08,1.74c0.09,1.39-1.57,3.35,1.19,3.94
				c0.07,2.29,2.68,4.36,0.57,6.85c-0.33,0.39-0.46,1.35-0.07,1.38c2.34,0.22,1.7,1.86,1.99,3.31
				C365.1,1181.84,365.7,1183.28,365.27,1184.86z"/>
		</g>
		<g>
			<path class="st7" d="M352.48,1107.28c0.1-7.4-0.05-14.84,3.01-21.83C353.46,1092.58,353.44,1099.99,352.48,1107.28z"/>
		</g>
		<g>
			<path class="st7" d="M354.45,1114.23c-0.67-1.13-0.82-2.4-1.05-3.66C355.94,1111.16,354.19,1112.98,354.45,1114.23z"/>
		</g>
		<g>
			<path class="st7" d="M353.13,1109.6c-0.68-0.62-0.79-1.41-0.64-2.26C353.85,1107.77,353.1,1108.79,353.13,1109.6z"/>
		</g>
		<g>
			<path class="st7" d="M366.68,1086.53c0.19,0.49-0.04,0.82-0.37,1.15C366.2,1087.21,366.12,1086.78,366.68,1086.53z"/>
		</g>
		<g>
			<path class="st7" d="M347.79,1063.11c-0.44,0.48-0.96,0.53-1.53,0.29C346.63,1062.58,347.22,1062.91,347.79,1063.11z"/>
		</g>
		<g>
			<path class="st7" d="M346.29,1063.38c-0.14,0.27-0.34,0.33-0.61,0.21C345.82,1063.36,346.02,1063.27,346.29,1063.38z"/>
		</g>
		<g>
			<path class="st7" d="M344.8,1063.6c-0.15-0.01-0.3-0.02-0.46-0.03C344.52,1063.21,344.68,1063.2,344.8,1063.6z"/>
		</g>
		<g>
			<path class="st7" d="M353.38,1110.32c-0.25-0.17-0.32-0.4-0.23-0.68C353.41,1109.81,353.48,1110.04,353.38,1110.32z"/>
		</g>
		<g>
			<path class="st7" d="M429.33,1161.52c2.29,4.29,5.06,8.39,6.47,13.08c2.15,7.15,0.74,15.07-6.45,19.15
				c-3.33,1.89-6.58,3.69-10.51,3.77c0.36-0.33-1.51-0.95,0.14-1.1c3.81-0.35,6.61-2.54,9.45-4.85c1.2-0.97-0.41-1.89,0.5-2.7
				c0.97-0.87,1.72,1.21,2.74-0.01c0.65-0.78,1.52-1.15,0.87-2.48c-0.51-1.03,0.78-1.94,0.52-3.39c-0.31-1.71-0.85-3.56-0.63-5.38
				c0.13-1.04-0.46-1.82-1.04-2.34c-1.31-1.19-1.16-2.53-1.04-4.04c0.21-2.74,0.14-5.47-1.47-7.89
				C428.38,1162.58,428.45,1161.94,429.33,1161.52z"/>
		</g>
		<g>
			<path class="st7" d="M426.78,1117.44c-0.74,1.94-2.48,3.06-3.74,4.57C422.55,1119.06,425.13,1118.63,426.78,1117.44z"/>
		</g>
		<g>
			<path class="st7" d="M417.18,1197.75c-0.21,0.24-0.46,0.27-0.75,0.16C416.69,1197.85,416.94,1197.8,417.18,1197.75z"/>
		</g>
		<g>
			<path class="st7" d="M428.08,1159.09c0.1,0.21,0.2,0.42,0.3,0.63C428.27,1159.51,428.17,1159.3,428.08,1159.09z"/>
		</g>
		<g>
			<path class="st7" d="M428.38,1159.74c0.26,0.07,0.35,0.25,0.29,0.5C428.57,1160.08,428.48,1159.91,428.38,1159.74z"/>
		</g>
		<g>
			<path class="st7" d="M428.71,1160.35l0.16,0.11c0,0-0.07,0.17-0.07,0.17C428.72,1160.56,428.69,1160.47,428.71,1160.35z"/>
		</g>
		<g>
			<path class="st7" d="M302.16,1179.43c-12.12-6.12-10.25-17.37-2.92-25.32c0.13,1.17-0.1,2.13-1.13,2.91
				c-1.05,0.79-1.72,1.74-0.1,2.73c0.61,0.37,0.57,0.59,0,1.27c-0.98,1.16-2.81,2.26-1.56,4.31c0.11,0.18,0.1,0.47,0.24,0.59
				c2.37,1.96,2.5,2.28,2.33,5.56c-0.04,0.8,0.28,1.26,1.19,1.14c0.66-0.08,1.33-0.15,1.98-0.11c0.86,0.06,1.62,0.9,0.96,1.35
				C300.79,1175.48,301.84,1177.47,302.16,1179.43z"/>
		</g>
		<g>
			<path class="st7" d="M306.45,1190.43c1.01-1.38,2.4-0.44,3.61-0.57C309.12,1191.65,307.66,1190.24,306.45,1190.43z"/>
		</g>
		<g>
			<path class="st7" d="M345.8,1191.24c-0.32-0.04-0.57-0.12-0.45-0.38c0.07-0.15,0.33-0.23,0.52-0.28
				c0.07-0.02,0.28,0.22,0.26,0.26C346.04,1191.01,345.89,1191.14,345.8,1191.24z"/>
		</g>
		<g>
			<path class="st7" d="M552.17,1212.52c-0.03,0.05-0.07,0.1-0.1,0.15C552.1,1212.62,552.14,1212.57,552.17,1212.52L552.17,1212.52z
				"/>
		</g>
		<g>
			<path class="st7" d="M519.92,1149.67c0.15-1.74,0.52-3.37,2.22-4.31C521.78,1146.99,520.82,1148.32,519.92,1149.67z"/>
		</g>
		<g>
			<path class="st7" d="M519.25,1151.42c-0.01-0.67,0.06-1.31,0.66-1.74C519.89,1150.33,519.97,1151.03,519.25,1151.42z"/>
		</g>
		<g>
			<path class="st7" d="M518.67,1153.14c-0.01-0.55,0.03-1.09,0.52-1.46C519.25,1152.24,519.3,1152.81,518.67,1153.14z"/>
		</g>
		<g>
			<path class="st7" d="M568.31,1110.23c-0.02,0.37-0.13,0.76-0.04,1.1c0.96,3.59,0.3,5.62-2.81,7.8c-1.17,0.82-2,1.63-1.97,3.17
				c0.04,2.21-2.02,3.1-3.34,4c-2.51,1.71-3.83,4.04-4.8,6.66c-0.39,1.05-0.43,1.79-1.85,1.9c-0.9,0.07-1.73,1-2.72,1.62
				c-0.81-1.81,0.31-3.3,1.28-4.31c2.27-2.37,3.63-5.29,5.21-8.02c2-3.47,4.49-6.72,5.44-10.76c0.3-1.25,2.04-1.73,2.2-3.2
				c1.13,0.4,2.25,0.6,3.38,0.01L568.31,1110.23z"/>
		</g>
		<g>
			<path class="st7" d="M568.28,1110.19c0.12-0.46,0.25-0.93,0.37-1.39c0.16,0.11,0.41,0.2,0.47,0.35c0.27,0.73-0.09,1.05-0.8,1.08
				C568.31,1110.23,568.28,1110.19,568.28,1110.19z"/>
		</g>
		<g>
			<path class="st7" d="M577.33,1069.46c0.38,0.08,0.72,0.19,0.45,0.68c-0.06,0.11-0.26,0.27-0.29,0.24
				C577.11,1070.14,577.37,1069.77,577.33,1069.46L577.33,1069.46z"/>
		</g>
		<g>
			<path class="st7" d="M546.32,1154.26c-0.06,0.13-0.11,0.25-0.17,0.38c-0.06-0.1-0.15-0.2-0.19-0.31
				c-0.02-0.05,0.04-0.13,0.07-0.2C546.13,1154.17,546.22,1154.21,546.32,1154.26z"/>
		</g>
		<g>
			<path class="st7" d="M577.33,1069.45c-0.13-0.16-0.27-0.33-0.4-0.49c0,0-0.01,0.01-0.01,0.01
				C577.06,1069.13,577.19,1069.3,577.33,1069.45C577.33,1069.46,577.33,1069.45,577.33,1069.45z"/>
		</g>
		<g>
			<path class="st7" d="M574.21,1202.36c1.1,1.58-0.02,3.17,0.01,4.76C573.37,1205.53,574.35,1203.94,574.21,1202.36z"/>
		</g>
		<g>
			<path class="st7" d="M578.24,1226.41c-0.04-0.62-0.23-1.26,0.44-1.58c0.31-0.15,0.6,0.14,0.64,0.43
				C579.44,1226.05,578.78,1226.15,578.24,1226.41z"/>
		</g>
		<g>
			<path class="st7" d="M573.06,1196.31c1.36,0.6,0.49,1.46,0.27,2.25C572.57,1197.89,573.09,1197.07,573.06,1196.31z"/>
		</g>
		<g>
			<path class="st7" d="M573.56,1199.66c1.13,0.71,0.23,1.65,0.29,2.49C573.05,1201.4,573.73,1200.48,573.56,1199.66z"/>
		</g>
		<g>
			<path class="st7" d="M317.67,1052.86c-1.11,0.06-1.59,0.46-1.2,1.69c1.06,3.27,2.81,6.22,4.24,9.31c1.34,2.88,3.34,5.4,4.38,8.42
				c-0.52,0.09-1.61-0.44-0.95,0.91c0.74,1.5,0.39,3.16,0.65,4.73c0.17,1.02-0.78,1.55-1.37,2.08c-0.43,0.38-1.51,0.2-1.4-0.72
				c0.24-1.87-0.93-2.91-1.99-4.06c-0.17-0.65,0.13-1.48-0.74-1.84c0.09-1.05-0.47-1.81-1.09-2.56c-3.1-3.73-5.09-8.15-7.66-12.22
				c-0.86-1.36-2.02-2.48-2.52-4.11c-0.62-2.03-0.22-3.03,1.92-3.53c2.47-0.58,4.99-0.73,7.51-0.95c0.86-0.08,2.18-0.23,3-1.15
				c0.34-0.38,1.06-0.39,1.32,0.18c0.22,0.48-0.28,0.83-0.67,1C319.7,1050.66,318.82,1051.92,317.67,1052.86z"/>
		</g>
		<g>
			<path class="st7" d="M325.83,1124.68c0.37,0.73,0.61,1.85,1.49,1.91c2.76,0.2,1.8,2.19,1.11,2.97c-1.09,1.25-0.26,3.03-1.58,4.03
				c-0.08,0.06-0.1,0.36-0.05,0.39c2.14,1.49,0.84,4.02,1.78,5.88c0.4,0.79,0.55,1.86,1.72,0.79c0.38-0.35,0.44-0.1,0.57,0.17
				c0.29,0.56,0.14,1.13-0.31,1.39c-3.1,1.82-1.97,4.42-1.33,6.93c0.21,0.82,0.22,1.62-0.32,2.32c-0.26,0.33-0.66,0.41-0.98,0.13
				c-0.61-0.54-1.23-1.12-1.18-2.04c0.18-3.68-0.3-7.25-1.53-10.74c-0.23-0.65,0.15-1.48,0.05-2.2c-0.22-1.54-0.32-3.05-0.82-4.62
				c-1.54-4.87-1.47-9.96-1.47-15.07c0-2.03,0.97-4.28-0.23-6.36c-0.25-0.44-0.04-1.16,0-1.75c0.17-2.21,0.64-4.4-0.09-6.62
				c-0.25-0.76-0.23-1.77,0.74-2.09c1.34-0.44,0.89,1.04,1.41,1.52c0.49,0.44,0.09,1.52,1.25,1.6c0.27,0.02,1.19,0.89,0.06,1.73
				c-0.78,0.58-0.58,1.69,0.07,2.6c0.75,1.05,0.83,2.31,0.04,3.32c-0.73,0.92-1.89,1.59,0.16,2.27c0.37,0.12,0.16,0.58-0.11,0.92
				c-1.05,1.3-0.93,3.09-1.16,4.53c-0.15,0.95,1.5,2.65,2.46,3.89c0.71,0.92,0.82,1.96,0.48,2.5
				C327.34,1126.18,326.98,1124.1,325.83,1124.68z M324.51,1103.03c-0.11-0.06-0.24-0.19-0.33-0.17c-0.09,0.02-0.13,0.21-0.2,0.32
				c0.11,0.06,0.24,0.2,0.33,0.17C324.4,1103.32,324.44,1103.14,324.51,1103.03z"/>
		</g>
		<g>
			<path class="st7" d="M464.82,1227.27c-0.17,1.69-0.89,2.47-2.7,2.2c-1.33-0.19-2.71-0.66-4.05,0.28c-0.49,0.34-1.33,0.2-1.7-0.55
				c-0.12-0.25-0.25-0.64-0.14-0.82c0.41-0.66,1.07-0.36,1.58-0.19C460.27,1228.99,462.4,1227.42,464.82,1227.27z"/>
		</g>
		<g>
			<path class="st7" d="M466.52,1227.35c-0.01,0.05,0,0.11-0.03,0.13c-0.04,0.03-0.11,0.02-0.16,0.02c0.02-0.08,0.03-0.15,0.05-0.23
				C466.42,1227.3,466.47,1227.33,466.52,1227.35z"/>
		</g>
		<g>
			<path class="st7" d="M457.93,1146.59c-1.18-0.35-0.76-1.25-0.63-1.99c0.11-0.65,0.65-0.78,1.18-0.54
				c0.68,0.31,0.54,0.81,0.06,1.18C458.09,1145.6,457.98,1146.07,457.93,1146.59L457.93,1146.59z"/>
		</g>
		<g>
			<path class="st7" d="M457.94,1146.59c1.04,0.32,0.84,0.9,0.42,1.64C457.56,1147.74,457.99,1147.11,457.94,1146.59
				C457.93,1146.59,457.94,1146.59,457.94,1146.59z"/>
		</g>
		<g>
			<path class="st7" d="M618.29,1237.1c0.58,0.71-0.91,2.56,1.38,2.51c0.14,0-0.96,1.93-1.07,3.17c-0.03,0.38-1.41,0.52-2.1-0.52
				c-0.63-0.94-1.71-1.59-2.6-2.35c-0.68-0.59-1.52-1.22-1.03-2.2c0.59-1.17,0.91-2.59,2.15-3.31c0.69-0.4,0.87,0.33,1.02,0.78
				c0.37,1.1,1.17,1.65,2.24,1.92L618.29,1237.1z"/>
		</g>
		<g>
			<path class="st7" d="M610.48,1236.52c-0.01-0.35,0.15-0.54,0.49-0.56c0.37-0.02,0.77-0.01,0.88,0.42
				c0.12,0.45-0.24,0.68-0.6,0.74C610.86,1237.18,610.59,1236.92,610.48,1236.52z"/>
		</g>
		<g>
			<path class="st7" d="M618.28,1237.09c0.07-0.28,0.11-0.6,0.48-0.61c0.07,0,0.23,0.2,0.22,0.27c-0.09,0.37-0.41,0.34-0.69,0.35
				C618.29,1237.1,618.28,1237.09,618.28,1237.09z"/>
		</g>
		<g>
			<path class="st7" d="M472.97,1184c-1.33-1.43-2.33-3.07-3.19-4.81C471.43,1180.41,473.36,1181.44,472.97,1184z"/>
		</g>
		<g>
			<path class="st7" d="M480.03,1215.52c0.03-0.4,0.18-0.75,0.54-0.97C480.63,1215.01,480.55,1215.39,480.03,1215.52z"/>
		</g>
		<g>
			<path class="st7" d="M648.33,1158.9c-0.03,0.56-0.45,0.6-0.78,0.73c-0.32,0.12-0.63,0.02-0.7-0.31
				c-0.09-0.41,0.11-0.73,0.57-0.77C647.8,1158.52,648.15,1158.56,648.33,1158.9z"/>
		</g>
		<g>
			<path class="st7" d="M587.89,1084.85c0.06,0.04,0.11,0.08,0.17,0.12C588,1084.93,587.94,1084.89,587.89,1084.85L587.89,1084.85z"
				/>
		</g>
		<g>
			<path class="st7" d="M587.88,1084.86c-0.06-0.04-0.11-0.08-0.17-0.12C587.77,1084.77,587.83,1084.81,587.88,1084.86
				C587.89,1084.85,587.88,1084.86,587.88,1084.86z"/>
		</g>
		<g>
			<path class="st7" d="M650.54,1150.86c-0.12,0.03-0.27,0.13-0.35,0.08c-0.08-0.04-0.08-0.22-0.11-0.34
				c0.12-0.03,0.27-0.13,0.35-0.08C650.51,1150.56,650.51,1150.74,650.54,1150.86z"/>
		</g>
		<g>
			<path class="st7" d="M217.83,1197.69c-0.28-0.02-0.76,0.93-0.8-0.07c-0.27-5.43-1.79-10.65-2.67-15.98
				c-0.29-1.77,0-3.58-0.45-5.39c-0.53-2.14-0.6-4.38-1.14-6.55c-0.27-1.08,0.16-2.32,0.28-3.49c1.31,4.55,1.79,9.25,2.45,13.92
				C216.34,1185.97,217.06,1191.83,217.83,1197.69z"/>
		</g>
		<g>
			<path class="st7" d="M324.51,1103.03c-0.06,0.11-0.11,0.29-0.2,0.32c-0.09,0.02-0.22-0.11-0.33-0.17
				c0.06-0.11,0.11-0.29,0.2-0.32C324.26,1102.83,324.4,1102.96,324.51,1103.03z"/>
		</g>
	</g>
</g>
</svg>
