<?xml version="1.0" standalone="no"?>
<!DOCTYPE svg PUBLIC "-//W3C//DTD SVG 20010904//EN"
 "http://www.w3.org/TR/2001/REC-SVG-20010904/DTD/svg10.dtd">
<svg version="1.0" xmlns="http://www.w3.org/2000/svg"
 width="256.000000pt" height="256.000000pt" viewBox="0 0 256.000000 256.000000"
 preserveAspectRatio="xMidYMid meet">
<metadata>
Created by potrace 1.15, written by Peter Selinger 2001-2017
</metadata>
<g transform="translate(0.000000,256.000000) scale(0.100000,-0.100000)"
fill="#000000" stroke="none">
<path d="M1105 2301 c-216 -62 -394 -243 -449 -457 -21 -81 -21 -247 0 -328
43 -167 168 -325 320 -404 101 -52 183 -72 301 -72 115 0 178 13 272 56 l74
34 64 -29 c283 -133 496 -422 538 -728 l7 -53 -952 0 -952 0 7 53 c18 128 83
297 158 407 17 25 66 82 109 127 68 71 78 86 78 118 0 25 -8 43 -25 60 -51 51
-116 21 -220 -101 -171 -201 -261 -421 -272 -665 -5 -109 -4 -118 16 -138 l21
-21 1080 0 1080 0 21 21 c20 20 21 29 16 138 -17 365 -225 703 -550 893 -39
23 -74 43 -76 44 -2 2 11 21 28 43 41 51 96 171 110 239 16 75 13 225 -4 301
-51 217 -241 408 -461 465 -84 22 -259 20 -339 -3z m314 -170 c110 -34 214
-119 273 -221 78 -134 78 -326 0 -460 -161 -278 -537 -324 -754 -92 -144 153
-171 376 -68 557 33 56 116 141 173 175 102 60 259 77 376 41z"/>
</g>
</svg>
