<?xml version="1.0" encoding="utf-8"?>
<!-- Generator: Adobe Illustrator 24.1.0, SVG Export Plug-In . SVG Version: 6.00 Build 0)  -->
<svg version="1.1" id="Layer_1" xmlns="http://www.w3.org/2000/svg" xmlns:xlink="http://www.w3.org/1999/xlink" x="0px" y="0px"
	 viewBox="0 0 1340.68 447.16" style="enable-background:new 0 0 1340.68 447.16;" xml:space="preserve">
<style type="text/css">
	.st0{fill:none;stroke:#000000;stroke-width:4;stroke-linecap:round;stroke-linejoin:round;stroke-miterlimit:10;}
	.st1{fill:none;stroke:#BB92C3;stroke-width:5;stroke-linecap:round;stroke-linejoin:round;stroke-miterlimit:10;}
	.st2{fill:none;stroke:#000000;stroke-width:5;stroke-linecap:round;stroke-linejoin:round;stroke-miterlimit:10;}
	.st3{stroke:#000000;stroke-width:3.8935;stroke-linecap:round;stroke-linejoin:round;stroke-miterlimit:10;}
	.st4{fill:#0E0F10;}
	.st5{fill:#101112;}
	.st6{fill:#DBD8D4;}
	.st7{fill:#0E0E0E;}
	.st8{stroke:#000000;stroke-width:1.6737;stroke-linecap:round;stroke-linejoin:round;stroke-miterlimit:10;}
	.st9{fill:none;stroke:#000000;stroke-width:1.6737;stroke-linecap:round;stroke-linejoin:round;stroke-miterlimit:10;}
	.st10{stroke:#000000;stroke-width:0.5;stroke-linecap:round;stroke-linejoin:round;stroke-miterlimit:10;}
	.st11{fill:#DEDBD7;stroke:#000000;stroke-width:1.6737;stroke-linecap:round;stroke-linejoin:round;stroke-miterlimit:10;}
	.st12{fill:#232323;}
	.st13{fill:none;stroke:#000000;stroke-width:5.9863;stroke-linecap:round;stroke-linejoin:round;stroke-miterlimit:10;}
	.st14{fill:#FFFFFF;}
	.st15{clip-path:url(#SVGID_2_);}
	.st16{fill:#DEDBD7;stroke:#DEDBD7;stroke-width:1.4797;stroke-linecap:round;stroke-linejoin:round;stroke-miterlimit:10;}
	.st17{fill:none;stroke:#DEDBD7;stroke-width:1.4797;stroke-linecap:round;stroke-linejoin:round;stroke-miterlimit:10;}
	.st18{fill:#DEDBD7;}
	.st19{fill:none;stroke:#000000;stroke-width:5.2786;stroke-linecap:round;stroke-linejoin:round;stroke-miterlimit:10;}
	.st20{fill:#DEDBD7;stroke:#DEDBD7;stroke-width:1.6737;stroke-linecap:round;stroke-linejoin:round;stroke-miterlimit:10;}
	.st21{fill:none;stroke:#DEDBD7;stroke-width:1.6737;stroke-linecap:round;stroke-linejoin:round;stroke-miterlimit:10;}
</style>
<g>
	<g>
		<g>
			<path class="st12" d="M1042.84,263.1c3.25-13.6,6.33-27.22,10.04-40.71c3.69-13.4,7.82-26.7,12.73-39.71
				c2.66-7.06,5.57-14.02,8.79-20.85c0.75-1.59,0.44-3.51-1.17-4.45c-1.4-0.82-3.71-0.44-4.45,1.17
				c-11.77,25.51-19.74,52.6-26.33,79.85c-1.86,7.68-3.7,15.39-5.29,23.13c-0.32,1.56,0.45,3.18,2.06,3.62
				C1040.71,265.57,1042.47,264.65,1042.84,263.1L1042.84,263.1z"/>
		</g>
	</g>
	<g>
		<g>
			<path class="st12" d="M1069.46,162.33c5.89,5.54,11.4,11.42,16.66,17.56c6.91,8.05,12.97,15.81,19.11,24.14
				c12.73,17.27,24.76,35.34,34.41,54.54c1.15,2.3,2.27,4.61,3.33,6.95c0.25,0.56,0.5,1.11,0.74,1.67c0.1,0.24,0.21,0.47,0.31,0.71
				c0.06,0.15,0.5,1.2,0.16,0.38c0.44,1.06,0.87,2.12,1.28,3.19c1.43,3.7,2.61,7.48,3.47,11.35c0.38,1.73,2.39,2.74,4.03,2.29
				c1.84-0.51,2.6-2.28,2.29-4.03c-1.36-7.8-4.85-15.36-8.26-22.44c-4.45-9.23-9.6-18.13-15.02-26.82
				c-5.96-9.54-12.3-18.85-18.92-27.94c-6.38-8.75-13.02-17.33-20.01-25.6c-5.48-6.48-11.16-12.87-17.43-18.59
				c-0.61-0.56-1.24-1.1-1.88-1.63c-1.25-1.04-3.04-1.23-4.27,0C1068.33,159.19,1068.27,161.21,1069.46,162.33L1069.46,162.33z"/>
		</g>
	</g>
	<g>
		<g>
			<path class="st12" d="M1053.27,218.53c14.82-5.6,30.61-7.27,46.07-10.25c4.6-0.89,9.22-1.83,13.73-3.12
				c4.02-1.15,2.33-7.35-1.73-6.27c-7.88,2.1-15.82,3.71-23.85,5.12c-7.71,1.36-15.44,2.66-23.04,4.6
				c-4.34,1.11-8.62,2.45-12.77,4.12c-1.5,0.61-2.56,2-2.1,3.69C1049.98,217.88,1051.75,219.1,1053.27,218.53L1053.27,218.53z"/>
		</g>
	</g>
	<g>
		<g>
			<path class="st12" d="M877.82,169.83c-29.28,0.57-58.43-4.02-87.7-2.82c-8.24,0.34-16.63,1.01-24.7,2.75
				c-1.73,0.37-2.74,2.39-2.29,4.03c0.51,1.86,2.28,2.57,4.03,2.29c7.01-1.13,13.98-2.05,21.07-2.43
				c7.11-0.38,14.24-0.38,21.35-0.19c14.59,0.4,29.14,1.61,43.72,2.25c8.17,0.36,16.35,0.55,24.52,0.29
				C881.78,175.88,881.81,169.75,877.82,169.83L877.82,169.83z"/>
		</g>
	</g>
	<g>
		<g>
			<path class="st12" d="M763.46,172.14c-2.44,11.64-3.99,23.55-5.53,35.34c-1.52,11.6-2.76,23.24-3.77,34.9
				c-0.57,6.58-1.16,13.17-1.45,19.77c-0.08,1.77,1.56,3.28,3.28,3.28c1.88,0,3.14-1.5,3.28-3.28c0.85-11.53,1.55-23.05,2.69-34.55
				c1.14-11.55,2.53-23.07,4.17-34.56c0.92-6.46,2.06-12.88,2.98-19.33c0.22-1.56-0.38-3.14-2.04-3.6
				C765.61,169.7,763.79,170.59,763.46,172.14L763.46,172.14z"/>
		</g>
	</g>
	<g>
		<g>
			<path class="st12" d="M753.49,270.12c9.44,3.44,19.87,4.67,29.84,5.47c10.57,0.84,21.22,0.82,31.81,0.12
				c5.77-0.38,11.51-0.99,17.23-1.79c1.77-0.25,2.73-2.5,2.31-4.06c-0.52-1.9-2.29-2.56-4.06-2.31c-4.39,0.63-9.48,1.18-14.23,1.54
				c-5.12,0.39-10.25,0.61-15.38,0.67c-10.07,0.1-20.33-0.39-30.2-1.93c-5.32-0.83-10.53-2.04-15.74-3.34
				c-1.53-0.38-3.17,0.49-3.6,2.04C751,268.14,752,269.57,753.49,270.12L753.49,270.12z"/>
		</g>
	</g>
	<g>
		<g>
			<path class="st12" d="M759.01,228.26c13.28,0.17,26.63-0.37,39.87-1.35c3.44-0.26,6.89-0.52,10.31-0.95
				c1.75-0.22,3.27-1.34,3.27-3.27c0-1.6-1.5-3.48-3.27-3.27c-13.23,1.59-26.56,2.28-39.87,2.65c-3.44,0.1-6.87,0.14-10.31,0.19
				C755.15,222.31,755.14,228.21,759.01,228.26L759.01,228.26z"/>
		</g>
	</g>
	<g>
		<g>
			<path class="st12" d="M926.68,163.12c-0.21,32.06-1.11,64.1-1.58,96.15c-0.13,9.13-0.34,18.27-0.21,27.4
				c0.06,4.2,6.49,4.21,6.53,0c0.16-16.11,0.13-32.21,0.38-48.32c0.25-15.94,0.55-31.88,0.7-47.83c0.09-9.13,0.15-18.27,0.06-27.4
				C932.52,159.34,926.71,159.33,926.68,163.12L926.68,163.12z"/>
		</g>
	</g>
	<g>
		<g>
			<path class="st12" d="M928.16,289.66c17.17,0.02,34.31-1.31,51.48-1.56c4.2-0.06,4.21-6.5,0-6.53
				c-8.36-0.07-16.75,0.57-25.1,1.03c-8.78,0.49-17.58,1.01-26.38,1.07C924.3,283.7,924.3,289.65,928.16,289.66L928.16,289.66z"/>
		</g>
	</g>
	<g>
		<g>
			<path class="st12" d="M585.5,160.38c4.52,6.21,9.57,12.08,14.62,17.86c5.36,6.14,10.89,12.12,16.47,18.05
				c11.4,12.1,23.09,23.92,34.55,35.97c5.91,6.22,11.64,12.58,17.42,18.92c1.19,1.31,3.43,1.21,4.64,0c1.34-1.34,1.15-3.29,0-4.64
				c-4.88-5.74-10.14-11.19-15.34-16.64c-5.62-5.89-11.3-11.72-16.99-17.55c-11.51-11.8-23.05-23.59-34.07-35.85
				c-5.76-6.41-11.23-13.01-16.66-19.7C588.05,154.21,583.52,157.66,585.5,160.38L585.5,160.38z"/>
		</g>
	</g>
	<g>
		<g>
			<path class="st12" d="M643.66,291.33c17.02-21.18,31.73-44.08,47.83-65.94c4.52-6.14,9.22-12.12,13.93-18.11
				c1.09-1.39,1.35-3.27,0-4.62c-1.16-1.16-3.49-1.36-4.62,0c-8.92,10.73-16.98,22.22-24.99,33.63
				c-7.82,11.14-15.48,22.39-23.44,33.44c-4.22,5.85-8.52,11.65-12.99,17.32c-1.01,1.29-1.25,3.03,0,4.29
				C640.44,292.39,642.63,292.62,643.66,291.33L643.66,291.33z"/>
		</g>
	</g>
	<g>
		<g>
			<path class="st12" d="M185.66,182.61c-0.2,25.74,5.06,51.15,8.93,76.48c1.08,7.09,2.07,14.19,2.78,21.33
				c0.17,1.73,1.36,3.22,3.22,3.22c1.59,0,3.42-1.48,3.22-3.22c-2.87-25.49-8.59-50.59-11.1-76.13c-0.71-7.21-1.14-14.44-1.21-21.68
				C191.47,178.85,185.69,178.84,185.66,182.61L185.66,182.61z"/>
		</g>
	</g>
	<g>
		<g>
			<path class="st12" d="M333.15,154.95c-22.35,2.67-44.93,3.15-67.19,6.59c-5.94,0.92-11.96,1.94-17.74,3.62
				c-3.98,1.16-2.32,7.18,1.71,6.21c5.17-1.24,10.31-2.45,15.55-3.34c5.29-0.9,10.62-1.59,15.95-2.17
				c11.01-1.2,22.07-1.97,33.1-2.93c6.22-0.54,12.43-1.14,18.61-1.94c1.62-0.21,3.02-1.24,3.02-3.02
				C336.17,156.49,334.78,154.76,333.15,154.95L333.15,154.95z"/>
		</g>
	</g>
	<g>
		<g>
			<path class="st12" d="M246.16,168.27c-1.54,14.41-0.94,29.03,0.41,43.43c1.39,14.91,3.67,29.71,5.99,44.5
				c1.28,8.15,2.48,16.31,3.71,24.47c0.26,1.72,2.43,2.67,3.96,2.25c1.86-0.51,2.49-2.23,2.25-3.96
				c-1.96-14.51-4.65-28.92-6.79-43.4c-2.11-14.35-3.83-28.78-4.28-43.28c-0.25-8.01-0.06-16.01,0.59-24
				c0.13-1.57-1.43-2.92-2.92-2.92C247.36,165.35,246.33,166.69,246.16,168.27L246.16,168.27z"/>
		</g>
	</g>
	<g>
		<g>
			<path class="st12" d="M252.14,235.61c12.85-0.22,26.37-2.31,38.03-7.93c1.57-0.76,1.99-2.99,1.16-4.41
				c-0.92-1.58-2.85-1.95-4.41-1.16c-5.2,2.64-11.18,4.28-17.07,5.44c-5.85,1.15-11.72,1.78-17.71,1.97
				C248.23,229.64,248.2,235.68,252.14,235.61L252.14,235.61z"/>
		</g>
	</g>
	<g>
		<g>
			<path class="st12" d="M366.58,196.17c0.8,9.05,1.95,18.08,2.82,27.13c0.91,9.52,1.72,19.05,2.38,28.59
				c0.38,5.45,0.67,10.9,0.96,16.36c0.09,1.7,1.38,3.16,3.16,3.16c1.64,0,3.24-1.45,3.16-3.16c-0.99-19.13-2.84-38.24-4.96-57.27
				c-0.58-5.19-1.1-10.4-1.85-15.57c-0.2-1.4-1.9-2.25-3.16-2.06C367.77,193.54,366.45,194.72,366.58,196.17L366.58,196.17z"/>
		</g>
	</g>
	<g>
		<g>
			<path class="st12" d="M437.23,274.85c3.09-10.16,3.72-21.1,3.8-31.66c0.08-11.23-0.65-22.44-1.19-33.65
				c-0.29-5.94-0.4-11.87-0.5-17.82c-0.07-4.1-6.31-4.11-6.38,0c-0.16,10.77,0.88,21.58,1.43,32.33
				c0.56,10.88,0.95,21.82,0.05,32.69c-0.46,5.61-1.39,11.12-2.81,16.57C430.68,276.93,436.14,278.42,437.23,274.85L437.23,274.85z"
				/>
		</g>
	</g>
	<g>
		<g>
			<path class="st12" d="M436.35,196.02c14.41,9.2,28.36,19.03,42.03,29.28c14.19,10.63,28.14,21.58,42.25,32.32
				c7.81,5.94,15.59,12.01,23.69,17.56c1.45,1,3.62,0.27,4.47-1.17c0.97-1.66,0.25-3.41-1.17-4.47c-6.99-5.21-14.1-10.26-21.06-15.5
				c-7.05-5.31-14.06-10.68-21.07-16.05c-13.97-10.68-27.95-21.37-42.34-31.48c-7.76-5.45-15.63-10.79-23.76-15.68
				C436.05,188.84,433.11,193.95,436.35,196.02L436.35,196.02z"/>
		</g>
	</g>
	<g>
		<g>
			<path class="st12" d="M548.41,273.79c2.1-3.86,3.11-8.48,4.12-12.72c1.2-5.01,2.11-10.09,2.9-15.18
				c1.74-11.29,2.88-22.69,3.54-34.09c0.32-5.52,0.7-11.11,0.56-16.65c-0.11-4.19-6.4-4.19-6.51,0c-0.13,4.84-0.11,9.68-0.34,14.53
				c-0.26,5.49-0.63,10.97-1.12,16.45c-0.96,10.71-2.22,20.89-4.48,31.44c-0.54,2.51-1.12,5.01-1.82,7.47
				c-0.62,2.21-1.42,4.36-2.01,6.57C542.44,274.65,546.84,276.66,548.41,273.79L548.41,273.79z"/>
		</g>
	</g>
</g>
</svg>
