<?xml version="1.0" standalone="no"?>
<!DOCTYPE svg PUBLIC "-//W3C//DTD SVG 20010904//EN"
 "http://www.w3.org/TR/2001/REC-SVG-20010904/DTD/svg10.dtd">
<svg version="1.0" xmlns="http://www.w3.org/2000/svg"
 width="512.000000pt" height="512.000000pt" viewBox="0 0 512.000000 512.000000"
 preserveAspectRatio="xMidYMid meet">
<metadata>
Created by potrace 1.15, written by Peter Selinger 2001-2017
</metadata>
<g transform="translate(0.000000,512.000000) scale(0.100000,-0.100000)"
fill="#000000" stroke="none">
<path d="M268 4365 c-52 -29 -58 -56 -58 -260 0 -118 4 -194 11 -208 20 -39
51 -57 99 -57 48 0 79 18 99 57 6 12 11 73 11 142 l0 121 233 0 232 0 395
-1018 c217 -559 419 -1079 449 -1155 45 -117 59 -142 85 -158 30 -18 70 -19
1238 -19 l1208 0 30 28 c25 23 77 151 320 789 159 420 290 774 290 787 0 35
-19 73 -46 91 -30 19 -3149 451 -3189 441 -15 -4 -38 -19 -51 -33 -42 -46 -26
-145 28 -170 13 -6 687 -102 1498 -213 811 -112 1479 -206 1483 -210 5 -5
-101 -296 -235 -649 l-243 -641 -1097 0 -1097 0 -29 78 c-544 1406 -866 2221
-888 2242 l-24 25 -363 2 c-307 2 -366 0 -389 -12z"/>
<path d="M2328 1684 c-87 -21 -156 -60 -224 -128 -232 -232 -165 -625 131
-766 289 -138 629 43 678 360 51 331 -258 614 -585 534z m237 -243 c87 -48
144 -157 130 -250 -21 -145 -163 -250 -296 -222 -65 14 -96 31 -141 78 -136
140 -65 374 127 424 49 13 126 0 180 -30z"/>
<path d="M3563 1686 c-139 -34 -258 -131 -320 -261 -32 -68 -37 -88 -41 -175
-4 -80 -1 -110 16 -167 59 -192 218 -321 420 -339 174 -16 362 84 451 239 59
104 77 242 46 362 -65 246 -324 401 -572 341z m183 -221 c27 -8 69 -31 92 -51
139 -119 115 -330 -48 -418 -128 -69 -284 -15 -346 119 -63 134 7 297 148 346
65 22 90 23 154 4z"/>
</g>
</svg>
