<?xml version="1.0" standalone="no"?>
<!DOCTYPE svg PUBLIC "-//W3C//DTD SVG 20010904//EN"
 "http://www.w3.org/TR/2001/REC-SVG-20010904/DTD/svg10.dtd">
<svg version="1.0" xmlns="http://www.w3.org/2000/svg"
 width="991.000000pt" height="402.000000pt" viewBox="0 0 991.000000 402.000000"
 preserveAspectRatio="xMidYMid meet">
<metadata>
Created by potrace 1.15, written by Peter Selinger 2001-2017
</metadata>
<g transform="translate(0.000000,402.000000) scale(0.100000,-0.100000)"
fill="#000000" stroke="none">
<path d="M4792 3763 c-20 -8 -52 -79 -52 -117 0 -27 17 -58 82 -148 44 -62 95
-132 111 -155 23 -33 31 -54 32 -95 1 -29 7 -96 13 -148 6 -52 13 -239 14
-415 3 -261 6 -325 18 -345 13 -21 15 -95 17 -445 1 -231 2 -444 3 -473 1 -70
25 -115 108 -203 37 -39 76 -90 87 -113 30 -62 64 -61 191 5 163 84 230 132
237 167 7 36 112 152 137 152 19 0 28 18 57 114 14 47 23 60 44 68 35 12 49
66 49 191 0 61 6 110 16 138 42 119 37 236 -18 367 -24 58 -44 87 -82 122
-133 121 -176 164 -176 179 0 9 -7 25 -15 35 -9 12 -15 42 -15 77 0 51 -3 59
-22 65 -30 9 -83 -49 -98 -108 -32 -128 -87 -202 -190 -257 -34 -18 -63 -31
-65 -29 -2 2 -8 39 -14 82 -7 61 -6 90 5 135 9 31 28 146 44 256 17 111 34
225 40 254 17 90 14 111 -15 111 -21 0 -25 5 -25 29 0 31 -4 34 -73 46 -30 5
-55 23 -121 88 -116 116 -162 181 -192 273 -15 44 -33 85 -42 92 -16 12 -65
15 -90 5z m695 -1466 c13 -6 60 -70 105 -142 l83 -130 0 -205 0 -205 -31 -66
c-17 -36 -62 -100 -99 -143 l-68 -77 -18 28 c-19 28 -42 85 -119 295 -42 116
-60 139 -87 117 -11 -9 -17 -8 -28 7 -20 26 -18 44 4 44 38 0 45 26 51 191 l5
158 50 52 c50 51 101 89 120 89 6 0 20 -6 32 -13z"/>
<path d="M3131 3489 c-81 -33 -157 -71 -173 -86 -38 -36 -38 -81 0 -125 16
-18 35 -46 43 -63 14 -29 18 -30 97 -37 46 -4 90 -12 97 -18 20 -17 163 -284
190 -357 l23 -61 -56 -54 c-31 -30 -79 -69 -107 -88 -27 -18 -67 -48 -89 -66
l-39 -33 -91 6 c-77 5 -93 3 -105 -11 -20 -24 -6 -95 33 -169 18 -34 44 -97
56 -141 23 -77 23 -82 11 -225 -7 -80 -16 -202 -20 -271 -6 -116 -8 -129 -37
-180 -24 -42 -38 -56 -60 -60 -20 -4 -30 -12 -32 -27 -4 -28 77 -93 174 -139
61 -29 90 -53 193 -160 110 -115 124 -126 148 -119 27 6 43 21 203 191 47 50
120 114 163 142 61 42 77 58 77 77 0 21 -5 25 -32 25 l-31 0 20 23 c49 53 70
151 54 253 -8 56 -8 80 4 124 20 75 39 334 32 451 -3 59 -11 108 -21 127 -19
37 -20 65 -4 91 9 15 8 32 -6 82 -10 35 -23 69 -30 74 -20 16 -144 230 -186
321 -21 46 -45 84 -52 85 -7 0 -25 23 -39 52 -114 232 -152 298 -184 323 -29
22 -35 33 -35 65 0 34 -3 39 -22 38 -13 0 -88 -27 -167 -60z m462 -973 c30
-32 36 -81 15 -119 -9 -16 -15 -114 -19 -342 -3 -176 -11 -356 -18 -400 -18
-122 -51 -258 -67 -275 -12 -12 -145 -63 -150 -57 -1 1 -20 34 -44 72 -41 68
-42 72 -36 135 5 50 2 82 -14 135 -17 58 -18 79 -10 130 5 33 10 97 10 142 0
110 21 210 80 389 l51 151 59 43 c45 33 60 50 60 68 0 24 1 24 28 -9 15 -19
39 -47 55 -63z"/>
<path d="M2100 2850 c-7 -16 -19 -35 -27 -42 -8 -7 -32 -37 -53 -68 -21 -31
-66 -85 -99 -121 -48 -50 -61 -70 -59 -91 4 -37 -36 -78 -75 -78 -40 0 -99
-61 -95 -98 3 -25 7 -26 61 -28 32 -1 61 -5 64 -8 3 -3 -2 -24 -12 -46 -18
-40 -18 -40 16 -172 29 -117 33 -149 34 -263 0 -151 -5 -165 -84 -236 -28 -26
-51 -54 -51 -62 0 -9 28 -45 63 -79 49 -49 67 -76 81 -118 10 -30 35 -85 57
-121 21 -36 39 -70 39 -77 0 -11 41 -38 50 -32 3 1 11 -9 18 -24 17 -35 84
-79 114 -74 14 2 28 15 37 33 33 71 97 118 222 160 l67 23 10 -23 c7 -15 21
-25 38 -27 24 -3 30 -11 48 -68 32 -98 45 -93 162 60 77 102 94 130 92 155 -3
26 -7 30 -32 30 -27 0 -31 6 -73 105 -65 153 -64 143 -38 281 28 148 68 499
63 554 -3 40 -3 40 -45 40 -23 0 -45 3 -49 8 -7 7 39 11 85 7 22 -2 40 13 41
33 0 4 -27 36 -59 71 -54 58 -101 130 -101 155 0 6 -9 35 -21 66 -23 63 -38
68 -78 27 -23 -22 -30 -43 -40 -108 -12 -75 -14 -81 -35 -77 -42 8 -50 -17
-36 -123 19 -154 15 -255 -15 -378 -25 -101 -26 -120 -20 -240 6 -118 4 -143
-18 -246 -22 -100 -24 -117 -11 -131 38 -42 5 -69 -69 -56 -29 5 -61 11 -73
13 -29 5 -41 52 -59 219 -8 77 -22 181 -29 230 -11 68 -13 120 -6 210 9 129
54 558 69 665 5 36 7 95 4 133 -6 65 -7 67 -33 67 -21 0 -30 -7 -40 -30z"/>
<path d="M6620 2851 c-5 -11 -30 -36 -55 -57 -37 -30 -48 -34 -60 -24 -19 16
-32 6 -40 -28 -10 -49 -136 -132 -200 -132 -29 0 -37 -5 -45 -25 -9 -22 -12
-24 -35 -13 -49 22 -61 -20 -71 -237 -8 -167 6 -286 38 -329 19 -26 20 -37 14
-115 -3 -47 -23 -173 -44 -279 -34 -168 -42 -196 -66 -221 -21 -22 -27 -37
-24 -61 4 -46 26 -57 72 -35 l37 18 32 -30 c59 -56 211 -166 262 -189 27 -13
67 -24 87 -24 36 0 37 -1 40 -42 2 -35 7 -44 24 -46 34 -5 114 99 164 215 53
121 78 162 148 238 92 102 85 54 83 523 -1 376 -3 422 -20 472 -18 55 -18 55
2 60 38 10 29 30 -46 108 -41 42 -90 95 -108 117 -64 79 -144 155 -161 155 -9
0 -22 -9 -28 -19z m28 -337 c42 -46 72 -87 76 -106 3 -17 6 -118 6 -224 0
-107 5 -226 12 -265 11 -62 10 -89 -10 -225 -13 -85 -25 -160 -28 -167 -5 -13
-145 -107 -160 -107 -5 0 -45 36 -89 80 l-79 79 17 36 c15 32 16 67 7 412
l-10 377 33 36 c75 82 142 150 148 150 4 0 39 -34 77 -76z"/>
<path d="M8560 2650 c-121 -122 -220 -228 -220 -235 0 -8 -25 -35 -55 -62 -36
-31 -55 -56 -55 -70 0 -34 37 -34 83 -1 15 11 39 21 53 23 13 1 32 9 42 18 16
15 22 12 74 -47 55 -61 100 -87 255 -147 30 -11 58 -55 46 -72 -5 -6 -64 -79
-129 -162 -66 -82 -166 -215 -223 -295 -57 -80 -121 -164 -142 -187 -22 -24
-39 -49 -39 -57 0 -21 28 -46 53 -46 53 -1 287 -69 315 -91 16 -13 44 -32 61
-41 27 -15 30 -20 22 -41 -19 -48 -245 -343 -317 -413 -74 -71 -74 -72 -72
-121 2 -37 -5 -62 -26 -104 -16 -29 -30 -72 -31 -94 -2 -22 -8 -70 -16 -106
-13 -66 -13 -67 14 -99 15 -17 27 -38 27 -45 0 -38 80 -46 108 -11 12 16 31
26 53 28 27 2 35 8 37 27 5 30 -20 51 -60 51 -27 0 -28 2 -28 50 0 128 160
394 297 493 56 41 363 443 363 476 0 21 -85 133 -108 142 -13 5 -72 8 -130 7
-94 -2 -106 0 -116 17 -6 10 -26 35 -44 56 -21 24 -31 43 -26 51 54 91 240
335 320 418 135 141 220 251 229 297 5 31 3 40 -18 62 -157 163 -200 215 -229
278 -18 37 -48 95 -67 128 -19 33 -38 78 -41 100 -3 28 -10 41 -23 43 -12 3
-86 -65 -237 -218z"/>
<path d="M1335 2783 c-38 -42 -93 -108 -122 -147 -70 -96 -104 -136 -112 -136
-4 0 -29 48 -56 108 -69 154 -103 193 -155 177 -13 -4 -20 -15 -20 -33 0 -15
-11 -47 -25 -71 -14 -23 -25 -47 -25 -53 0 -5 -34 -55 -75 -110 -41 -55 -75
-109 -75 -120 0 -13 13 -24 38 -35 37 -15 108 -73 127 -102 10 -16 17 -141 31
-543 l7 -217 -28 -48 c-16 -26 -38 -60 -51 -75 -25 -31 -23 -55 9 -103 34 -50
69 -85 125 -123 30 -19 78 -57 107 -84 29 -26 59 -48 67 -48 22 0 38 22 38 52
0 20 8 31 28 42 35 18 65 52 90 101 11 22 50 78 86 124 67 85 79 118 51 141
-12 10 -21 10 -41 1 -14 -6 -35 -11 -47 -11 -14 0 -41 -18 -67 -45 -24 -25
-49 -45 -55 -45 -6 0 -15 19 -21 43 -6 23 -28 105 -49 182 l-37 140 11 205 10
205 63 118 c67 124 145 234 158 220 4 -4 17 -78 29 -163 31 -220 23 -200 80
-200 48 0 49 0 69 48 11 26 23 58 27 72 4 14 24 59 45 100 44 89 65 172 50
201 -6 10 -15 19 -19 19 -20 0 -104 155 -120 219 -15 62 -18 66 -46 69 -26 2
-39 -8 -100 -75z"/>
<path d="M7433 2828 c-16 -18 -55 -55 -87 -81 -31 -27 -65 -65 -76 -86 -10
-21 -62 -84 -114 -142 -52 -57 -95 -112 -96 -123 0 -10 11 -29 25 -42 24 -22
25 -28 25 -141 0 -70 6 -144 15 -182 12 -49 14 -95 9 -200 -6 -138 -18 -181
-49 -181 -22 0 -37 -35 -26 -62 10 -25 74 -88 134 -132 20 -15 44 -41 53 -58
9 -18 38 -58 65 -90 46 -56 49 -62 49 -117 0 -43 5 -62 18 -74 16 -15 20 -15
40 -1 12 8 29 29 38 45 10 21 33 38 67 54 29 12 78 44 110 69 l57 47 0 -36 c0
-20 5 -45 10 -55 22 -41 -2 -74 -196 -271 -107 -107 -194 -201 -194 -209 0 -8
-24 -57 -54 -109 -60 -106 -71 -138 -62 -176 5 -18 13 -25 31 -25 l25 0 -6
-113 -6 -112 56 -55 57 -55 82 0 c78 0 82 1 85 23 5 31 -10 46 -57 61 -32 9
-42 18 -51 46 -12 37 -15 159 -5 234 14 102 16 105 275 366 238 240 285 296
344 412 30 61 32 80 10 104 -15 17 -13 21 35 69 67 67 70 84 30 165 l-32 66 6
187 c4 124 2 200 -5 224 -9 29 -8 54 5 115 9 43 22 115 28 161 11 79 10 84
-10 106 -11 12 -32 51 -46 85 -13 35 -34 80 -46 100 -12 20 -28 57 -35 82 -19
63 -49 99 -83 99 -32 0 -50 -13 -81 -60 -37 -55 -72 -90 -112 -111 -34 -17
-38 -24 -38 -57 -1 -20 -7 -55 -15 -77 -8 -22 -15 -51 -15 -63 0 -23 3 -24 63
-20 60 3 62 2 65 -22 2 -14 10 -47 18 -74 11 -38 14 -115 14 -321 0 -258 -9
-375 -32 -402 -5 -6 -48 -35 -96 -63 -48 -29 -102 -66 -119 -83 -18 -17 -34
-29 -36 -26 -2 2 -16 49 -32 104 -40 142 -41 226 -11 727 22 359 31 448 47
495 27 78 25 93 -9 93 -19 0 -38 -11 -59 -32z"/>
<path d="M4233 2735 c-12 -8 -74 -78 -139 -156 -64 -77 -128 -145 -141 -150
-21 -8 -23 -14 -23 -88 0 -44 5 -92 11 -108 6 -15 17 -82 25 -148 8 -66 19
-138 24 -160 30 -127 19 -413 -21 -543 -22 -74 -16 -95 34 -115 18 -8 59 -46
92 -86 62 -75 99 -96 120 -68 10 14 14 11 28 -22 44 -98 92 -94 199 17 194
200 219 231 216 260 -4 35 -38 41 -74 13 -15 -12 -32 -21 -39 -21 -6 0 -51
-32 -99 -70 -48 -39 -92 -68 -97 -65 -5 4 -9 26 -9 50 0 24 -5 65 -11 92 -8
33 -8 125 -2 304 l8 256 64 84 c36 46 115 136 176 200 62 63 120 129 130 146
10 17 29 36 42 42 19 9 24 18 21 39 -3 24 -11 30 -81 54 -81 29 -238 131 -329
215 -51 47 -87 55 -125 28z m127 -283 c43 -22 56 -34 65 -62 9 -28 17 -36 41
-38 55 -6 51 -20 -31 -102 -59 -59 -84 -78 -98 -74 -21 6 -46 -11 -56 -40 -5
-12 -13 19 -24 90 -13 85 -22 113 -38 126 -18 15 -19 24 -13 78 l7 62 46 -7
c25 -3 71 -18 101 -33z"/>
</g>
</svg>
